<svg xmlns="http://www.w3.org/2000/svg" viewBox="0 0 23.52 23.52"><defs><style>.cls-1{fill:#d080ae;}</style></defs><g id="Layer_2" data-name="Layer 2"><g id="Layer_1-2" data-name="Layer 1"><path class="cls-1" d="M12,9.16H9.79v3.23H12.6C12.41,11.3,12.23,10.24,12,9.16Z"/><path class="cls-1" d="M10.42,5.3a6.25,6.25,0,0,0-.58-.57l0,0v3.7h2A9.05,9.05,0,0,0,10.42,5.3Z"/><path class="cls-1" d="M12.66,13.08H9.79v3.23h3.05C12.78,15.22,12.72,14.15,12.66,13.08Z"/><path class="cls-1" d="M20.38,0H3.14A3.13,3.13,0,0,0,0,3.14V20.38a3.14,3.14,0,0,0,3.14,3.14H20.38a3.15,3.15,0,0,0,3.14-3.14V3.14A3.14,3.14,0,0,0,20.38,0ZM9.12,3.94c.05,0,.05-.13.05-.2q0-1.2,0-2.4c0-.13,0-.26.17-.27s.2.14.2.28c0,.79,0,1.58,0,2.37,0,.22.09.31.3.35A3.78,3.78,0,0,1,12,5.43a10.21,10.21,0,0,1,2,3.79,25.51,25.51,0,0,1,.72,2.83A28.11,28.11,0,0,1,15,14.94a18.3,18.3,0,0,1,.08,2.34c0,1.13-.13,2.25-.21,3.37a.31.31,0,0,1-.32.32c-.18,0-.29-.16-.28-.38.07-.8.17-1.6.21-2.4s0-1.61,0-2.42a22.66,22.66,0,0,0-.21-2.33c-.17-1.07-.37-2.13-.62-3.19a12.12,12.12,0,0,0-1.39-3.4,7.29,7.29,0,0,0-.83-1.11c.17.42.39.82.52,1.25.3,1,.62,2.06.83,3.11a32.28,32.28,0,0,1,.46,3.38,35.16,35.16,0,0,1,.12,4.92c-.05.75-.09,1.5-.13,2.25,0,.19-.1.33-.31.32s-.27-.17-.26-.36c0-1.12.09-2.24.14-3.36V17h-3v3.62a.43.43,0,0,1-.4.49c-.27,0-.43-.13-.47-.44a1.76,1.76,0,0,1,0-.23q0-8,0-15.9A.69.69,0,0,1,9.12,3.94Zm8.1,18.32-2.49,0H6.59l-.34,0s-.12,0-.13-.07a.15.15,0,0,1,.06-.13,1.65,1.65,0,0,1,1.2-.48h8.76a1.67,1.67,0,0,1,1.17.45.68.68,0,0,1,.09.17A.64.64,0,0,1,17.22,22.26Z"/></g></g></svg>