<svg width="40" height="40" viewBox="0 0 40 40" fill="none" xmlns="http://www.w3.org/2000/svg">
<g clip-path="url(#clip0_445_2650)">
<path d="M9.65573 18.9023L28.1569 0.452334C28.7631 -0.151805 29.7445 -0.150789 30.3496 0.455459C30.9543 1.06163 30.9528 2.04358 30.3465 2.64818L12.9466 20.0001L30.3471 37.3519C30.9533 37.9566 30.9549 38.9379 30.3503 39.5441C30.0469 39.848 29.6495 40 29.2521 40C28.8556 40 28.4598 39.8491 28.157 39.5473L9.65573 21.0977C9.36377 20.8073 9.19995 20.4119 9.19995 20.0001C9.19995 19.5882 9.36424 19.1934 9.65573 18.9023Z" fill="#706F6F"/>
</g>
<defs>
<clipPath id="clip0_445_2650">
<rect width="40" height="40" fill="white" transform="matrix(-1 0 0 1 40.002 0)"/>
</clipPath>
</defs>
</svg>
