<svg xmlns="http://www.w3.org/2000/svg" viewBox="0 0 23.52 23.52"><defs><style>.cls-1{fill:#d080ae;}</style></defs><g id="Layer_2" data-name="Layer 2"><g id="Layer_1-2" data-name="Layer 1"><path class="cls-1" d="M6.49,4.19l0-.65H2.94a7.05,7.05,0,0,0,.89,3.27A5.18,5.18,0,0,0,5.31,8.49a5.43,5.43,0,0,1-1.77-4.3Z"/><path class="cls-1" d="M15.74,17.36h-8a.34.34,0,0,0-.29.29V21.3H16v-.08c0-1.2,0-2.39,0-3.58A.34.34,0,0,0,15.74,17.36Zm-.38,2.23c0,.26-.13.36-.4.37l-1,0H9.14c-.24,0-.47,0-.71,0s-.27-.1-.27-.27c0-.44,0-.87,0-1.31,0-.22.1-.31.31-.31l2.78,0h.48v0H15c.26,0,.38.1.39.36S15.37,19.2,15.36,19.59Z"/><path class="cls-1" d="M14.71,16.07a4,4,0,0,0,0-.49c0-.14-.08-.2-.23-.2H9.06c-.16,0-.23,0-.24.21,0,.37,0,.73,0,1.1h5.92C14.71,16.48,14.72,16.27,14.71,16.07Z"/><path class="cls-1" d="M8.81,19.32h5.9v-.64H8.81Z"/><path class="cls-1" d="M6.74,6.6C6.66,6.06,6.6,5.52,6.54,5c0-.09,0-.11-.13-.11l-2.07,0H4.27a.2.2,0,0,0,0,.07c0,.28.07.56.14.84A5.23,5.23,0,0,0,5.86,8.13c.33.34.71.64,1.07.95.18.16.37.3.56.44h0l-.15-.44A12.41,12.41,0,0,1,6.74,6.6Z"/><path class="cls-1" d="M17.14,4.19H20A5.5,5.5,0,0,1,18.11,8.6a5.53,5.53,0,0,0,1.8-2.21,7,7,0,0,0,.66-2.85H17.14Z"/><path class="cls-1" d="M16.46,4.29c0-.65,0-1.31.06-2V2.23H7.07v0c0,.54,0,1.08.07,1.62s.05,1,.1,1.53.13,1,.21,1.45a9.83,9.83,0,0,0,.62,2.26A5.72,5.72,0,0,0,9.31,11c.3.29.58.59.87.89a2,2,0,0,1,.44.62c.07.19.08.19.28.19h1.94a1.94,1.94,0,0,1,.66-1l.76-.75a5.31,5.31,0,0,0,.94-1.26,9.69,9.69,0,0,0,.91-2.67A20.07,20.07,0,0,0,16.46,4.29Z"/><path class="cls-1" d="M20.38,0H3.14A3.13,3.13,0,0,0,0,3.14V20.38a3.14,3.14,0,0,0,3.14,3.14H20.38a3.15,3.15,0,0,0,3.14-3.14V3.14A3.14,3.14,0,0,0,20.38,0ZM6.82,22v-.13c0-1.19,0-2.38,0-3.56,0-.24,0-.47,0-.7a.83.83,0,0,1,.23-.51,1,1,0,0,1,.85-.36h.21v-.12c0-.36,0-.72,0-1.08a.82.82,0,0,1,.51-.71,1.33,1.33,0,0,1,.45,0l1.48,0h3l1.09,0a.65.65,0,0,1,.5.3,1.14,1.14,0,0,1,.2.69v.94l.42,0a.93.93,0,0,1,.68.4.76.76,0,0,1,.19.55c0,1.39,0,2.78,0,4.17V22ZM20.94,5.63a7.18,7.18,0,0,1-2,3.15,9.17,9.17,0,0,1-2.18,1.52c-.43.22-.88.4-1.33.59a1.51,1.51,0,0,0-.45.29c-.39.38-.77.78-1.19,1.14a1.16,1.16,0,0,0-.42,1c0,.41,0,.82,0,1.23v.12h-.66V13.41h-2v1.22h-.66V13.32a2.34,2.34,0,0,0,0-.38.9.9,0,0,0-.29-.53l-1-.95,0,0a2,2,0,0,0-1-.68A10.85,10.85,0,0,1,5.4,9.46,7.59,7.59,0,0,1,3,6.64a7.24,7.24,0,0,1-.66-2.1,9.2,9.2,0,0,1-.1-1.66H6.46c0-.23,0-.44,0-.67-.17,0-.32,0-.47,0a.58.58,0,0,1-.23,0,.31.31,0,0,1-.12-.5l.11-.12h10l.73,0h1.39l.34,0a.26.26,0,0,1,.18.21.3.3,0,0,1-.3.39H17.2v.66h4.08a.08.08,0,0,1,0,0A8.11,8.11,0,0,1,20.94,5.63Z"/><path class="cls-1" d="M19.26,4.85H17.48l-.33,0c-.06,0-.08,0-.09.1a5.61,5.61,0,0,1-.06.59c-.08.53-.15,1.05-.25,1.57a11.52,11.52,0,0,1-.66,2.29l0,.11.13-.08a15.14,15.14,0,0,0,1.74-1.56A5.06,5.06,0,0,0,19.2,5.37C19.23,5.2,19.24,5,19.26,4.85Z"/></g></g></svg>