<svg xmlns="http://www.w3.org/2000/svg" viewBox="0 0 23.52 23.52"><defs><style>.cls-1{fill:#d080ae;}</style></defs><g id="Layer_2" data-name="Layer 2"><g id="Layer_1-2" data-name="Layer 1"><path class="cls-1" d="M16.25,9.49a.65.65,0,0,0-.11-.33c-.2-.27-.42-.52-.63-.79a1,1,0,0,1-.11-.17c-.05.09-.06.1-.06.12a3.54,3.54,0,0,0,.18,2.42c.09.2.17.41.26.62a.34.34,0,0,0,.38.18c.16,0,.09-.16.1-.25C16.26,10.69,16.26,10.09,16.25,9.49Z"/><path class="cls-1" d="M11.89,8.43a.16.16,0,0,0-.08-.06.14.14,0,0,0-.07.08c-.1.22-.18.44-.28.66s-.22.45-.34.7l.16,0,.9.09c.18,0,.21,0,.16-.17C12.2,9.31,12,8.87,11.89,8.43Z"/><path class="cls-1" d="M2.07,18.37a.51.51,0,1,0,.52.51A.51.51,0,0,0,2.07,18.37Z"/><path class="cls-1" d="M20.38,0H3.14A3.13,3.13,0,0,0,0,3.14V20.38a3.14,3.14,0,0,0,3.14,3.14H20.38a3.15,3.15,0,0,0,3.14-3.14V3.14A3.14,3.14,0,0,0,20.38,0ZM13.25,3.9a.78.78,0,0,1,1.09-.21.8.8,0,0,1,.2,1.11l-.09.07A3.57,3.57,0,0,0,14,4.39a3.27,3.27,0,0,0-.65-.32C13.22,4,13.19,4,13.25,3.9ZM13,4.18a1.47,1.47,0,1,1,0,2.94,1.47,1.47,0,1,1,0-2.94ZM5.78,11a1.68,1.68,0,0,1,1-.89,4.63,4.63,0,0,1,2-.26.46.46,0,0,1,.46.34c.16.53.31,1.05.48,1.58l.3,1a.45.45,0,0,1-.24.55A.43.43,0,0,1,9.23,13c-.14-.4-.25-.81-.38-1.21s-.2-.65-.31-1c0-.06-.1-.14-.15-.13-.42.05-.83.12-1.25.19,0,0-.08.08-.13.12a.65.65,0,0,0,.19,0l.57-.13c.11,0,.16,0,.17.14.09.73.18,1.46.28,2.19,0,.16,0,.22-.2.2l-.68-.07c-.08,0-.17,0-.2.13l.69.08a24.35,24.35,0,0,0,3.52.09.46.46,0,0,1,.52.35.42.42,0,0,1-.24.48.86.86,0,0,1-.23,0,21.64,21.64,0,0,1-3.22,0c-.64-.05-1.28-.15-1.92-.23A.54.54,0,0,1,6,14.18c-.15-.09-.16-.15,0-.28a1.64,1.64,0,0,0-.12-2.31C5.65,11.38,5.64,11.27,5.78,11Zm-1,.37A1.47,1.47,0,1,1,3.32,12.8,1.47,1.47,0,0,1,4.79,11.34ZM2.31,19.93a1.13,1.13,0,0,1-1.22-.64,1.05,1.05,0,0,1,.08-1A.7.7,0,0,0,1.26,18V10.47c0-.26.11-.37.34-.37s.34.11.34.37V14H2c0,1.19,0,2.39,0,3.58,0,.15.05.2.2.2a1.07,1.07,0,0,1,1,1A1.1,1.1,0,0,1,2.31,19.93Zm18.43-4.49v1.48c0,.29-.08.38-.38.38h-4c-.31,0-.31,0-.27.32.06.47.12.94.17,1.42a.66.66,0,0,1-.42.69.64.64,0,0,1-.76-.19,1.36,1.36,0,0,1-.19-.52c-.08-.51-.13-1-.19-1.52,0-.14-.06-.21-.22-.2H13c-.15,0-.21,0-.2.19,0,.54,0,1.08,0,1.62a.67.67,0,0,1-.47.64.69.69,0,0,1-.76-.26,1.12,1.12,0,0,1-.13-.44c0-.49,0-1,0-1.49,0-.25,0-.26-.26-.26H2.62c-.34,0-.41-.07-.41-.42v-2c0-.26.1-.37.37-.37,1.45,0,2.9,0,4.35,0,.44,0,.88.08,1.32.12.1,0,.16.05.16.16s.12.25.27.29a3.8,3.8,0,0,0,2-.09,5.86,5.86,0,0,1,1-.22,20.15,20.15,0,0,1,2.06-.1c.54,0,1.08.12,1.62.18s1.22.15,1.84.19c.78.06,1.57.09,2.36.14l.44.06c.55.1.84-.2.71-.75A3.29,3.29,0,0,0,19.83,13a4.21,4.21,0,0,0-1.56-1.11.61.61,0,0,0-.18,0l-.77-.05a.26.26,0,0,0-.26.13.44.44,0,0,1-.78-.08.32.32,0,0,0-.19-.15,6.2,6.2,0,0,1-2.8-1.13,3.2,3.2,0,0,0-1.91-.55c-.58,0-1.16.09-1.74.13a.27.27,0,0,1-.12,0,.18.18,0,0,1-.09-.1s0-.07.07-.1h.07a.66.66,0,0,0,.69-.49c.27-.6.54-1.19.8-1.78a.59.59,0,0,1,.46-.39c.21,0,.41-.11.63-.15a.66.66,0,0,1,.28,0A1.65,1.65,0,0,0,14,7a.38.38,0,0,1,.23-.08,3.41,3.41,0,0,1,1.3.21,1,1,0,0,1,.33.25c.4.48.79,1,1.19,1.47a.63.63,0,0,1,.14.42v2.21c0,.14,0,.19.18.19A3.33,3.33,0,0,1,20,13a3.3,3.3,0,0,1,.82,1.41,1,1,0,0,1-.08.86A.49.49,0,0,0,20.74,15.44ZM22,20a1.12,1.12,0,0,1-1.05-.67,1.11,1.11,0,0,1,.08-1,1,1,0,0,0,.09-.44V14.3c0-.27.13-.39.4-.36a.3.3,0,0,1,.28.34c0,.56,0,1.12,0,1.68h0c0,.54,0,1.09,0,1.63,0,.15,0,.21.21.23a1.07,1.07,0,0,1,1,1.29A1.14,1.14,0,0,1,22,20Z"/><path class="cls-1" d="M21.9,18.37a.5.5,0,0,0-.51.51.51.51,0,1,0,1,0A.52.52,0,0,0,21.9,18.37Z"/></g></g></svg>