<svg xmlns="http://www.w3.org/2000/svg" viewBox="0 0 23.52 23.52"><defs><style>.cls-1{fill:#d080ae;}</style></defs><g id="Layer_2" data-name="Layer 2"><g id="Layer_1-2" data-name="Layer 1"><path class="cls-1" d="M20.88,10.08V8.45H2.62V9.93c0,.05,0,.1,0,.15Z"/><path class="cls-1" d="M18,15.91a.42.42,0,0,0,.42-.41.41.41,0,1,0-.42.41Z"/><path class="cls-1" d="M13.84,13.42a.42.42,0,0,0,.41-.42.43.43,0,0,0-.42-.41.42.42,0,0,0,0,.83Z"/><path class="cls-1" d="M20.87,7.59a1.32,1.32,0,0,0-1.32-1.65Q11.75,6,4,5.94A1.31,1.31,0,0,0,2.65,7.59Z"/><path class="cls-1" d="M2.62,11.09c0,1.74,0,3.48,0,5.22a1.23,1.23,0,0,0,1.31,1.26H19.58a1.25,1.25,0,0,0,1.32-1.33v-5.3H2.63C2.63,11,2.62,11.05,2.62,11.09Zm16.61,4.4A1.25,1.25,0,1,1,18,14.25,1.25,1.25,0,0,1,19.23,15.49ZM16.79,12a1.45,1.45,0,0,1,.36-.32,2,2,0,0,1,.36.27.39.39,0,0,1,0,.46L15.82,15.2,15,16.53a.4.4,0,0,1-.56.15.4.4,0,0,1-.14-.58l.06-.11,1.76-2.93C16.35,12.7,16.56,12.34,16.79,12Zm-3-.24a1.25,1.25,0,0,1,0,2.49,1.25,1.25,0,0,1,0-2.49ZM4.45,13.51a.55.55,0,0,1,.31-.08H8c.3,0,.48.15.49.4a.43.43,0,0,1-.48.42H4.73a.41.41,0,0,1-.44-.3A.38.38,0,0,1,4.45,13.51Zm.14,1.59a1,1,0,0,1,.24,0h5.55a.93.93,0,0,1,.24,0,.37.37,0,0,1,.3.37.39.39,0,0,1-.27.41.89.89,0,0,1-.28,0H4.84a.93.93,0,0,1-.24,0,.41.41,0,0,1,0-.79Z"/><path class="cls-1" d="M20.38,0H3.14A3.13,3.13,0,0,0,0,3.14V20.38a3.14,3.14,0,0,0,3.14,3.14H20.38a3.15,3.15,0,0,0,3.14-3.14V3.14A3.14,3.14,0,0,0,20.38,0Zm-.8,18.4H4A2.06,2.06,0,0,1,1.8,16.26q0-4.5,0-9A2.07,2.07,0,0,1,4,5.11H19.6a2.09,2.09,0,0,1,2.1,1.78,2.36,2.36,0,0,1,0,.38v9A2.07,2.07,0,0,1,19.58,18.4Z"/></g></g></svg>