<svg xmlns="http://www.w3.org/2000/svg" viewBox="0 0 23.52 23.52"><defs><style>.cls-1{fill:#d080ae;}</style></defs><g id="Layer_2" data-name="Layer 2"><g id="Layer_1-2" data-name="Layer 1"><path class="cls-1" d="M7.71,15.54a2.41,2.41,0,0,0-.36,0v2.07h.29a1,1,0,0,0,1.09-1.11A.91.91,0,0,0,7.71,15.54Z"/><path class="cls-1" d="M20.63,7a5.88,5.88,0,0,0-3-3.5,7.63,7.63,0,0,0-5.73-.65A6.84,6.84,0,0,0,8.31,5.17a5.35,5.35,0,0,0,.52,7.32,7.05,7.05,0,0,0,4.58,2,7.74,7.74,0,0,0,4.32-.93.62.62,0,0,1,.62,0,4.9,4.9,0,0,0,.79.33,7.21,7.21,0,0,0,.81.14V14a4,4,0,0,1-.66-1.09.63.63,0,0,1,.12-.71A5.24,5.24,0,0,0,20.63,7ZM10.26,6.14h7.38a.53.53,0,1,1,0,1.06H10.26a.53.53,0,1,1,0-1.06ZM17.65,11H10.28a.53.53,0,0,1-.55-.62.52.52,0,0,1,.54-.44h7.38a.52.52,0,0,1,.56.52A.53.53,0,0,1,17.65,11Zm0-1.9H10.29a.52.52,0,0,1-.53-.34.54.54,0,0,1,.14-.59A.56.56,0,0,1,10.29,8h7.32a.57.57,0,0,1,.61.42A.53.53,0,0,1,17.68,9.08Z"/><path class="cls-1" d="M20.38,0H3.14A3.13,3.13,0,0,0,0,3.14V20.38a3.14,3.14,0,0,0,3.14,3.14H20.38a3.15,3.15,0,0,0,3.14-3.14V3.14A3.14,3.14,0,0,0,20.38,0ZM14.67,17.16a5.63,5.63,0,0,1-1.32,2.1,6.82,6.82,0,0,1-4.06,2,7.32,7.32,0,0,1-3.41-.33c-.29-.1-.56-.23-.84-.35a.24.24,0,0,0-.22,0,4.24,4.24,0,0,1-2.33.3.69.69,0,0,1-.28-1.26,2.32,2.32,0,0,0,.67-.72,5.49,5.49,0,0,1-.82-1.32,5.36,5.36,0,0,1,.78-5.65,5.89,5.89,0,0,1,1.68-1.46.52.52,0,0,1,.8.3.52.52,0,0,1-.25.6,5.47,5.47,0,0,0-1.21,1,4.43,4.43,0,0,0-1.22,3.33,4.16,4.16,0,0,0,1.19,2.69A.55.55,0,0,1,4,19c-.12.28-.26.54-.4.82a.91.91,0,0,0,.27,0,7.94,7.94,0,0,0,.81-.31.61.61,0,0,1,.57,0,6.15,6.15,0,0,0,3.41.78A5.9,5.9,0,0,0,12.7,18.4a4.4,4.4,0,0,0,1-1.54.56.56,0,0,1,.44-.42A.53.53,0,0,1,14.67,17.16Zm-8.43-.83v.43H5.15v.84H6.37V18H4.63V15.15H6.3v.44H5.15v.74ZM6.83,18V15.19a6.44,6.44,0,0,1,.83-.06,1.73,1.73,0,0,1,1.18.34,1.28,1.28,0,0,1,.45,1.06,1.5,1.5,0,0,1-.45,1.14,1.92,1.92,0,0,1-1.3.39A6.37,6.37,0,0,1,6.83,18Zm13.59-5.18a2.79,2.79,0,0,0,.79.85.73.73,0,0,1,.31.79.69.69,0,0,1-.6.56,4.82,4.82,0,0,1-2.8-.37.28.28,0,0,0-.25,0,8.73,8.73,0,0,1-7.75,0,7,7,0,0,1-3.18-2.89A6.15,6.15,0,0,1,6.83,5.5a7.43,7.43,0,0,1,4.09-3.42A8.49,8.49,0,0,1,14,1.54,8.43,8.43,0,0,1,18.81,3a7,7,0,0,1,2.72,3.39A6.12,6.12,0,0,1,21.4,11a6.67,6.67,0,0,1-1,1.6C20.37,12.71,20.37,12.76,20.42,12.85Z"/></g></g></svg>