<svg xmlns="http://www.w3.org/2000/svg" viewBox="0 0 70.93 70.93"><defs><style>.cls-1{fill:#d282b0;}</style></defs><g id="Layer_2" data-name="Layer 2"><g id="Layer_1-2" data-name="Layer 1"><path class="cls-1" d="M60.84,0H10.09A10.09,10.09,0,0,0,0,10.09V60.84A10.09,10.09,0,0,0,10.09,70.93H60.84A10.09,10.09,0,0,0,70.93,60.84V10.09A10.09,10.09,0,0,0,60.84,0ZM50.46,45.35V63H45.84V43.11a16.22,16.22,0,0,0,8.23-8.38L49.91,33a2.71,2.71,0,0,1,3.33-1.17l1.6.66a16.2,16.2,0,0,0,.09-7.86l-4.52,1.66a2.72,2.72,0,0,1,1.65-3.13l2.16-.78a16.12,16.12,0,0,0-4.21-6L46.17,20.2a2.71,2.71,0,0,1,.18-3.52l1.78-1.79a16.11,16.11,0,0,0-7.56-2.62,1.11,1.11,0,0,0,0,.19v5.67A2.72,2.72,0,0,1,38.2,15.5V12.24A16.09,16.09,0,0,0,30.09,15l.13.12,4,4A2.74,2.74,0,0,1,30.7,19l-2.41-2.41-.06-.06a16.43,16.43,0,0,0-4.13,6.1L24,23a.88.88,0,0,1,0,.15.78.78,0,0,0,0,.22,4.19,4.19,0,0,0-.11.95,3.86,3.86,0,0,0,3.67,4h7.38V23.27a2.72,2.72,0,0,1,2.37,2.62v2.43h.88a4.32,4.32,0,0,1,2.3.66l4-4a2.71,2.71,0,0,1-.17,3.52L42,30.72a4.4,4.4,0,0,1,.48,2v1.88h5.47a2.71,2.71,0,0,1-2.62,2.36H42.46V63h-14V56.61H26.14a9.29,9.29,0,0,1-9.29-9.28V42.59h-3a1.47,1.47,0,0,1-1.47-1.47,2.84,2.84,0,0,1,.27-.88s4.23-10.59,4.23-11.39A20.87,20.87,0,1,1,50.46,45.35Z"/></g></g></svg>