<svg xmlns="http://www.w3.org/2000/svg" viewBox="0 0 23.52 23.52"><defs><style>.cls-1{fill:#d080ae;}</style></defs><g id="Layer_2" data-name="Layer 2"><g id="Layer_1-2" data-name="Layer 1"><path class="cls-1" d="M4.91,14.66a.74.74,0,0,0,.41-.57q0-.16-.15-.18a.51.51,0,0,0-.49.45C4.66,14.56,4.79,14.72,4.91,14.66Z"/><path class="cls-1" d="M17.59,13v-.74H17a.11.11,0,0,0,0,0V13c0,.43-.2.62-.62.63h-.76v.59h.74c.45,0,.63.18.64.64v.73h.56l0-.07c0-.23,0-.46,0-.69,0-.43.18-.61.61-.61h.62a.2.2,0,0,0,.14-.11c0-.15,0-.3,0-.47h-.75C17.77,13.57,17.59,13.39,17.59,13Z"/><path class="cls-1" d="M15.36,19a.46.46,0,0,0-.51.52c0,.31,0,.63,0,.95v.3h.05L16.58,19Z"/><path class="cls-1" d="M4.74,11.57a.22.22,0,0,0,.17.07A.74.74,0,0,0,5.32,11s-.07-.08-.13-.09a.43.43,0,0,0-.42.21A.41.41,0,0,0,4.74,11.57Z"/><path class="cls-1" d="M4.93,17.67a.72.72,0,0,0,.39-.54c0-.13,0-.21-.16-.2a.48.48,0,0,0-.43.66C4.77,17.69,4.83,17.72,4.93,17.67Z"/><path class="cls-1" d="M9.3,4.06l-.18.62a.05.05,0,0,0,.05.06h.35a0,0,0,0,0,0-.06l-.17-.62A0,0,0,0,0,9.3,4.06Z"/><path class="cls-1" d="M20.38,0H3.14A3.13,3.13,0,0,0,0,3.14V20.38a3.14,3.14,0,0,0,3.14,3.14H20.38a3.15,3.15,0,0,0,3.14-3.14V3.14A3.14,3.14,0,0,0,20.38,0ZM6.46,3.58c0-.19.12-.29.32-.3h.71a.3.3,0,1,1,0,.6c-.13,0-.27,0-.43,0v.3h.36c.21,0,.34.13.33.31s-.13.28-.33.28-.22,0-.35,0v.31H7.5a.29.29,0,0,1,.31.29.3.3,0,0,1-.3.31c-.25,0-.49,0-.74,0a.29.29,0,0,1-.31-.31C6.45,4.77,6.45,4.18,6.46,3.58ZM9.53,7.27H9.7a.28.28,0,0,1,.29.29.29.29,0,0,1-.28.3h-.3c-.06.13,0,.19.11.18a1.32,1.32,0,0,1,.28,0,.26.26,0,0,1,.24.29.26.26,0,0,1-.23.28,6.94,6.94,0,0,1-.79,0,.25.25,0,0,1-.23-.28c0-.51,0-1,0-1.54a.28.28,0,0,1,.29-.31,3.86,3.86,0,0,1,.68,0,.28.28,0,0,1,.28.3.3.3,0,0,1-.31.29H9.41C9.36,7.22,9.39,7.28,9.53,7.27Zm.25-1.71c-.11-.45-.46-.27-.73-.3,0,0-.08,0-.11.08s0,.11-.07.17a.3.3,0,0,1-.39.17.29.29,0,0,1-.17-.37c.23-.61.45-1.22.7-1.81a.39.39,0,0,1,.29-.19.37.37,0,0,1,.3.17c.25.61.48,1.24.71,1.86l0,.06,0,0a1.36,1.36,0,0,1-.24.24C10,5.74,9.81,5.7,9.78,5.56ZM9.6,10.4H12c.25,0,.39.11.38.3s-.14.3-.39.3H7.21c-.25,0-.41-.15-.37-.36s.17-.24.36-.24Zm1.29-3.66a1.09,1.09,0,0,1,1.23-.12c.19.11.26.28.17.44s-.25.19-.45.09a.5.5,0,0,0-.56,0,.44.44,0,0,0-.16.48.41.41,0,0,0,.37.36.53.53,0,0,0,.36-.09c.19-.12.33-.14.45,0s.11.3-.05.45a.94.94,0,0,1-.64.27,1.1,1.1,0,0,1-1-.72A1.07,1.07,0,0,1,10.89,6.74Zm0-1.39V3.59a.32.32,0,0,1,.31-.33.31.31,0,0,1,.29.33V5.08h.35a.27.27,0,0,1,.28.28.27.27,0,0,1-.24.31,3.66,3.66,0,0,1-.74,0C10.94,5.65,10.86,5.52,10.85,5.35Zm3.34,2.71c.17.18.2.35.07.49s-.31.12-.48-.05a2.69,2.69,0,0,1-.26-.33l-.07.05a.62.62,0,0,0,0,.13.29.29,0,0,1-.29.29.3.3,0,0,1-.31-.3c0-.14,0-.28,0-.41v-1c0-.26.09-.39.28-.41s.29.11.33.4l.3-.27a.31.31,0,0,1,.46,0,.3.3,0,0,1-.05.44c-.17.17-.34.32-.5.47C13.84,7.69,14,7.88,14.19,8.06Zm4.18,4.88h.56c.46,0,.66.21.67.66v.28h0c0,.13,0,.25,0,.38a.54.54,0,0,1-.55.53c-.21,0-.43,0-.64,0s-.2,0-.19.19,0,.41,0,.61a.56.56,0,0,1-.57.59H17a.57.57,0,0,1-.61-.59,5.42,5.42,0,0,1,0-.57c0-.17,0-.25-.22-.23s-.4,0-.6,0a.51.51,0,0,1-.54-.51,5,5,0,0,1,0-.77c0-.39.23-.56.62-.57h.57c.13,0,.18,0,.18-.17a4.78,4.78,0,0,1,0-.76.45.45,0,0,1,.46-.43,6.31,6.31,0,0,1,.87,0,.51.51,0,0,1,.49.54v.66C18.2,12.9,18.25,12.94,18.37,12.94ZM15.56,5.3c0-.18,0-.36,0-.55H14.9v.57c0,.22-.13.36-.31.36a.32.32,0,0,1-.29-.36V3.62a.32.32,0,0,1,.29-.36c.19,0,.3.14.31.37v.5h.66c0-.17,0-.33,0-.49s.11-.37.29-.38.3.14.3.37q0,.84,0,1.68c0,.23-.12.37-.3.37S15.56,5.54,15.56,5.3ZM13.64,3.86h-.21V5.36a.32.32,0,0,1-.3.32.3.3,0,0,1-.3-.33V3.87h-.22a.29.29,0,0,1-.28-.29.27.27,0,0,1,.26-.3c.35,0,.71,0,1.07,0a.27.27,0,0,1,.26.31A.28.28,0,0,1,13.64,3.86ZM7.21,17c-.25,0-.41-.15-.37-.36s.17-.24.36-.24H12c.24,0,.39.11.38.3s-.14.3-.39.3Zm4.24,1.05c0,.19-.14.29-.39.29H7.22c-.17,0-.32,0-.36-.21A.45.45,0,0,1,7,17.86a.37.37,0,0,1,.26-.07h3.86C11.32,17.79,11.45,17.89,11.45,18.09ZM7.21,13.42H12c.25,0,.39.1.39.29S12.24,14,12,14H7.22c-.25,0-.39-.12-.38-.31S7,13.42,7.21,13.42Zm-.35-1.28a.37.37,0,0,1,.08-.3.41.41,0,0,1,.28-.09h3.84c.26,0,.39.1.39.29s-.13.31-.38.31H7.2A.31.31,0,0,1,6.86,12.14Zm.36,2.63h3.86c.24,0,.37.1.37.29s-.13.3-.36.3H7.21c-.23,0-.37-.11-.37-.29S7,14.77,7.22,14.77Zm1-6.48c0,.22-.11.35-.29.35s-.3-.13-.3-.36,0-.29,0-.44H7.12v.48a.31.31,0,0,1-.3.32.3.3,0,0,1-.3-.33V6.79a.3.3,0,0,1,.29-.32.31.31,0,0,1,.31.32v.43h.49c0-.13,0-.26,0-.39s.11-.36.3-.36.29.13.3.35C8.21,7.31,8.21,7.8,8.2,8.29Zm9.39,9.21c0,.29,0,.6,0,.9a.87.87,0,0,1-.3.75c-.82.85-1.63,1.71-2.44,2.58a.58.58,0,0,1-.45.19H3.68A1,1,0,0,1,2.6,20.83V2.69a1.08,1.08,0,0,1,.79-1.1H6.12c.13.11.25.22.18.4s-.22.2-.39.2H3.72c-.4,0-.52.12-.52.54V20.85c0,.33.14.47.47.47H14.22a1.8,1.8,0,0,0,0-.22V19.59a1.09,1.09,0,0,1,1.17-1.18h1.51l.07,0c0-.27,0-.55,0-.83,0,0-.09-.08-.15-.08a3.65,3.65,0,0,1-2.23-6.06.34.34,0,0,1,.36-.14c.25.06.32.31.13.53a3.16,3.16,0,0,0-.66,1.12,3,3,0,0,0,2.22,3.87,2.11,2.11,0,0,0,1.3-.24,3.32,3.32,0,0,0,1.46-4.76,1.87,1.87,0,0,0-1-.7,3,3,0,0,0-2.24,0c-.27.1-.45,0-.47-.24a.28.28,0,0,1,.22-.33l1-.28V2.75c0-.44-.11-.56-.55-.56h-9c-.17,0-.32,0-.39-.2s.05-.29.18-.4H16.8l.05,0a1,1,0,0,1,.74,1v7.57a3.67,3.67,0,0,1,2.62,1.48A3.55,3.55,0,0,1,20.92,14,3.67,3.67,0,0,1,17.59,17.5ZM5.17,6.43a5.59,5.59,0,0,1,.57.22.28.28,0,0,1,.1.4.3.3,0,0,1-.39.12,1.19,1.19,0,0,0-.36-.09.47.47,0,0,0-.42.38A.48.48,0,0,0,4.89,8a.42.42,0,0,0,.53,0,.3.3,0,0,1,.44,0,.31.31,0,0,1,0,.44A1.06,1.06,0,0,1,4.1,7.87,1.14,1.14,0,0,1,5.17,6.43ZM4.06,5.31V3.62c0-.22.11-.35.29-.36s.3.14.31.36v.51h.65V3.64c0-.24.11-.37.29-.38s.31.14.31.38c0,.56,0,1.11,0,1.67,0,.23-.12.37-.3.37s-.29-.14-.3-.37V4.75H4.66v.54c0,.25-.12.39-.31.39S4.06,5.54,4.06,5.31Zm2.2,6.07a1.1,1.1,0,1,1-1.1-1.11A1.09,1.09,0,0,1,6.26,11.38Zm-1.1,1.91a1.1,1.1,0,1,1,0,2.2,1.1,1.1,0,1,1,0-2.2Zm0,3a1.1,1.1,0,0,1,0,2.2,1.1,1.1,0,1,1,0-2.2Z"/></g></g></svg>