<svg xmlns="http://www.w3.org/2000/svg" viewBox="0 0 70.93 70.93"><defs><style>.cls-1{fill:#d282b0;}</style></defs><g id="Layer_2" data-name="Layer 2"><g id="Layer_1-2" data-name="Layer 1"><path class="cls-1" d="M61.47,0h-52A9.45,9.45,0,0,0,0,9.46v52a9.46,9.46,0,0,0,9.46,9.46h52a9.47,9.47,0,0,0,9.46-9.46v-52A9.46,9.46,0,0,0,61.47,0ZM35.54,60.81s-15-9.4-23.34-20.35h10l.24,0A3.93,3.93,0,0,0,24.52,39a25.84,25.84,0,0,0,1.62-3.19c.8,1.56,2.36,4.26,2.57,4.63l.13.22.21.13A2.17,2.17,0,0,0,30.7,41a1.85,1.85,0,0,0,1.18-1c.37-.74,1.73-7.1,2.73-12,1,6,3.28,18.38,3.6,20.13l0,.21.11.17a1.37,1.37,0,0,0,1.1.59h.15c1-.12,1.42-1.3,1.58-1.74.5-1.4,2.68-8.67,3.41-11.11.63,1,1.52,2.52,2.29,3.88l.28.5h11.4C50.18,51.55,35.54,60.81,35.54,60.81Zm26.83-26.1a31.72,31.72,0,0,1-2.35,4H48.34a43.22,43.22,0,0,0-3.05-4.87,1.29,1.29,0,0,0-1.39-.37,1.82,1.82,0,0,0-1,1.58c-.25.84-2.21,7.38-3.16,10.4-1.57-8.64-3.58-19.89-3.66-20.73s-.42-1.44-1-1.63a1.39,1.39,0,0,0-1.45.5l-.16.19-.05.25c-1,5.07-2.75,13.22-3.26,14.91-1-1.72-2.36-4.17-2.57-4.74a1.48,1.48,0,0,0-2.64-.53l-.15.25a37.86,37.86,0,0,1-1.89,3.92,2,2,0,0,1-.87.64H10.75a31,31,0,0,1-2.19-3.76c-5-10.15-.9-21.28,9.65-24.1C28.12,8,34.72,16.68,35.46,17.72c.75-1,7.34-9.76,17.26-7.11C63.26,13.43,67.32,24.56,62.37,34.71Z"/></g></g></svg>