<svg xmlns="http://www.w3.org/2000/svg" viewBox="0 0 23.52 23.52"><defs><style>.cls-1{fill:#d080ae;}</style></defs><g id="Layer_2" data-name="Layer 2"><g id="Layer_1-2" data-name="Layer 1"><path class="cls-1" d="M20.38,0H3.14A3.13,3.13,0,0,0,0,3.14V20.38a3.14,3.14,0,0,0,3.14,3.14H20.38a3.15,3.15,0,0,0,3.14-3.14V3.14A3.14,3.14,0,0,0,20.38,0ZM4.77,19.54c-.32.65-.64,1.3-1,1.94A.61.61,0,1,1,2.69,21c.36-.73.73-1.46,1.1-2.19.13-.26.26-.52.38-.78a.67.67,0,0,1,.67-.41h2v-.46H5.44a1.68,1.68,0,0,1-.45,0,.6.6,0,0,1,.14-1.17H6.27a.19.19,0,0,0,.17-.09c.2-.33.42-.66.63-1a1.2,1.2,0,0,1,1.37-.55,1.23,1.23,0,0,1,.89,1.2v2.65a1.22,1.22,0,0,1-1.28,1.29H5A.18.18,0,0,0,4.77,19.54Zm2.12-7.09a1.25,1.25,0,1,1,1.27,1.23A1.25,1.25,0,0,1,6.89,12.45ZM9.5,22a.57.57,0,0,1-.18,0c-.36,0-.73,0-1.09,0a2.12,2.12,0,0,1-1.13-.29,3.17,3.17,0,0,1-1.46-1.64l0-.08a.08.08,0,0,1,0,0H6.88a.2.2,0,0,1,.13.09,1.93,1.93,0,0,0,1.76.81A2,2,0,0,0,10,17.55a.16.16,0,0,1-.05-.1v-1.4l.45.26a3.13,3.13,0,0,1,1.42,2.83A3.19,3.19,0,0,1,9.5,22Zm8.94-.24s0,.08,0,.13-.06.16-.18.14a2.08,2.08,0,0,0-.25,0,.14.14,0,0,1-.16-.14.86.86,0,0,1,0-.16c0-1.47,0-2.93,0-4.39a.34.34,0,0,0-.24-.38c-.24-.06-.41.08-.44.36a.3.3,0,0,1-.33.27.29.29,0,0,1-.27-.31A.72.72,0,0,1,16.6,17c.1-.18.23-.33.33-.48a2.7,2.7,0,0,1-.05-.41c0-.84,0-1.67,0-2.51v-.11h-.5v4.86c0,1.07,0,2.13,0,3.2a.62.62,0,0,1-.24.49.18.18,0,0,1-.13,0h-.52a.24.24,0,0,1-.14-.05.59.59,0,0,1-.22-.45V16.71h-.5v.59c0,1.07,0,2.15,0,3.22,0,.35,0,.7,0,1.05a.91.91,0,0,1-.12.35.27.27,0,0,1-.29.15c-.15,0-.3,0-.45,0a.37.37,0,0,1-.18-.08.59.59,0,0,1-.2-.45V13.48H12.9v2.7a.5.5,0,0,1-.75.46.52.52,0,0,1-.25-.44V13a1.25,1.25,0,0,1,1.29-1.3h3.39A1.23,1.23,0,0,1,17.87,13c0,1,0,2.06,0,3.09a2.36,2.36,0,0,1,0,.29,3.22,3.22,0,0,1,.39.33.88.88,0,0,1,.22.63ZM13.61,10a1.24,1.24,0,0,1,1.27-1.23A1.26,1.26,0,0,1,16.09,10a1.24,1.24,0,1,1-2.48,0Zm9.1,1.22H19.77a.21.21,0,0,1-.13,0L14.12,6.26,11.77,4.19l-.15.13L7.18,8.24,3.9,11.14a.24.24,0,0,1-.13,0H.9l-.1,0,11-9.74,3.35,3V2.36h4v.15c0,1.77,0,3.54,0,5.3a.24.24,0,0,0,.11.22l3.44,3.06.08.08Z"/></g></g></svg>