<svg xmlns="http://www.w3.org/2000/svg" viewBox="0 0 23.52 23.52"><defs><style>.cls-1{fill:#d080ae;}</style></defs><g id="Layer_2" data-name="Layer 2"><g id="Layer_1-2" data-name="Layer 1"><path class="cls-1" d="M10,8.16h0L9.88,10h0l.53,0h0c0-.6.05-1.2.08-1.8Z"/><path class="cls-1" d="M16.66,12.48h.71v-.4h-.71Z"/><path class="cls-1" d="M18.21,7a3.37,3.37,0,0,0-2.46-.9,3.22,3.22,0,0,0-3.31,3.31v8.47H19.2c0-.05,0-.08,0-.1,0-2.87,0-5.75,0-8.62A3,3,0,0,0,18.21,7ZM13,9.86h2V15.1H13Zm5.67,7.38H13.1V15.78h5.52Zm0-2.14H15.28V12.49h1.17v-.61h1.13v.6h1.05Z"/><path class="cls-1" d="M20.38,0H3.14A3.13,3.13,0,0,0,0,3.14V20.38a3.14,3.14,0,0,0,3.14,3.14H20.38a3.15,3.15,0,0,0,3.14-3.14V3.14A3.14,3.14,0,0,0,20.38,0ZM4.72,2l2.5.12c0,.32,0,.62,0,.94l-2.5-.13C4.69,2.6,4.7,2.3,4.72,2ZM4.6,3.29a.23.23,0,0,1,.27-.16l1,.06c.36,0,.73,0,1.09.05a.29.29,0,0,1,.19.13,1.42,1.42,0,1,1-2.66,1A1.45,1.45,0,0,1,4.6,3.29Zm6.22,18a1,1,0,0,1-1,0,.89.89,0,0,1-.46-.75,8.69,8.69,0,0,0-.84-2.91A6.26,6.26,0,0,0,7.39,16,15.31,15.31,0,0,1,6,19.44a12.09,12.09,0,0,0-.54,1.34,1,1,0,0,1-.69.76H4.37l-.1,0a.88.88,0,0,1-.63-1.16,25.17,25.17,0,0,1,1.05-2.65c.24-.59.44-1.2.65-1.81a.57.57,0,0,0,0-.29A5,5,0,0,0,5.17,15a1.69,1.69,0,0,0-.2-.43,1.51,1.51,0,0,1-.3-.89c0-.25,0-.5,0-.79l2.77.15a.39.39,0,0,1,0,.14.72.72,0,0,0,.35.68,9.59,9.59,0,0,1,3.06,4.93,15.79,15.79,0,0,1,.3,1.67A.71.71,0,0,1,10.82,21.25Zm2.84-.12a.92.92,0,0,1-.91-1,.94.94,0,1,1,.91,1Zm4.09,0a.92.92,0,0,1-.93-.93.94.94,0,1,1,.93.93Zm2.16-2.58H11.74V9.61c-.39.42-.88.33-1.32.39h0v.26H9.83l.05-.3h0a7.7,7.7,0,0,1-2-.36l-.46-.16V12.7l-2.81-.14v-.24c0-1.37,0-2.74-.05-4.1a7.88,7.88,0,0,0,0-1.09,1.33,1.33,0,0,1,1-1.41A1.35,1.35,0,0,1,7.32,6.85a.63.63,0,0,1,0,.19c0,.32.14.43.39.54a6.79,6.79,0,0,0,2.1.59H10V8h.54l0,.22a1,1,0,0,1,1.24.54A4,4,0,0,1,15,5.41a3.29,3.29,0,0,1,.15-.6.6.6,0,0,1,.56-.29c0-.13,0-.26,0-.38s0-.22.16-.21.14.1.14.2a.22.22,0,0,1,0,.08c0,.19,0,.31.25.35s.5.38.43.84c.24.07.49.12.72.21a3.88,3.88,0,0,1,2.56,3.68c0,3,0,6.09,0,9.13A.62.62,0,0,1,19.91,18.55Z"/></g></g></svg>