<svg xmlns="http://www.w3.org/2000/svg" viewBox="0 0 23.52 23.52"><defs><style>.cls-1{fill:#d080ae;}</style></defs><g id="Layer_2" data-name="Layer 2"><g id="Layer_1-2" data-name="Layer 1"><path class="cls-1" d="M11.48,12.76a1,1,0,0,0-1,1,1,1,0,0,0,1,1,1,1,0,1,0,0-2Z"/><path class="cls-1" d="M20.17,0H3.34A3.35,3.35,0,0,0,0,3.34V20.17a3.35,3.35,0,0,0,3.34,3.35H20.17a3.35,3.35,0,0,0,3.35-3.35V3.34A3.35,3.35,0,0,0,20.17,0Zm-8.5,18.73v3H11.3c0-.07,0-.13,0-.19V18.33s0-.06,0-.07.11-.15.18-.17.19,0,.2.16Zm4.14-2.94a.56.56,0,0,1-.66-.47c-.11-.49-.21-1-.32-1.49a.85.85,0,0,0-.11-.26c.06,1.58.38,3.12.57,4.69h-.71c-.07.48-.13.93-.2,1.39s-.13,1-.2,1.48a.64.64,0,0,1-.71.61H12.39c0-1.8,0-3.61.07-5.42h.09l.15,1c0,.09,0,.2,0,.29a.34.34,0,0,0,.35.27.33.33,0,0,0,.3-.34A3.05,3.05,0,0,0,13,15.82a2.47,2.47,0,0,0-1.16-1c-.1,0-.26.07-.39.11v0h0c-.18-.22-.37-.18-.59-.06A2.31,2.31,0,0,0,9.61,16.8a5.44,5.44,0,0,0,0,.58.37.37,0,0,0,.29.43c.17,0,.33-.1.37-.34s.09-.63.13-.94c0-.08.05-.15.07-.23h.05c0,1.8,0,3.6.07,5.41-.42,0-.82,0-1.22,0a.58.58,0,0,1-.49-.56l-.27-2.8c-.09-1-.19-2-.27-3,0-.6-.06-1.2-.08-1.8h0c-.1.43-.19.86-.28,1.28a2.84,2.84,0,0,1-.08.42.57.57,0,0,1-.66.42.53.53,0,0,1-.45-.57,8.55,8.55,0,0,1,.53-2.3,3.69,3.69,0,0,1,1.82-2c.3-.15.33-.15.58.09l.13.12.1-.11c.19-.25.24-.26.53-.13a3.92,3.92,0,0,1,1.27.95l.59-.4.2-.13c.39-.26.4-.26.73,0l.07.06a1.8,1.8,0,0,0,.2-.19.29.29,0,0,1,.37-.07,3.46,3.46,0,0,1,2,2.29c.16.59.28,1.19.41,1.79A.56.56,0,0,1,15.81,15.79ZM8.25,9.07a1.46,1.46,0,1,1,1.47,1.48A1.46,1.46,0,0,1,8.25,9.07Zm3.56.35A1.43,1.43,0,0,1,13.25,8a1.41,1.41,0,0,1,1.41,1.43,1.4,1.4,0,0,1-1.44,1.41A1.41,1.41,0,0,1,11.81,9.42Zm8.31-3.37c-.95.21-1.91.43-2.88.58a8,8,0,0,1-3-.16c-.84-.18-1.67-.39-2.52-.56s-1.5-.25-2.25-.4a3,3,0,0,1-.8-.3.58.58,0,0,1-.36-.58.62.62,0,0,1,.4-.52,3.53,3.53,0,0,1,1.54-.3c.86,0,1.73,0,2.59,0a.41.41,0,0,0,.21,0c-.46-.06-.91-.15-1.37-.18-.64,0-1.28,0-1.92,0a3.5,3.5,0,0,0-1.3.29A2.4,2.4,0,0,0,8.23,4,.66.66,0,0,0,8,5a2.71,2.71,0,0,0,.35.41l.17.11,0,.08C6.89,6.11,5.25,6.67,3.6,7.21a1.86,1.86,0,0,1-1.19,0,1.17,1.17,0,0,1-.26-.1A.51.51,0,0,1,2,6.24a1.75,1.75,0,0,1,.46-.35q3.33-1.82,6.68-3.6a6.08,6.08,0,0,1,1.23-.46,3.56,3.56,0,0,1,1.52.09L17.42,3a5.49,5.49,0,0,0,2.21-.09.25.25,0,0,1,.31.11l1.69,2.45.09.14C21.18,5.78,20.66,5.94,20.12,6.05Z"/></g></g></svg>