<svg xmlns="http://www.w3.org/2000/svg" viewBox="0 0 23.52 23.52"><defs><style>.cls-1{fill:#d080ae;}</style></defs><g id="Layer_2" data-name="Layer 2"><g id="Layer_1-2" data-name="Layer 1"><path class="cls-1" d="M20.38,0H3.14A3.13,3.13,0,0,0,0,3.14V20.38a3.14,3.14,0,0,0,3.14,3.14H20.38a3.15,3.15,0,0,0,3.14-3.14V3.14A3.14,3.14,0,0,0,20.38,0Zm-5,9.37c.29.77.51,1.55.76,2.33-.65.09-.65.09-.82-.47-.09-.32-.2-.63-.27-1s-.19-.3-.43-.22c.15.54.31,1.08.46,1.64H12.44c.15-.55.31-1.08.46-1.63-.21-.07-.35-.07-.42.19s-.24.76-.32,1.14-.2.37-.46.33h-.24l0-.06c.22-.75.43-1.5.68-2.24A.93.93,0,0,1,13,8.81h1.44A.91.91,0,0,1,15.38,9.37Zm1.44,3.82v1.54H10.1V12.34H16C16.61,12.34,16.82,12.55,16.82,13.19ZM13,7.78A.82.82,0,0,1,13.74,7a.79.79,0,0,1,.8.79.79.79,0,0,1-.79.79A.79.79,0,0,1,13,7.78ZM15,6.3l-.42.78a1.09,1.09,0,0,0-1.64,0c-.12-.23-.25-.44-.35-.67,0,0,0-.18.07-.22A1.77,1.77,0,0,1,15,6.3Zm4.89,10.77A9.12,9.12,0,1,1,5.68,6.13a1.93,1.93,0,0,0-.27-.31C5.14,5.57,4.9,5.3,4.63,5A.51.51,0,0,1,5.09,5c.24.08.48.15.71.24a1,1,0,0,0,.93-.05c.77-.44,1.53-.9,2.33-1.37L5.62,1.61a1,1,0,0,1,.8-.12,8.72,8.72,0,0,1,1,.31.39.39,0,0,0,.45,0A.23.23,0,0,1,8,1.69c.07,0,.15,0,.18.05s0,.12,0,.17A.46.46,0,0,1,8,2l.78.27c.06,0,.14,0,.22-.09s.19-.14.26,0,0,.17,0,.28c.29.1.63.21,1,.34a.56.56,0,0,0,.57-.06c.38-.25.78-.48,1.19-.7a.91.91,0,0,1,.61-.11c.19,0,.23.11.17.29a1,1,0,0,1-.39.51c-.39.26-.78.51-1.18.74a.52.52,0,0,0-.28.44c0,.36-.11.72-.16,1.07l0,0c.09-.05.19-.08.24,0s0,.17-.12.21a.38.38,0,0,0-.25.37c0,.19-.06.38-.09.59a.3.3,0,0,1,.13-.06c.06,0,.14,0,.16.06s0,.11,0,.16a.14.14,0,0,1-.1.07c-.2.07-.25.23-.28.42A10.44,10.44,0,0,1,10.21,8a.88.88,0,0,1-.43.51c-.11-1.35-.21-2.68-.32-4l-.12.06L7.39,5.71h0a1.25,1.25,0,0,0-.68,1c0,.21-.07.41-.1.61a.54.54,0,0,1-.28.41c0-.13-.09-.25-.13-.37S6,6.94,6,6.71a1.75,1.75,0,0,0-.16-.42,8.76,8.76,0,0,0,2,14A8.61,8.61,0,0,0,18,18.35h-.76V16.53H7.41v1.81H6.31c0-.08,0-.16,0-.25,0-2.2,0-4.39,0-6.59,0-.26,0-.51.3-.59a.9.9,0,0,1,.56.05c.22.1.25.35.25.59v3.63h9.84V12.52a.53.53,0,0,1,.52-.56.51.51,0,0,1,.56.51c0,1.83,0,3.67,0,5.51a9.5,9.5,0,0,0,1.05-1.61,8.66,8.66,0,0,0-3.6-11.62l.11,0A9.13,9.13,0,0,1,19.89,17.07Zm-11-3.39a.83.83,0,1,1,.85-.81A.84.84,0,0,1,8.86,13.68Zm.85.66a.39.39,0,0,1-.41.41H8.11a.4.4,0,0,1-.42-.4.41.41,0,0,1,.43-.4H9.28A.41.41,0,0,1,9.71,14.34Z"/></g></g></svg>