<svg xmlns="http://www.w3.org/2000/svg" viewBox="0 0 70.93 70.93"><defs><style>.cls-1{fill:#d282b0;}</style></defs><g id="Layer_2" data-name="Layer 2"><g id="Layer_1-2" data-name="Layer 1"><path class="cls-1" d="M36.93,49s-7.57-.44-12.53,2c0,0,24,15.85,35.91-8.8C60.31,42.21,42.8,36.3,36.93,49Z"/><path class="cls-1" d="M60.84,0H10.09A10.09,10.09,0,0,0,0,10.09V60.84A10.09,10.09,0,0,0,10.09,70.93H60.84A10.09,10.09,0,0,0,70.93,60.84V10.09A10.09,10.09,0,0,0,60.84,0ZM60.2,52.45c-8.05,7.94-23.61,12.76-36.82,3.84a12.32,12.32,0,0,1-8.24-1.58c-4.52-2.48-5.19,3.47-5.37,6.2H4S2.37,39.58,23.16,47.37c0,0,5.64-3.95,10.38-2.71,0,0,1.36-3.73,4.64-5.19,0,0-1.25-4.75.11-6.9,0,0-3.28-3.72-3.84-6.55C34.45,26,23,23.77,19,12.93l7.68-2.77s2.54,7.28,9.14,6.94c0,0,7.79-13.71,21.69-3.46S68.06,44.69,60.2,52.45Z"/></g></g></svg>