<svg xmlns="http://www.w3.org/2000/svg" viewBox="0 0 23.52 23.52"><defs><style>.cls-1{fill:#d080ae;}</style></defs><g id="Layer_2" data-name="Layer 2"><g id="Layer_1-2" data-name="Layer 1"><path class="cls-1" d="M8.17,9.88c0,.53-.23.81-.65.82s-.65-.29-.66-.82V5.11H5.53V9.88c0,.53-.23.81-.65.82s-.66-.29-.66-.81V5.1H3v6.41h6.4V5.11H8.17Z"/><path class="cls-1" d="M20.38,0H3.14A3.13,3.13,0,0,0,0,3.14V20.38a3.14,3.14,0,0,0,3.14,3.14H20.38a3.15,3.15,0,0,0,3.14-3.14V3.14A3.14,3.14,0,0,0,20.38,0Zm-18,12.13V4.45H4.22c-.08-.57.2-1.12-.16-1.64,0,0,.09-.27.16-.28q.66,0,1.32,0c.06,0,.18.24.15.28-.37.51,0,1.07-.18,1.61H6.9c-.06-.64-.11-1.26-.17-1.88H8.26c0,.63-.08,1.24-.12,1.9H10v7.69ZM9.42,14.3,14.16,17l-.47.8L9,15.09C9.13,14.81,9.26,14.58,9.42,14.3Zm11.75,7H9.56V19.4h.66c1.19,0,2.37,0,3.55,0a5.13,5.13,0,0,0,2.67-9.47L14.09,14l-.5-.23-.7,1.17-1.22-.69c.22-.41.44-.8.67-1.2l-.46-.32C13.74,9.48,15.6,6.26,17.48,3l.4.18.54-1h.08l1.38.87-.53.95.33.25L17.43,8.2a7.16,7.16,0,0,1,1.14,11.18h2.6Z"/></g></g></svg>