<svg xmlns="http://www.w3.org/2000/svg" viewBox="0 0 23.52 23.52"><defs><style>.cls-1{fill:#d080ae;}</style></defs><g id="Layer_2" data-name="Layer 2"><g id="Layer_1-2" data-name="Layer 1"><path class="cls-1" d="M19.86,3.77a11.12,11.12,0,0,1-2.63-1,.57.57,0,0,0-.54,0,12.89,12.89,0,0,1-2.64,1.06.48.48,0,0,0-.38.51A10,10,0,0,0,14.06,7a5.44,5.44,0,0,0,2.59,3.29.53.53,0,0,0,.57,0,5.54,5.54,0,0,0,2.45-2.76,9,9,0,0,0,.58-2.85V4.29A.51.51,0,0,0,19.86,3.77Zm-.08.82s0,.06,0,.08a8.35,8.35,0,0,1-.51,2.62,5,5,0,0,1-2.21,2.54.16.16,0,0,1-.2,0,4.86,4.86,0,0,1-2.32-2.93,10,10,0,0,1-.4-2.54c0-.08,0-.12.1-.14a13.21,13.21,0,0,0,2.65-1.06.25.25,0,0,1,.19,0,12.39,12.39,0,0,0,2.39,1C19.79,4.24,19.79,4.24,19.78,4.59Z"/><path class="cls-1" d="M20.17,0H3.34A3.35,3.35,0,0,0,0,3.34V20.17a3.35,3.35,0,0,0,3.34,3.35H20.17a3.35,3.35,0,0,0,3.35-3.35V3.34A3.35,3.35,0,0,0,20.17,0ZM9,1.6a.21.21,0,0,1,0-.06h1.89a1.54,1.54,0,0,1,1.56,1.19.64.64,0,0,1,0,.49,1.26,1.26,0,0,0-.11.51c0,.3,0,.6,0,.92h-2A1.27,1.27,0,0,1,9,3.34ZM2.5,6.93c.42-1.17.83-2.35,1.25-3.52A2.79,2.79,0,0,1,6.42,1.54h.63c.09,0,.13,0,.13.12l.06.78A4.87,4.87,0,0,1,6.55,5a3.22,3.22,0,0,1-.93,1,.26.26,0,0,0-.09.12c-.15.49-.3,1-.44,1.46A1.23,1.23,0,0,0,5.71,9c2,1,3.91,2,5.88,3.05a2.56,2.56,0,0,0,.74.15,2.15,2.15,0,0,1,.95.29,1.39,1.39,0,0,1,.53.69.86.86,0,0,1-.32,1,1.46,1.46,0,0,1-1.59.1l-1.08-.56L5.58,11l-1.84-1A2.5,2.5,0,0,1,2.5,6.93ZM16.71,19.61a10.48,10.48,0,0,1-1.3,2,1,1,0,0,1-.83.38H6a.93.93,0,0,1-1-1c0-.76,0-1.52,0-2.28a8.74,8.74,0,0,1,.78-3.14,10,10,0,0,0,.91-3.3s0-.08,0-.14l1,.53,3.85,2a2,2,0,0,0,1.77.1A1.4,1.4,0,0,0,14,12.56a2,2,0,0,0-1.41-.77,2.34,2.34,0,0,0-.26,0A2.87,2.87,0,0,1,11,11.26C9.6,10.53,8.18,9.78,6.75,9a.35.35,0,0,1-.22-.28,12.58,12.58,0,0,0-.61-2.07.37.37,0,0,1,.14-.46A4.29,4.29,0,0,0,7.59,3.56a6.52,6.52,0,0,0,.06-1.87.66.66,0,0,1,0-.14h.85V3.34a1.75,1.75,0,0,0,1.79,1.78h2.06a8.81,8.81,0,0,0,1.51,4.44l-1,.31.18.1a10.44,10.44,0,0,1,2.6,2,6.63,6.63,0,0,1,1.76,3.83A6.92,6.92,0,0,1,16.71,19.61ZM20.54,7.72a6.5,6.5,0,0,1-2.87,3.35l-.38.21a.65.65,0,0,1-.66,0A6.52,6.52,0,0,1,13.2,7.17a11.45,11.45,0,0,1-.45-2.84c0-.21,0-.43,0-.64A.67.67,0,0,1,13.28,3a11.29,11.29,0,0,0,3.28-1.27.75.75,0,0,1,.79,0A11.81,11.81,0,0,0,20.63,3a.65.65,0,0,1,.54.64A11,11,0,0,1,20.54,7.72Z"/><path class="cls-1" d="M17.8,5.33a.63.63,0,0,0-.12.11c-.38.37-.75.75-1.14,1.15l-.37-.38a.23.23,0,1,0-.32.33l.48.48c.16.16.26.16.42,0,.44-.43.87-.87,1.3-1.3a.27.27,0,0,0,.07-.08.23.23,0,0,0,0-.29A.22.22,0,0,0,17.8,5.33Z"/></g></g></svg>