<svg xmlns="http://www.w3.org/2000/svg" viewBox="0 0 23.52 23.52"><defs><style>.cls-1{fill:#d080ae;}</style></defs><g id="Layer_2" data-name="Layer 2"><g id="Layer_1-2" data-name="Layer 1"><path class="cls-1" d="M14.32,3.27A3.07,3.07,0,0,1,14.58,3a1,1,0,0,1,.28-.1c-.34-.31-.54-.5-.76-.68,0,0-.12.09-.18.14a3,3,0,0,0-.25.26c-.06.07-.14.21-.12.24a4.51,4.51,0,0,0,.54.53S14.25,3.33,14.32,3.27Z"/><path class="cls-1" d="M4.92,7A2.1,2.1,0,0,0,5,2.8a2.1,2.1,0,1,0,0,4.2ZM4.67,3.62c0-.11.13-.22.2-.33.06.11.17.21.17.32,0,.35,0,.71,0,1.14.4-.18.7-.34,1-.46.09,0,.22,0,.33.08-.05.09-.09.22-.17.27L5,5.22c-.24.11-.36,0-.36-.26C4.66,4.52,4.65,4.07,4.67,3.62Z"/><path class="cls-1" d="M20.38,0H3.14A3.13,3.13,0,0,0,0,3.14V20.38a3.14,3.14,0,0,0,3.14,3.14H20.38a3.15,3.15,0,0,0,3.14-3.14V3.14A3.14,3.14,0,0,0,20.38,0Zm-8,2.72a2.81,2.81,0,0,1,3.7.18l-.65,1.24a1.74,1.74,0,0,0-2.6,0c-.2-.35-.4-.69-.57-1A.4.4,0,0,1,12.38,2.72Zm3,2.55A1.25,1.25,0,1,1,14.09,4,1.25,1.25,0,0,1,15.36,5.27Zm-3.87,2.6a1.47,1.47,0,0,1,1.48-1c.76,0,1.52,0,2.28,0a1.44,1.44,0,0,1,1.45.87c.44,1.22.8,2.46,1.19,3.7-1,.14-1,.14-1.29-.75-.14-.5-.32-1-.44-1.5s-.29-.48-.67-.35l.73,2.59H12c.25-.87.5-1.71.74-2.58-.34-.11-.56-.12-.66.31-.14.61-.38,1.19-.51,1.8a.56.56,0,0,1-.74.53,2.41,2.41,0,0,0-.38,0c0-.06-.06-.09-.06-.11C10.77,10.23,11.09,9,11.49,7.87ZM8.31,12.48h9.32c1,0,1.34.35,1.34,1.36v2.45H8.31ZM4.93,2.11A2.84,2.84,0,0,1,7.72,4.93,2.8,2.8,0,0,1,4.93,7.68a2.77,2.77,0,0,1-2.78-2.8A2.81,2.81,0,0,1,4.93,2.11ZM6.36,14.6A1.32,1.32,0,1,1,7.7,13.32,1.31,1.31,0,0,1,6.36,14.6ZM7.7,15.65a.62.62,0,0,1-.65.65q-.94,0-1.89,0a.63.63,0,0,1-.66-.64A.65.65,0,0,1,5.18,15H7A.64.64,0,0,1,7.7,15.65Zm12,6.35V19.12H4.06V22H2.31c0-.14,0-.27,0-.4q0-5.22,0-10.46c0-.4.07-.79.48-.92a1.37,1.37,0,0,1,.87.07c.36.17.41.56.41.93V17h15.6V15.5c0-.91,0-1.82,0-2.74a.85.85,0,0,1,1.7-.07c0,3.09,0,6.19,0,9.31Z"/></g></g></svg>