<svg xmlns="http://www.w3.org/2000/svg" viewBox="0 0 23.52 23.52"><defs><style>.cls-1{fill:#d080ae;}</style></defs><g id="Layer_2" data-name="Layer 2"><g id="Layer_1-2" data-name="Layer 1"><path class="cls-1" d="M20.38,0H3.14A3.13,3.13,0,0,0,0,3.14V20.38a3.14,3.14,0,0,0,3.14,3.14H20.38a3.15,3.15,0,0,0,3.14-3.14V3.14A3.14,3.14,0,0,0,20.38,0ZM16.74,1.83A2.16,2.16,0,1,1,14.56,4,2.16,2.16,0,0,1,16.74,1.83ZM5.46,21.69a1.3,1.3,0,0,1,.07-2.59,1.3,1.3,0,0,1-.07,2.59Zm8.89-5c-.19.41-.35.82-.55,1.21a3.39,3.39,0,0,1-.34.5l-2.2,2.93a.77.77,0,0,1-.85.32A.78.78,0,0,1,9.82,21a.9.9,0,0,1,.16-.61c.66-1,1.31-2,2-3a4.13,4.13,0,0,0,.56-1.25c.16-.6.34-1.2.51-1.8l0-.05.73,1.27c.18.31.35.62.54.93A.24.24,0,0,1,14.35,16.7Zm4.37,4.94a.85.85,0,0,1-1-.38l-1.71-3c-.74-1.3-1.48-2.61-2.23-3.9a3.39,3.39,0,0,1-.4-2.45c.16-.77.29-1.55.43-2.32a.33.33,0,0,0,0-.14l-.71,1L11.25,13.1a.82.82,0,0,1-.54.38.28.28,0,0,0-.12.1l-2.74,4L7,18.81a2.17,2.17,0,0,0-3.47.77,1.47,1.47,0,0,1-.58-1,1.55,1.55,0,0,1,.27-1.06L5.62,14a1.22,1.22,0,0,1,1.73-.31c.42.28.84.58,1.25.87l.16.1a2.43,2.43,0,0,0,.14-.2l.93-1.33a.24.24,0,0,0,0-.23.72.72,0,0,1,.09-.65C10.77,11,11.59,9.8,12.4,8.55l.84-1.29a1.42,1.42,0,0,1,1.25-.68,4.14,4.14,0,0,1,1.11.06,2.1,2.1,0,0,1,1.51,2.41c-.27,1.46-.54,2.92-.82,4.37a.57.57,0,0,0,0,.32l2.85,6.59a1.46,1.46,0,0,1,.12.39A.84.84,0,0,1,18.72,21.64Zm1.56-7.84a.71.71,0,0,1-.85-.06l-2-1.59-.34-.28a.18.18,0,0,1-.08-.21c.13-.66.25-1.32.38-2a1.16,1.16,0,0,1,0-.18h0c.11.32.22.64.35.95a.48.48,0,0,0,.15.22l2.33,2A.7.7,0,0,1,20.28,13.8Z"/></g></g></svg>