<?xml version="1.0" encoding="UTF-8"?>
<svg version="1.1" xmlns="http://www.w3.org/2000/svg" width="125" height="119">
<path d="M0 0 C3.27253476 1.63626738 3.62154509 5.03862236 4.8046875 8.359375 C7.96522836 15.34148487 13.78698317 19.05490872 19.8125 23.4375 C38.30130631 36.98146759 38.30130631 36.98146759 41 45 C41.0825 46.2375 41.165 47.475 41.25 48.75 C41.60319265 51.99743505 41.60319265 51.99743505 43.55078125 53.0078125 C44.94374109 53.60827286 46.33980951 54.20155373 47.73828125 54.7890625 C54.44927297 58.38216687 59.45907848 65.93709949 62 73 C64.38319882 82.74072538 63.85483965 93.38312571 58.74609375 102.15234375 C53.05013809 110.23842795 45.79359173 116.72022451 36 119 C26.19187017 120.09355011 17.86267963 119.1389516 9.71484375 113.38671875 C5.64410441 110.05477058 2.94703191 106.98926927 1 102 C0.5875 102.66386719 0.175 103.32773438 -0.25 104.01171875 C-4.98898799 111.25771601 -9.21252917 114.98926225 -17.125 118.3125 C-26.7794015 120.02537769 -36.43210411 120.23359158 -45 115 C-53.50898106 108.75258366 -59.10243182 102.0138831 -61.375 91.625 C-62.96975796 80.76545767 -61.25281621 71.16274538 -54.75 62.3125 C-50.90052983 57.59037452 -46.87734297 53.95911432 -41 52 C-40.33895127 50.0909793 -40.33895127 50.0909793 -40.0625 47.8125 C-37.96437073 37.32185364 -29.24880652 31.07585064 -21 25.03515625 C-19.9486084 24.26486084 -19.9486084 24.26486084 -18.87597656 23.47900391 C-17.49594553 22.47837047 -16.10763912 21.48901587 -14.70996094 20.51318359 C-7.17296725 15.08304603 -2.82954141 8.80301773 0 0 Z M0 11 C-0.73583996 12.17065448 -1.43751234 13.36281126 -2.125 14.5625 C-5.8928349 20.67715779 -10.68191652 25.0605552 -16.375 29.375 C-27.46018287 37.74563365 -27.46018287 37.74563365 -33 50 C-33.19826766 53.02122147 -33.18880143 55.97917714 -33 59 C-33.66386719 59.24234375 -34.32773437 59.4846875 -35.01171875 59.734375 C-42.76916542 62.67880731 -47.83840281 65.53782572 -52 73 C-54.6143705 80.46963001 -54.64851556 87.75920673 -51.5 95.125 C-48.00357353 101.4262521 -41.91591253 106.88795486 -35 109 C-27.36432662 109.84080398 -20.27713966 109.79668219 -14 105 C-10.93002726 102.32129829 -9.17732838 99.98515767 -8.4375 95.875 C-9.11584537 92.40790146 -10.29698828 91.19619702 -13 89 C-15.97 89.99 -15.97 89.99 -19 91 C-19.93380961 95.53140653 -19.93380961 95.53140653 -19 100 C-22.95679828 100.46009282 -24.54625856 100.33274372 -27.8125 97.9375 C-30.4332901 94.41815329 -30.92340415 92.36596331 -31 88 C-30.0625 84.5625 -30.0625 84.5625 -29 82 C-30.093125 81.38125 -31.18625 80.7625 -32.3125 80.125 C-34.6162256 78.82100438 -36.79162049 77.47225301 -39 76 C-38.71979545 73.9918674 -38.37593066 71.9924325 -38 70 C-37.835 69.113125 -37.67 68.22625 -37.5 67.3125 C-35.07654769 63.57634436 -31.16754098 63.05474803 -27 62 C-27.05220703 61.03900391 -27.05220703 61.03900391 -27.10546875 60.05859375 C-27.32565207 53.02321233 -26.72140863 48.24813288 -22.0625 42.6875 C-17.60029858 39.03660793 -14.05390915 38.63910956 -8.40625 38.73046875 C-5.359036 39.07179629 -3.45792531 40.21241796 -1 42 C2.02067791 42.29408585 2.02067791 42.29408585 4.0625 40.5 C8.84243514 38.05918206 13.94515131 38.02800269 19.0625 39.65625 C22.78550181 41.5177509 25.45003997 44.07970538 27.35546875 47.78515625 C28.70008899 52.40576034 28.28126616 57.24191413 28 62 C29.0725 62.226875 30.145 62.45375 31.25 62.6875 C35.48550109 64.16992538 36.68649219 65.22983913 39 69 C40.25 72.3125 40.25 72.3125 41 75 C39.73299277 75.9841125 38.4612381 76.96211497 37.1875 77.9375 C36.47980469 78.48277344 35.77210937 79.02804688 35.04296875 79.58984375 C33 81 33 81 30 82 C30.33 82.680625 30.66 83.36125 31 84.0625 C32.21956366 87.64496824 32.40345105 90.23445682 32 94 C30.4375 96.875 30.4375 96.875 28 99 C24.25 99.8125 24.25 99.8125 21 100 C21 98 21 98 21.3125 95.0625 C21.209375 94.051875 21.10625 93.04125 21 92 C18.60943058 90.0645852 18.60943058 90.0645852 16 89 C13.08787412 90.41872799 11.34494171 91.26953519 9.9375 94.25 C10.0298986 98.31553849 11.33422485 101.03727775 14 104 C19.92359497 108.45106289 25.84665833 109.75996192 33.171875 109.421875 C39.92656066 108.41426996 45.21707501 104.78292499 50 100 C54.33871756 93.05527957 56.01766128 86.16468472 55 78 C52.80139219 71.27600662 49.20419712 65.58754147 43 62 C39.71662727 60.73753359 36.42684293 59.78603641 33 59 C33.33 58.01 33.66 57.02 34 56 C34.49135947 48.50676811 32.92119814 44.2057151 28.1875 38.3125 C24.27504453 33.94860736 19.70731465 30.55378322 15.06982422 27.01049805 C9.09075948 22.40012517 4.8012188 17.60211686 1 11 C0.67 11 0.34 11 0 11 Z M-18.4375 47.125 C-20.66732369 51.22787559 -20.95459525 54.43584147 -20 59 C-16.00062681 68.06107989 -7.45429056 75.20772835 1 80 C14.87954072 69.95954606 14.87954072 69.95954606 22.015625 55.140625 C21.98785565 51.33622343 21.0178835 49.2546508 19 46 C15.57579341 43.22361628 12.39249278 42.17225462 8 42 C5.19944274 42.79509492 2.68514001 43.84261207 0 45 C-0.66 44.34 -1.32 43.68 -2 43 C-8.73521696 41.28317999 -13.21411856 42.57128284 -18.4375 47.125 Z " fill="#C080A2" transform="translate(62,0)"/>
</svg>
