<svg xmlns="http://www.w3.org/2000/svg" viewBox="0 0 20.7 19.81"><defs><style>.cls-1{fill:#c380a5;}</style></defs><g id="Layer_2" data-name="Layer 2"><g id="Layer_1-2" data-name="Layer 1"><path class="cls-1" d="M20.25,11.72c-.52-1.17-1.89-2.79-3.26-3a3.12,3.12,0,0,0-.78-2.56c-.77-.88-2.81-2.15-4-3.12A5,5,0,0,1,10.35,0a5.09,5.09,0,0,1-1.9,3.07c-1.16,1-3.19,2.24-4,3.12a3.11,3.11,0,0,0-.77,2.56c-1.38.18-2.75,1.81-3.27,3A6.09,6.09,0,0,0,.8,17a5.9,5.9,0,0,0,4,2.75,5.23,5.23,0,0,0,4.3-1.26,5.73,5.73,0,0,0,1.24-2,5.5,5.5,0,0,0,1.24,2,5.22,5.22,0,0,0,4.29,1.26,5.9,5.9,0,0,0,4-2.75,6.09,6.09,0,0,0,.36-5.28Zm-9.91,1.82c-.48-.55-1.51-1.19-2.17-1.82-1.94-1.86-1.72-3.67-.5-4.44.85-.53,2.31-.41,2.67.2.36-.61,1.83-.73,2.66-.2,1.23.77,1.46,2.58-.49,4.44-.66.63-1.68,1.26-2.17,1.82Zm8.49,2.88a4.63,4.63,0,0,1-3.54,1.94c-1.21,0-2.86-.58-3.34-1.89a1.13,1.13,0,0,1,.83-1.65,1,1,0,0,1,.8,1.77c1.35.79,3.23-1.68,1.24-2.86a4.17,4.17,0,0,0,2.34-1.33c-.45-1.33-1.44-2.22-2.34-2a3,3,0,0,0-.58-3.19c-1.33-1.36-3.37-1-3.89.17-.52-1.13-2.56-1.52-3.9-.17a3,3,0,0,0-.58,3.19c-.9-.22-1.88.66-2.33,2a4.23,4.23,0,0,0,2.33,1.33c-2,1.18-.11,3.65,1.24,2.86a1,1,0,0,1,.8-1.77,1.14,1.14,0,0,1,.84,1.65c-.49,1.31-2.15,1.89-3.35,1.89a4.61,4.61,0,0,1-3.54-1.94,4.75,4.75,0,0,1-.36-4.26,4.07,4.07,0,0,1,1.9-1.94,7.93,7.93,0,0,1,1.47-.49,3,3,0,0,1,.61-3.14C6.72,5.13,8.33,4.2,9.11,3.36a4,4,0,0,0,1.24-2.27,4,4,0,0,0,1.24,2.27,47.51,47.51,0,0,1,3.62,3.23,3,3,0,0,1,.63,3.14,7.74,7.74,0,0,1,1.45.49,4,4,0,0,1,1.91,1.94,4.78,4.78,0,0,1-.36,4.26Z"/></g></g></svg>