<svg xmlns="http://www.w3.org/2000/svg" viewBox="0 0 23.52 23.52"><defs><style>.cls-1{fill:#d080ae;}</style></defs><g id="Layer_2" data-name="Layer 2"><g id="Layer_1-2" data-name="Layer 1"><path class="cls-1" d="M6.64,5.52V18.35H16.9V5.52H15.11c0,.24,0,.45,0,.65H8.49l-.05-.65Zm1.49,7.37h7.29v.66H8.13Zm4-1.19v-.62h3.24v.62Zm3.25,5.57H8.14v-.68h7.29Zm0-1.88H8.13v-.64h7.31Zm-3.25-8h3.25v.68H12.19Zm0,1.83h3.25v.69H12.17Zm-3,0v-1h.75V9.19H11v.72H10L9.9,11H9.23c0-.35,0-.68-.05-1.06h-1V9.18Z"/><path class="cls-1" d="M14.34,3.3H9.2V5.47h5.14Z"/><path class="cls-1" d="M20.38,0H3.14A3.13,3.13,0,0,0,0,3.14V20.38a3.14,3.14,0,0,0,3.14,3.14H20.38a3.15,3.15,0,0,0,3.14-3.14V3.14A3.14,3.14,0,0,0,20.38,0ZM18.54,20.93H5A.85.85,0,0,1,4.08,20c0-.28,0-.56,0-.84l0-14.9a.9.9,0,0,1,1-1l3.24,0,.08,0,0-.64h6.58l0,.69h3.41a.87.87,0,0,1,.94.93q0,7.91,0,15.83A.82.82,0,0,1,18.54,20.93Z"/><path class="cls-1" d="M15.12,4.77h2.53V19.08H5.92V4.75H8.45V4C7.37,4,6.31,4,5.25,4c-.35,0-.44.14-.44.47,0,5.06,0,10.11,0,15.17,0,.48.15.59.6.58H17.81c1.07,0,1,.22,1-.93,0-4.8,0-9.61,0-14.41V4H15.12Z"/></g></g></svg>