<svg xmlns="http://www.w3.org/2000/svg" viewBox="0 0 23.52 23.52"><defs><style>.cls-1{fill:#d080ae;}</style></defs><g id="Layer_2" data-name="Layer 2"><g id="Layer_1-2" data-name="Layer 1"><path class="cls-1" d="M6.49,9.88a.69.69,0,0,0,.65-.75.73.73,0,0,0-.64-.77.75.75,0,0,0-.66.76A.72.72,0,0,0,6.49,9.88Z"/><path class="cls-1" d="M17.94,16.75v2.39H5.56V16.75H5V20c0,.87.14,1,1,1H17.55a1.09,1.09,0,0,0,.52-.05c.19-.12.45-.32.46-.5,0-1.24,0-2.49,0-3.75ZM9.72,20.4l-.57,0,0-.6.6,0Zm.66,0v-.55H11l0,.55Zm1.26.05,0-.6h.58l0,.56Zm1.78,0-.54,0v-.61h.54Zm.69,0,0-.6h.61l0,.57Z"/><path class="cls-1" d="M13.45,6.49h3.29l.55,0V3.74H6.22V6.49h3.9a1.21,1.21,0,0,1,1.32,1.22c0,2.6,0,5.19,0,7.79a1.07,1.07,0,0,1-1,1.15c-.66,0-.83.37-.94.88a3,3,0,0,1-.12.3c-.95-.78-1.9-1.45-3.21-1v1.72H17.3V16.81c-1.3-.42-2.26.23-3.21,1-.11-.31-.21-.53-.27-.77s-.19-.35-.47-.36a1.22,1.22,0,0,1-1.28-1.37V7.87A1.25,1.25,0,0,1,13.45,6.49Zm-2-.35V5.61h-.53V4.89h.53V4.36h.71v.53h.54v.72h-.54v.53Z"/><path class="cls-1" d="M17,9.89a.74.74,0,0,0,.68-.74A.78.78,0,0,0,17,8.36a.7.7,0,0,0-.66.75A.72.72,0,0,0,17,9.89Z"/><path class="cls-1" d="M9,16.76h.09c.12-.38.23-.74.82-.68s.87-.17.87-.86V8c0-.63-.2-.84-.81-.84H3.28c-.59,0-.81.22-.81.8q0,3.67,0,7.36c0,.62.21.82.83.82,1,0,2.05,0,3.08,0A3.3,3.3,0,0,1,9,16.76ZM10.17,13v.56H6.83V13Zm-6.49.55H3.11v-.86h.57ZM4.06,12c-.19-1.1.45-1.7,1.32-2.16A1.5,1.5,0,0,1,5.83,8,1.08,1.08,0,0,1,7.17,8a1.54,1.54,0,0,1,.44,1.93A2,2,0,0,1,9,12h-.6a1.26,1.26,0,0,0-.79-1.45,2.19,2.19,0,0,0-.73-.11c-.15,0-.31,0-.47,0-1.16-.11-1.64.3-1.74,1.53Zm.62,1H6.15v.58H4.68Zm0,1.77v-.56H9v.56Z"/><path class="cls-1" d="M20.38,0H3.14A3.13,3.13,0,0,0,0,3.14V20.38a3.14,3.14,0,0,0,3.14,3.14H20.38a3.15,3.15,0,0,0,3.14-3.14V3.14A3.14,3.14,0,0,0,20.38,0Zm1.28,15.37a1.23,1.23,0,0,1-1.35,1.34H19.19c0,1.15,0,2.25,0,3.36a2.57,2.57,0,0,1-.05.68,1.25,1.25,0,0,1-1.39.9H5.82c-1,0-1.49-.45-1.49-1.48V16.72H3.26a1.25,1.25,0,0,1-1.4-1.36q0-3.77,0-7.52A1.26,1.26,0,0,1,3.22,6.49H4.33V3.28A1.25,1.25,0,0,1,5.72,1.86q6,0,12.08,0a1.25,1.25,0,0,1,1.39,1.42V6.49h1.12a1.24,1.24,0,0,1,1.35,1.35Q21.68,11.61,21.66,15.37Z"/><path class="cls-1" d="M20.27,7.11H13.45c-.53,0-.75.23-.75.74,0,2.51,0,5,0,7.51,0,.48.24.75.71.72s1,0,1,.77c.75-.89,1.7-.76,2.61-.76,1.07,0,2.15,0,3.23,0,.58,0,.8-.21.8-.8q0-3.7,0-7.4C21.05,7.34,20.82,7.12,20.27,7.11Zm-6.39,6.48h-.53v-.86h.53Zm.7-1.54a2,2,0,0,1,1.31-2.17,1.56,1.56,0,0,1,.54-2,1.08,1.08,0,0,1,1.33.1,1.5,1.5,0,0,1,.36,1.88A1.92,1.92,0,0,1,19.46,12l-.61,0A1.32,1.32,0,0,0,18,10.51a1.38,1.38,0,0,0-.54-.06c-.17,0-.35.06-.52.05-1.21-.09-1.64.27-1.79,1.55ZM15,13h1.48v.58H15Zm4.29,1.77H15v-.56h4.28Zm1.21-1.22H17.15V13h3.34Z"/><path class="cls-1" d="M5.58,6.45V3.11H18V6.45h.61V3.52c0-.91-.14-1-1-1H5.94c-.14,0-.33-.05-.42,0S5,2.88,5,3.09C4.93,4.2,5,5.31,5,6.49Z"/></g></g></svg>