<svg xmlns="http://www.w3.org/2000/svg" viewBox="0 0 23.52 23.52"><defs><style>.cls-1{fill:#d080ae;}</style></defs><g id="Layer_2" data-name="Layer 2"><g id="Layer_1-2" data-name="Layer 1"><path class="cls-1" d="M9,2.38A13.45,13.45,0,0,0,4.53,5.13c.88,1,3.51,2.65,4.36,2.71A4,4,0,0,1,9,2.38Z"/><path class="cls-1" d="M14.58,7.91A13.43,13.43,0,0,0,19,5.15a13.73,13.73,0,0,0-4.45-2.77A4.11,4.11,0,0,1,14.58,7.91Z"/><path class="cls-1" d="M11.77,1.87A3.29,3.29,0,1,0,15,5.17,3.29,3.29,0,0,0,11.77,1.87Zm1.35,4.62a1.92,1.92,0,0,1-2.37.27A1.8,1.8,0,0,1,10,4.66c.65.29,1,.28,1.29-.08a.92.92,0,0,0,0-1.22,1.81,1.81,0,0,1,2.14.8A1.92,1.92,0,0,1,13.12,6.49Z"/><path class="cls-1" d="M20.38,0H3.14A3.13,3.13,0,0,0,0,3.14V20.38a3.14,3.14,0,0,0,3.14,3.14H20.38a3.15,3.15,0,0,0,3.14-3.14V3.14A3.14,3.14,0,0,0,20.38,0ZM10.83,21.46c-2,0-4.28-2.3-4.48-4.46l.22,0H6.9a5.08,5.08,0,0,0,3.93,3.94Zm1.86,0v-.56A5.06,5.06,0,0,0,16.6,17h.55A5.36,5.36,0,0,1,12.69,21.48ZM18,16.36c-.76,0-1.53,0-2.29,0-.31,0-.45.06-.54.41a3.54,3.54,0,0,1-3.14,2.85c0,.9,0,1.76,0,2.62a.64.64,0,0,1-.17.45c-.2.17-.43,0-.44-.4V19.64a3.68,3.68,0,0,1-3.24-3.26H6.29a3.82,3.82,0,0,1-.76,0c-.17,0-.3-.19-.45-.3.16-.1.31-.28.47-.28.76,0,1.52,0,2.29,0l.37,0a3.65,3.65,0,0,1,3.24-3.22V10.3a2.24,2.24,0,0,1,0-.52,1.61,1.61,0,0,1,.28-.38c.11.13.31.25.31.38,0,.72,0,1.43,0,2.15v.59a3.65,3.65,0,0,1,3.24,3.24h2.33a1.17,1.17,0,0,1,.42,0,1.39,1.39,0,0,1,.37.28C18.3,16.16,18.18,16.36,18,16.36ZM6.38,15.15a5.3,5.3,0,0,1,4.44-4.49v.57a5.06,5.06,0,0,0-3.91,3.92Zm6.3-3.92v-.54c1.94,0,4.32,2.34,4.48,4.47h-.55a5.36,5.36,0,0,0-1.37-2.54A5.2,5.2,0,0,0,12.68,11.23Zm6.89-5.74C17.2,7.66,14.55,9.21,11.2,9a10.22,10.22,0,0,1-5.3-2c-.67-.45-1.27-1-1.9-1.51-.24-.2-.35-.43-.09-.69,1.75-1.69,4.72-3.64,7.84-3.61a10.93,10.93,0,0,1,6.53,2.48c.45.33.85.72,1.28,1.08A.4.4,0,0,1,19.57,5.49Z"/><path class="cls-1" d="M13.77,16.1c.1-.11.19-.27.32-.32a2,2,0,0,1,.55,0,2.79,2.79,0,0,0-2.58-2.52,1.45,1.45,0,0,1,0,.51c-.05.14-.2.23-.31.34-.1-.11-.23-.2-.27-.33a2,2,0,0,1-.05-.55,2.78,2.78,0,0,0-2.51,2.58,1.73,1.73,0,0,1,.51,0c.13.05.23.21.34.31-.11.1-.21.24-.33.27a2.06,2.06,0,0,1-.56,0,2.78,2.78,0,0,0,2.56,2.52,1.73,1.73,0,0,1,0-.51,1.3,1.3,0,0,1,.26-.33c.11.11.27.2.32.33a2,2,0,0,1,0,.55,2.87,2.87,0,0,0,2.56-2.56,2.37,2.37,0,0,1-.56,0A1.11,1.11,0,0,1,13.77,16.1Zm-2,1.08a1.11,1.11,0,0,1-1.14-1.1A1.1,1.1,0,0,1,11.78,15a1.11,1.11,0,0,1,0,2.21Z"/></g></g></svg>