<svg xmlns="http://www.w3.org/2000/svg" viewBox="0 0 70.93 70.93"><defs><style>.cls-1{isolation:isolate;}.cls-2{fill:#d282b0;mix-blend-mode:multiply;}</style></defs><g class="cls-1"><g id="Layer_2" data-name="Layer 2"><g id="Layer_1-2" data-name="Layer 1"><path class="cls-2" d="M60.84,0H10.09A10.09,10.09,0,0,0,0,10.09V60.84A10.09,10.09,0,0,0,10.09,70.93H60.84A10.09,10.09,0,0,0,70.93,60.84V10.09A10.09,10.09,0,0,0,60.84,0ZM18.78,31.5c0-5.92,5.71-9.31,11.74-11.5-3.37,2.45-9.22,8.39-7.08,14.83a6.65,6.65,0,0,1-1.53,1,13,13,0,0,1-1.51.72A8.68,8.68,0,0,1,18.78,31.5Zm27,9c0-.09,0-.21,0-.32,0,.32-.63,5-1.23,7.4-.64,2.65-2,5.34-2.15,8a16.17,16.17,0,0,0,2.75,10.19h-4c-1.75-3.18-3.27-9.08-3-12.66.18-2.54,1.55-2.83,3.09-4.76a12,12,0,0,0,2.37-5.2c-3,1.71-6.36,2.84-9.9,2.12A18.21,18.21,0,0,1,23.58,39a9.2,9.2,0,0,1-1.07.68c.83,2.2,1.54,4.44,2.39,6.63a41.79,41.79,0,0,0,3.82,7.29c2.38,3.76,4.74,7.78,5.78,12.2H33.08C31.9,61.15,29.24,57,26.68,53s-3.79-8.43-5.43-12.79q-.21-.58-.45-1.17a.83.83,0,0,1,0-.15A5.63,5.63,0,0,0,22,38.42c.21-.12,1.25-.75,1.94-1.25,2.28,3.25,6.69,6.2,10.25,6.77,3.72.61,7-.8,10.08-2.7.54-.33,1.07-.68,1.6-1C45.83,40.3,45.79,40.66,45.79,40.53ZM52.05,5.25a64.12,64.12,0,0,0-6.53,9.51c-2.12,3.94-4.8,8.49-3.4,12.39,1,2.78,4.12,6,3.18,9.46-.85,3.11-3.51,4.87-7.13,5.45a12.81,12.81,0,0,1-9.24-2,10.11,10.11,0,0,1-4.64-7.81c-.07-3.57,2.06-6.62,4.39-9.14,2.8-3,6-5.59,8.43-8.94a81.86,81.86,0,0,0,5.67-9.07h1.63a74.63,74.63,0,0,1-6.07,9.79c-2.35,3.18-5.28,5.66-8,8.51S24.67,30,26.08,34.18a10.05,10.05,0,0,0,8,6.44c3.25.54,9.21-.32,9.88-4.38.54-3.31-2.65-6.15-3.43-9.24-1-3.8,1.26-8,3-11.36a62.82,62.82,0,0,1,6.9-10.53h1.79A.71.71,0,0,1,52.05,5.25ZM40.78,31.4a4.14,4.14,0,0,1,1.66,3.23c0,2.46-2.39,4.46-5.35,4.46a6.64,6.64,0,0,1-.77-.05c2.78-1,4.73-3.28,4.73-6A5.19,5.19,0,0,0,40.78,31.4Z"/></g></g></g></svg>