<svg width="26" height="26" viewBox="0 0 26 26" fill="none" xmlns="http://www.w3.org/2000/svg">
<path d="M13.0001 1.625C11.823 1.62499 10.6575 1.8575 9.57045 2.30919C8.48345 2.76088 7.49638 3.42285 6.66592 4.25708C5.83546 5.09131 5.17798 6.08137 4.73122 7.17041C4.28447 8.25946 4.05724 9.42602 4.06259 10.6031C4.06259 14.1619 8.47447 20.1906 11.107 23.465C11.3355 23.7468 11.624 23.974 11.9516 24.13C12.2791 24.2861 12.6373 24.3671 13.0001 24.3671C13.3629 24.3671 13.7211 24.2861 14.0486 24.13C14.3761 23.974 14.6647 23.7468 14.8932 23.465C17.5257 20.215 21.9376 14.1619 21.9376 10.6031C21.9429 9.42602 21.7157 8.25946 21.269 7.17041C20.8222 6.08137 20.1647 5.09131 19.3343 4.25708C18.5038 3.42285 17.5167 2.76088 16.4297 2.30919C15.3427 1.8575 14.1772 1.62499 13.0001 1.625ZM13.6257 22.4494C13.5495 22.5414 13.4539 22.6154 13.3457 22.6663C13.2376 22.7171 13.1196 22.7435 13.0001 22.7435C12.8806 22.7435 12.7626 22.7171 12.6544 22.6663C12.5463 22.6154 12.4507 22.5414 12.3745 22.4494C8.19009 17.2331 5.68759 12.805 5.68759 10.6031C5.68759 8.66373 6.45801 6.80377 7.82937 5.43241C9.20073 4.06105 11.0607 3.29063 13.0001 3.29063C14.9395 3.29063 16.7995 4.06105 18.1708 5.43241C19.5422 6.80377 20.3126 8.66373 20.3126 10.6031C20.3126 12.805 17.8101 17.2331 13.6257 22.4494ZM13.0001 5.6875C12.0359 5.6875 11.0934 5.97341 10.2917 6.50909C9.49 7.04476 8.86516 7.80613 8.49618 8.69692C8.1272 9.58771 8.03066 10.5679 8.21876 11.5136C8.40687 12.4592 8.87117 13.3279 9.55295 14.0096C10.2347 14.6914 11.1034 15.1557 12.049 15.3438C12.9947 15.5319 13.9749 15.4354 14.8657 15.0664C15.7565 14.6974 16.5178 14.0726 17.0535 13.2709C17.5892 12.4692 17.8751 11.5267 17.8751 10.5625C17.8751 9.26957 17.3615 8.02959 16.4472 7.11535C15.533 6.20111 14.293 5.6875 13.0001 5.6875ZM13.0001 13.8125C12.3573 13.8125 11.7289 13.6219 11.1945 13.2648C10.66 12.9077 10.2435 12.4001 9.99748 11.8062C9.7515 11.2124 9.68714 10.5589 9.81254 9.92846C9.93794 9.29802 10.2475 8.71892 10.702 8.2644C11.1565 7.80988 11.7356 7.50035 12.366 7.37495C12.9965 7.24955 13.65 7.31391 14.2438 7.55989C14.8377 7.80588 15.3453 8.22244 15.7024 8.7569C16.0595 9.29136 16.2501 9.91971 16.2501 10.5625C16.2501 11.4245 15.9077 12.2511 15.2982 12.8606C14.6887 13.4701 13.862 13.8125 13.0001 13.8125Z" fill="white"/>
</svg>
