<svg xmlns="http://www.w3.org/2000/svg" viewBox="0 0 267.82 140.08"><defs><style>.cls-1{fill:#c580a7;}.cls-2{fill:#1d1d1b;}.cls-3{fill:#a9a9a7;}</style></defs><g id="Layer_2" data-name="Layer 2"><g id="Layer_1-2" data-name="Layer 1"><path class="cls-1" d="M171.09,43.71c-2-4.36-7.05-10.4-12.17-11.07,1.12-2.76-1.13-7.55-2.89-9.55-2.9-3.3-10.48-8-14.8-11.65C137.14,8,135.35,5.13,134.15,0a18.76,18.76,0,0,1-7.07,11.44c-4.34,3.65-11.92,8.35-14.82,11.65-1.77,2-4,6.79-2.87,9.55-5.15.67-10.24,6.73-12.19,11.07A22.7,22.7,0,0,0,98.53,63.4c3.17,5.19,8.9,9.4,15,10.28,6.44.92,12.89-1.43,16-4.73a21.13,21.13,0,0,0,4.61-7.47A20.84,20.84,0,0,0,138.78,69c3.13,3.3,9.58,5.65,16,4.73,6.09-.88,11.81-5.09,15-10.28a22.7,22.7,0,0,0,1.31-19.69Zm-37,6.77c-1.8-2-5.64-4.42-8.09-6.77-7.26-6.94-6.43-13.67-1.86-16.56,3.14-2,8.58-1.51,9.94.76,1.35-2.27,6.81-2.73,9.94-.76,4.58,2.89,5.41,9.62-1.85,16.56-2.45,2.35-6.28,4.72-8.09,6.77ZM165.8,61.24c-2.77,4-8.28,7.28-13.2,7.25-4.51,0-10.67-2.19-12.46-7.06-1.36-3.69,1.11-6.07,3.08-6.15,3.41-.18,6,3.79,3,6.6,5,2.95,12.05-6.26,4.63-10.67,3.93-.41,5.89-2.62,8.72-5-1.69-5-5.35-8.29-8.72-7.49a11.21,11.21,0,0,0-2.15-11.88c-5-5.06-12.6-3.56-14.53.65-1.92-4.21-9.55-5.7-14.52-.65a11.13,11.13,0,0,0-2.16,11.88c-3.36-.81-7,2.49-8.72,7.49,2.83,2.33,4.81,4.52,8.7,5-7.41,4.41-.41,13.62,4.63,10.67-3-2.81-.42-6.77,3-6.61,2,.09,4.46,2.47,3.12,6.16-1.83,4.87-8,7.06-12.5,7.06-4.94,0-10.43-3.22-13.18-7.25S99,50,101.15,45.37a15.06,15.06,0,0,1,7.09-7.25,30.74,30.74,0,0,1,5.46-1.83A11.12,11.12,0,0,1,116,24.58c4.63-5.45,10.61-8.91,13.53-12s4.25-5.77,4.62-8.45c.37,2.69,1.61,5.23,4.62,8.45s8.91,6.6,13.52,12c3.09,3.65,3.79,7.26,2.32,11.71a27.12,27.12,0,0,1,5.43,1.83,15.14,15.14,0,0,1,7.11,7.25c2.18,4.59,1.49,11.71-1.35,15.87Z"/><path class="cls-2" d="M1.46,129.22c0-1.46-.05-2.36-.12-2.88a.8.8,0,0,0-.37-.61l1.05,0H4.36a3.12,3.12,0,0,1,2.53.76,3.11,3.11,0,0,1,.83,2.3,2.91,2.91,0,0,1-.7,2.07,4.06,4.06,0,0,1-3.2,1.1c-.34,0-.73,0-1.08,0l0,1.42a17.71,17.71,0,0,0,.16,2.43,4.08,4.08,0,0,0,.21.54,6.85,6.85,0,0,0-1-.06c-.37,0-.66,0-1,.06a.92.92,0,0,0,.25-.38,6.86,6.86,0,0,0,.12-1.59c0-.45,0-.92,0-1.35v-3.78m1.28,1.86c.18,0,.79.06.94.06a2.77,2.77,0,0,0,2.05-.66,2.17,2.17,0,0,0,.64-1.69,2.22,2.22,0,0,0-.64-1.73,2.85,2.85,0,0,0-2-.55,4.4,4.4,0,0,0-1,.09c-.07.55-.07,1.53-.07,2.6v1.88Z"/><path class="cls-2" d="M9.18,131.28A13.94,13.94,0,0,0,9,128.87a.86.86,0,0,0-.34-.57,5.85,5.85,0,0,0,1.75-.4,4.78,4.78,0,0,0-.07.95c0,.42,0,1,0,1.3a3,3,0,0,1,2.71-2.21,4.35,4.35,0,0,0-.3,1.34,1.59,1.59,0,0,0-.36-.06,1.87,1.87,0,0,0-1.57.91,4.61,4.61,0,0,0-.49,2.57v.7a11.89,11.89,0,0,0,.25,2.94,3.68,3.68,0,0,0-.79-.06c-.25,0-.48,0-.82.06a15.63,15.63,0,0,0,.18-3v-2.11"/><path class="cls-2" d="M14.66,132.21c0,1.68.72,3.44,3.06,3.44a3.31,3.31,0,0,0,1.93-.59l.15-.12-.07.26a5.34,5.34,0,0,0-.18,1,6.24,6.24,0,0,1-1.93.26h-.3a4.6,4.6,0,0,1-2.53-.71,4.34,4.34,0,0,1-1.52-3.65,5.66,5.66,0,0,1,.18-1.56,3.33,3.33,0,0,1,1.16-1.89,3.6,3.6,0,0,1,2.23-.67,3.68,3.68,0,0,1,1,.12,2.89,2.89,0,0,1,1.57,1.09,4.76,4.76,0,0,1,.59,2.41c0,.13,0,.39,0,.65H14.63m4-.76c0-1.22-.17-1.93-.67-2.38a1.86,1.86,0,0,0-1.25-.43c-1.7,0-2.1,1.59-2.13,2.81h4Z"/><path class="cls-2" d="M32.24,133.73a6.53,6.53,0,0,0,.27,2.61,6.58,6.58,0,0,0-.89-.05,4.28,4.28,0,0,0-.9.05,6,6,0,0,0,.32-2.79V131.4c0-1.09-.05-1.67-.39-2.06a1.38,1.38,0,0,0-1.09-.41,2.21,2.21,0,0,0-.89.16,2,2,0,0,0-1,1.46c0,.24,0,.46-.09,1.28v2.51a4.65,4.65,0,0,0,.24,2c-.19,0-.72-.05-.91-.05a4.25,4.25,0,0,0-.8.05c.18-.38.25-.72.25-3.44v-1.18a8.46,8.46,0,0,0-.1-1.69A1.21,1.21,0,0,0,24.94,129a1.82,1.82,0,0,0-1.07.33c-.93.62-1,1.8-1,3v1.92c0,.52,0,1,.07,1.46a2.06,2.06,0,0,0,.21.71,6.5,6.5,0,0,0-.95,0,5.84,5.84,0,0,0-.83,0l.06-.09a3.67,3.67,0,0,0,.17-1c0-.83,0-1.19,0-2v-2.12c0-.37-.09-1.82-.18-2.26a1,1,0,0,0-.4-.63,4.68,4.68,0,0,0,1.83-.4l-.06,1.92a3.05,3.05,0,0,1,2.8-1.83,1.78,1.78,0,0,1,1.89,1.64A2.65,2.65,0,0,1,30,128a3.25,3.25,0,0,1,1.06.16,1.58,1.58,0,0,1,1.1,1.3,12.68,12.68,0,0,1,.06,2.14v2.2"/><path class="cls-2" d="M35.83,133.09c0,1.12.06,1.8.09,2.37a2,2,0,0,0,.24.88,4.72,4.72,0,0,0-.93-.09,7.48,7.48,0,0,0-.95.09,2.25,2.25,0,0,0,.18-.42,13.55,13.55,0,0,0,.15-2.26V130.8c0-2.13-.36-2.5-.48-2.59a4.47,4.47,0,0,0,1.85-.37,17.09,17.09,0,0,0-.15,2.78v2.47m-.72-6.16a.74.74,0,0,1-.77-.74.78.78,0,0,1,.79-.79.72.72,0,0,1,.77.74.76.76,0,0,1-.8.79m98.81,9.35a.77.77,0,1,1,0-1.54.72.72,0,0,1,.78.76.75.75,0,0,1-.81.76"/><path class="cls-2" d="M44.29,133.76c0,2,.21,2.41.39,2.56H44a2.8,2.8,0,0,0-.84.1,3.74,3.74,0,0,1-.06-.88c0-.31,0-.73,0-.95a2.59,2.59,0,0,1-2.68,1.9,2.2,2.2,0,0,1-1.78-.74c-.54-.61-.54-1.28-.54-2.56v-2.54c0-1.77-.18-2.12-.49-2.32a5.37,5.37,0,0,0,1.84-.41l0,.18c0,.42,0,2.23,0,3.25V133c0,1.34,0,2.54,1.63,2.54a1.91,1.91,0,0,0,1.78-1.11,5,5,0,0,0,.34-2.41v-1.85c0-.42,0-.79,0-1.15-.12-.56-.28-.66-.42-.71a4.65,4.65,0,0,0,1.76-.39,3.35,3.35,0,0,0-.08.82c0,.21-.06,1.21-.06,1.46v3.59"/><path class="cls-2" d="M57.16,133.73a6.81,6.81,0,0,0,.26,2.61,6.43,6.43,0,0,0-.9-.05,4.23,4.23,0,0,0-.89.05,6.33,6.33,0,0,0,.3-2.79V131.4c0-1.09,0-1.67-.39-2.06a1.36,1.36,0,0,0-1.08-.41,1.79,1.79,0,0,0-1.91,1.62,8,8,0,0,0-.09,1.28v2.51c0,.66,0,1.76.26,2-.21,0-.73-.05-.94-.05a3.94,3.94,0,0,0-.78.05c.18-.38.24-.72.24-3.44v-1.18a8.46,8.46,0,0,0-.1-1.69A1.22,1.22,0,0,0,49.83,129a1.9,1.9,0,0,0-1.09.33c-.89.62-1,1.8-1,3v1.92a12.7,12.7,0,0,0,.09,1.46,1.26,1.26,0,0,0,.22.71,6.94,6.94,0,0,0-1,0,6,6,0,0,0-.86,0l.09-.09a3.71,3.71,0,0,0,.15-1c0-.83,0-1.19,0-2l0-2.12a16.28,16.28,0,0,0-.15-2.26.83.83,0,0,0-.4-.63,4.64,4.64,0,0,0,1.83-.4l0,1.92A3,3,0,0,1,50.51,128a1.78,1.78,0,0,1,1.92,1.64A2.68,2.68,0,0,1,55,128a2.92,2.92,0,0,1,1,.16,1.53,1.53,0,0,1,1.12,1.3,10.89,10.89,0,0,1,.07,2.14v2.2"/><path class="cls-2" d="M63.83,128.81a17.58,17.58,0,0,0-.09-2.38,1,1,0,0,0-.3-.7,5.89,5.89,0,0,0,.9.06c.13,0,.78-.05,1.25-.06-.15.12-.29.25-.35.81s-.06,1-.1,2.24v1.47c.67,0,1.28.06,2.32.06s2.11,0,2.59-.06v-1.47c0-1.21,0-1.71-.07-2.24s-.21-.68-.35-.81c.3,0,.75.06,1,.06s.73-.05,1-.06c-.17.16-.27.32-.29.83s0,.89-.06,2.31v1.72c0,2.38-.06,4.11,0,4.61,0,.75.15,1,.3,1.11-.28,0-.71-.06-.92-.06l-1.13.06c.1-.08.21-.21.28-.73s.13-2.21.13-3.38v-1c-.65,0-1.54,0-2.73,0-.88,0-1.49,0-2.16,0v1.88a22.54,22.54,0,0,0,.1,2.51c.09.52.2.66.3.73-.33,0-.82-.06-1-.06s-.62.05-1.08.06a.82.82,0,0,0,.22-.4,10.81,10.81,0,0,0,.18-2.87v-4.24"/><path class="cls-2" d="M74.5,132.21c0,1.68.73,3.44,3,3.44a3.23,3.23,0,0,0,1.93-.59l.17-.12-.06.26a7.18,7.18,0,0,0-.2,1,6.12,6.12,0,0,1-1.93.26h-.3a4.7,4.7,0,0,1-2.53-.71,4.34,4.34,0,0,1-1.52-3.65,7.15,7.15,0,0,1,.18-1.56,3.47,3.47,0,0,1,1.18-1.89,4.12,4.12,0,0,1,3.24-.55,2.85,2.85,0,0,1,1.58,1.09,4.74,4.74,0,0,1,.56,2.41c0,.13,0,.39,0,.65H74.5m4-.76c0-1.22-.18-1.93-.67-2.38a1.84,1.84,0,0,0-1.25-.43c-1.68,0-2.08,1.59-2.1,2.81h4Z"/><path class="cls-2" d="M87.06,133.78a15.36,15.36,0,0,0,.12,1.81,1.13,1.13,0,0,0,.31.72h-.67a3.12,3.12,0,0,0-.88.1c0-.22-.06-.48-.06-1.1a7.68,7.68,0,0,1,0-.8c-.12.22-.22.49-.4.77a2.84,2.84,0,0,1-2.31,1.22A2.28,2.28,0,0,1,80.91,134a2.51,2.51,0,0,1,.72-1.86c.81-.81,2.33-.9,3.34-.9a8.64,8.64,0,0,1,.88,0c0-1,0-1.62-.49-2a1.92,1.92,0,0,0-1.25-.38A3.51,3.51,0,0,0,81.52,130a3.23,3.23,0,0,0-.39-1.1,7.69,7.69,0,0,1,3.52-.84,3.13,3.13,0,0,1,1.74.46c.58.41.74.93.74,2,0,.15,0,1,0,1.16l0,2.2M85.85,132a7.07,7.07,0,0,0-.91-.06c-1.66,0-2.08.45-2.3.69a2.1,2.1,0,0,0-.39,1.3,1.66,1.66,0,0,0,.39,1.17,1.39,1.39,0,0,0,1,.4,2,2,0,0,0,1.46-.7,3.06,3.06,0,0,0,.67-2.07l.05-.73Z"/><path class="cls-2" d="M90.66,132.91c0,.76,0,1,0,2s.11,1.16.3,1.45c-.27,0-.77-.09-1-.09a5.36,5.36,0,0,0-.94.09,2.31,2.31,0,0,0,.24-1.05c0-.52.12-2,.12-4.12v-1.78c0-3.28-.2-3.38-.58-3.6a5.4,5.4,0,0,0,2-.6,28.47,28.47,0,0,0-.23,3.81v3.93"/><path class="cls-2" d="M93.23,129.8a5.28,5.28,0,0,0-1.26.08c0-.15,0-.27,0-.46s0-.3,0-.52a7.6,7.6,0,0,0,1.25.06v-1a6.17,6.17,0,0,0-.08-1.25.76.76,0,0,0-.13-.37,3.64,3.64,0,0,0,1.55-.48,19.37,19.37,0,0,0-.11,2.08v1a7.44,7.44,0,0,0,1.47-.09c0,.19,0,.37,0,.55s0,.31,0,.46a6.8,6.8,0,0,0-1.45,0v3.82c0,.95,0,1.8,1,1.8a1.54,1.54,0,0,0,.65-.12,2.18,2.18,0,0,0,0,1.05,6.21,6.21,0,0,1-1.06.07c-1.64,0-1.8-.74-1.8-2.66v-4"/><path class="cls-2" d="M103.6,133.92c0,.73,0,1.17,0,1.58a1.55,1.55,0,0,0,.22.84c-.3,0-.6-.05-.86-.05a5.81,5.81,0,0,0-1,.05c.24-.21.3-.45.3-5.11,0-1,0-2.29-1.52-2.29a2,2,0,0,0-1.88,1.19,4.81,4.81,0,0,0-.32,2.23v2.1a3.7,3.7,0,0,0,.27,1.88,8.14,8.14,0,0,0-.93-.05,4.11,4.11,0,0,0-.85.05,1.41,1.41,0,0,0,.23-.84c0-.41,0-1,0-1.44v-5.58c0-2.52-.27-2.59-.5-2.74a4.52,4.52,0,0,0,1.9-.58,16.3,16.3,0,0,0-.16,3.14v1.55A3,3,0,0,1,101.4,128a1.94,1.94,0,0,1,2.19,2.13v3.84"/><path class="cls-2" d="M106.76,128.66a4.28,4.28,0,0,1,2.44-.7,6.83,6.83,0,0,1,2,.33,3.91,3.91,0,0,0-.37,1.16,1.83,1.83,0,0,0-1.6-.73,2.71,2.71,0,0,0-1.51.47,3.62,3.62,0,0,0-1.1,2.89,4.76,4.76,0,0,0,.51,2.35,2.53,2.53,0,0,0,2.33,1.22,2.61,2.61,0,0,0,1.58-.45,3.18,3.18,0,0,0-.24,1.09,5.45,5.45,0,0,1-1.41.18,4.33,4.33,0,0,1-2.78-.77,4.47,4.47,0,0,1-1.39-3.5,4.16,4.16,0,0,1,1.51-3.54"/><path class="cls-2" d="M118.23,133.78a10.82,10.82,0,0,0,.12,1.81,1.56,1.56,0,0,0,.28.72H118a3.11,3.11,0,0,0-.86.1c0-.22-.06-.48-.06-1.1a7.68,7.68,0,0,1,0-.8,7.52,7.52,0,0,1-.41.77,2.8,2.8,0,0,1-2.31,1.22,2.29,2.29,0,0,1-2.29-2.52,2.51,2.51,0,0,1,.71-1.86,5,5,0,0,1,3.35-.9,8.51,8.51,0,0,1,.88,0c0-1,0-1.62-.51-2a1.92,1.92,0,0,0-1.25-.38,3.46,3.46,0,0,0-2.59,1.13,3.46,3.46,0,0,0-.37-1.1,7.61,7.61,0,0,1,3.48-.84,3.11,3.11,0,0,1,1.76.46c.58.41.73.93.73,2v1.16l0,2.2M117,132a7.78,7.78,0,0,0-.94-.06c-1.65,0-2.08.45-2.28.69a2,2,0,0,0-.4,1.3,1.63,1.63,0,0,0,.4,1.17,1.34,1.34,0,0,0,1,.4,1.92,1.92,0,0,0,1.47-.7,3.07,3.07,0,0,0,.68-2.07Z"/><path class="cls-2" d="M120.44,131.28a13.92,13.92,0,0,0-.14-2.41c-.09-.38-.21-.48-.36-.57a5.78,5.78,0,0,0,1.75-.4,4.78,4.78,0,0,0-.07.95c0,.42,0,1,0,1.3a3,3,0,0,1,2.71-2.21,5,5,0,0,0-.29,1.34,1.36,1.36,0,0,0-.36-.06,1.84,1.84,0,0,0-1.55.91,4.42,4.42,0,0,0-.52,2.57v.7a11,11,0,0,0,.27,2.94,3.93,3.93,0,0,0-.81-.06c-.25,0-.49,0-.83.06a14.51,14.51,0,0,0,.19-3v-2.11"/><path class="cls-2" d="M125.93,132.21c0,1.68.72,3.44,3,3.44a3.3,3.3,0,0,0,1.94-.59l.15-.12-.06.26a3.65,3.65,0,0,0-.19,1,6.16,6.16,0,0,1-1.92.26h-.32a4.58,4.58,0,0,1-2.51-.71,4.32,4.32,0,0,1-1.5-3.65,6.34,6.34,0,0,1,.16-1.56,3.36,3.36,0,0,1,1.18-1.89,3.57,3.57,0,0,1,2.24-.67,3.93,3.93,0,0,1,1,.12,2.81,2.81,0,0,1,1.55,1.09,4.66,4.66,0,0,1,.59,2.41,5.76,5.76,0,0,1,0,.65H126m4-.76c0-1.22-.15-1.93-.65-2.38a1.82,1.82,0,0,0-1.25-.43c-1.68,0-2.07,1.59-2.1,2.81Z"/><path class="cls-2" d="M138.09,129.22a20.22,20.22,0,0,0-.12-2.88.72.72,0,0,0-.39-.61l1.09,0H141a2.82,2.82,0,0,1,3.38,3.06,3.08,3.08,0,0,1-.68,2.07,4.11,4.11,0,0,1-3.2,1.1c-.36,0-.76,0-1.1,0l0,1.42a12.21,12.21,0,0,0,.19,2.43,1.5,1.5,0,0,0,.21.54,7.21,7.21,0,0,0-1.06-.06c-.37,0-.65,0-1,.06A.83.83,0,0,0,138,136a6.26,6.26,0,0,0,.14-1.59v-5.13m1.28,1.86c.17,0,.77.06.93.06a2.84,2.84,0,0,0,2.07-.66,2.24,2.24,0,0,0,.66-1.69,2.21,2.21,0,0,0-.66-1.73,2.89,2.89,0,0,0-1.95-.55,4.33,4.33,0,0,0-1,.09,23,23,0,0,0-.08,2.6v1.88Z"/><path class="cls-2" d="M145.83,131.28a11.51,11.51,0,0,0-.17-2.41c-.09-.38-.2-.48-.34-.57a5.57,5.57,0,0,0,1.74-.4,6.05,6.05,0,0,0-.06.95c0,.42,0,1,0,1.3a3,3,0,0,1,2.71-2.21,3.83,3.83,0,0,0-.29,1.34,1.51,1.51,0,0,0-.38-.06,1.86,1.86,0,0,0-1.55.91,4.51,4.51,0,0,0-.51,2.57v.7a10.3,10.3,0,0,0,.29,2.94,4.21,4.21,0,0,0-.82-.06c-.24,0-.49,0-.84.06a14.76,14.76,0,0,0,.21-3v-2.11"/><path class="cls-2" d="M151.3,132.21c0,1.68.73,3.44,3,3.44a3.23,3.23,0,0,0,1.92-.59l.18-.12-.09.26a4.24,4.24,0,0,0-.16,1,6.62,6.62,0,0,1-1.95.26H154a4.58,4.58,0,0,1-2.53-.71,4.34,4.34,0,0,1-1.52-3.65,6.3,6.3,0,0,1,.2-1.56,3.27,3.27,0,0,1,1.16-1.89,3.65,3.65,0,0,1,2.25-.67,3.83,3.83,0,0,1,1,.12,2.82,2.82,0,0,1,1.57,1.09,4.65,4.65,0,0,1,.58,2.41,4.33,4.33,0,0,1,0,.65H151.3m4-.76a3,3,0,0,0-.66-2.38,1.87,1.87,0,0,0-1.26-.43c-1.7,0-2.07,1.59-2.1,2.81Z"/><path class="cls-2" d="M168.86,133.73c0,1.71,0,2,.28,2.61a6.64,6.64,0,0,0-.9-.05,4,4,0,0,0-.88.05,6.33,6.33,0,0,0,.3-2.79V131.4c0-1.09,0-1.67-.39-2.06a1.34,1.34,0,0,0-1.07-.41,2.19,2.19,0,0,0-.91.16,2,2,0,0,0-1,1.46,7.89,7.89,0,0,0-.07,1.28v2.51c0,.66,0,1.76.25,2-.22,0-.73-.05-.94-.05a4.25,4.25,0,0,0-.8.05c.19-.38.24-.72.24-3.44v-1.18a7.71,7.71,0,0,0-.11-1.69,1.16,1.16,0,0,0-1.29-1.06,1.9,1.9,0,0,0-1.09.33c-.89.62-.93,1.8-1,3v1.92c0,.52,0,1,.07,1.46s.13.62.21.71a6.64,6.64,0,0,0-.94,0,6,6,0,0,0-.86,0l.07-.09a3.31,3.31,0,0,0,.18-1c0-.83,0-1.19,0-2v-2.12a15.09,15.09,0,0,0-.19-2.26.88.88,0,0,0-.39-.63,4.61,4.61,0,0,0,1.82-.4v1.92a2.89,2.89,0,0,1,2.73-1.83,1.76,1.76,0,0,1,1.89,1.64,2.63,2.63,0,0,1,2.52-1.64,3.06,3.06,0,0,1,1,.16,1.55,1.55,0,0,1,1.1,1.3,12.68,12.68,0,0,1,.06,2.14v2.2"/><path class="cls-2" d="M172.46,133.09a23.17,23.17,0,0,0,.08,2.37,2,2,0,0,0,.22.88,4.58,4.58,0,0,0-.91-.09,7.34,7.34,0,0,0-.94.09,2.25,2.25,0,0,0,.18-.42,12.56,12.56,0,0,0,.15-2.26V130.8c0-2.13-.37-2.5-.46-2.59a4.36,4.36,0,0,0,1.84-.37,18.29,18.29,0,0,0-.16,2.78v2.47m-.73-6.16a.75.75,0,0,1-.77-.74.79.79,0,0,1,.8-.79.74.74,0,0,1,.78.74.77.77,0,0,1-.81.79"/><path class="cls-2" d="M180.94,133.76c0,2,.2,2.41.37,2.56h-.68a3,3,0,0,0-.85.1,5.58,5.58,0,0,1,0-.88c0-.31,0-.73,0-.95a2.58,2.58,0,0,1-2.68,1.9,2.2,2.2,0,0,1-1.78-.74c-.52-.61-.52-1.28-.54-2.56v-2.54c0-1.77-.16-2.12-.49-2.32a5.42,5.42,0,0,0,1.83-.41l0,.18c0,.42,0,2.23,0,3.25V133c0,1.34,0,2.54,1.62,2.54a1.93,1.93,0,0,0,1.8-1.11,5.25,5.25,0,0,0,.33-2.41v-1.85a8.4,8.4,0,0,0-.05-1.15c-.09-.56-.25-.66-.4-.71a4.69,4.69,0,0,0,1.76-.39,3.26,3.26,0,0,0-.09.82v1.46l-.05,3.59"/><path class="cls-2" d="M193.81,133.73c0,1.71,0,2,.28,2.61a7.27,7.27,0,0,0-.93-.05,4.07,4.07,0,0,0-.88.05,6.14,6.14,0,0,0,.31-2.79V131.4c0-1.09,0-1.67-.4-2.06a1.35,1.35,0,0,0-1.07-.41,2.13,2.13,0,0,0-.89.16,2,2,0,0,0-1,1.46,6.91,6.91,0,0,0-.09,1.28v2.51c0,.66,0,1.76.25,2-.2,0-.71-.05-.92-.05a3.69,3.69,0,0,0-.77.05c.16-.38.22-.72.22-3.44v-1.18a9.39,9.39,0,0,0-.09-1.69,1.22,1.22,0,0,0-1.32-1.06,1.88,1.88,0,0,0-1.07.33c-.91.62-1,1.8-1,3v1.92a12.84,12.84,0,0,0,.08,1.46c.06.49.13.62.21.71a7.09,7.09,0,0,0-1,0,5.91,5.91,0,0,0-.84,0l.07-.09a3.71,3.71,0,0,0,.15-1,19,19,0,0,0,.07-2l0-2.12a20.08,20.08,0,0,0-.15-2.26.91.91,0,0,0-.42-.63,4.61,4.61,0,0,0,1.83-.4l0,1.92a3,3,0,0,1,2.78-1.83,1.82,1.82,0,0,1,1.92,1.64A2.63,2.63,0,0,1,191.6,128a3.21,3.21,0,0,1,1,.16,1.56,1.56,0,0,1,1.11,1.3,9.55,9.55,0,0,1,.08,2.14v2.2"/><path class="cls-2" d="M200.48,128.81a14.41,14.41,0,0,0-.11-2.38,1,1,0,0,0-.28-.7,5.61,5.61,0,0,0,.88.06c.13,0,.8-.05,1.25-.06-.14.12-.27.25-.34.81s-.06,1-.09,2.24v1.47c.65,0,1.28.06,2.3.06s2.1,0,2.61-.06v-1.47c0-1.21,0-1.71-.08-2.24s-.19-.68-.34-.81c.3,0,.73.06,1,.06s.74-.05,1.05-.06c-.17.16-.26.32-.29.83s0,.89,0,2.31v1.72c0,2.38-.08,4.11,0,4.61,0,.75.15,1,.28,1.11-.28,0-.7-.06-.92-.06l-1.12.06c.09-.08.21-.21.27-.73s.15-2.21.15-3.38v-1c-.67,0-1.56,0-2.79,0-.84,0-1.47,0-2.12,0v1.88a25,25,0,0,0,.09,2.51c.1.52.19.66.31.73-.34,0-.83-.06-1-.06s-.62.05-1.08.06a.92.92,0,0,0,.2-.4,10.1,10.1,0,0,0,.2-2.87v-4.24"/><path class="cls-2" d="M216.73,134.19a3.24,3.24,0,0,1-3.28,2.28,3.54,3.54,0,0,1-2.9-1.28,4.77,4.77,0,0,1-.79-2.86,6,6,0,0,1,.26-1.93,3.41,3.41,0,0,1,3.45-2.43,3.68,3.68,0,0,1,1.51.29c1.76.71,2,2.42,2,3.76a7,7,0,0,1-.31,2.2m-1.58-4.54a2,2,0,0,0-1.68-.93,2.1,2.1,0,0,0-1.75.9,4.84,4.84,0,0,0-.57,2.55,5.58,5.58,0,0,0,.48,2.44,2,2,0,0,0,1.83,1,1.91,1.91,0,0,0,1.57-.75,4.43,4.43,0,0,0,.66-2.69,4.59,4.59,0,0,0-.54-2.56"/><path class="cls-2" d="M218.9,128.75a3.73,3.73,0,0,1,2.57-.78,5,5,0,0,1,1.88.33,2.79,2.79,0,0,0-.49,1.21.68.68,0,0,0-.35-.39,2.52,2.52,0,0,0-1.34-.3c-1.44,0-1.8.8-1.8,1.39,0,.81.87,1.16,1.66,1.44l.41.18a4.16,4.16,0,0,1,1.46.73,1.92,1.92,0,0,1,.54,1.42,2.32,2.32,0,0,1-.81,1.82,3.94,3.94,0,0,1-2.44.68,8.45,8.45,0,0,1-2.23-.29,3.92,3.92,0,0,0,.36-1.4.88.88,0,0,0,.37.35,3.24,3.24,0,0,0,1.73.42,2.07,2.07,0,0,0,1.35-.4,1.44,1.44,0,0,0,.45-1c0-.79-.67-1-1.27-1.25l-.42-.15c-1.26-.45-2.32-.88-2.32-2.31a2.09,2.09,0,0,1,.7-1.68"/><path class="cls-2" d="M224.94,131.65a19,19,0,0,0-.12-2.58c-.12-.58-.31-.71-.51-.81a6.06,6.06,0,0,0,1.89-.38,14.5,14.5,0,0,0-.07,2.15,2.93,2.93,0,0,1,2.68-2.06,2.24,2.24,0,0,1,1.66.67,4.76,4.76,0,0,1,.91,3.17,5.26,5.26,0,0,1-1.11,3.5,3.71,3.71,0,0,1-3,1.19,3.52,3.52,0,0,1-1.08-.14v.78c0,2.54.18,2.83.3,2.94-.32,0-.75-.07-1-.07a6.79,6.79,0,0,0-.81.07c.14-.52.25-.75.28-5.43v-3m1.2,3.78a3.67,3.67,0,0,0,1.27.22c2.1,0,2.68-1.8,2.68-3.56a5.3,5.3,0,0,0-.43-2.26,1.51,1.51,0,0,0-1.39-.85,1.84,1.84,0,0,0-1.62,1.06,9.3,9.3,0,0,0-.49,3.35v2Z"/><path class="cls-2" d="M234.46,133.09c0,1.12,0,1.8.11,2.37a2,2,0,0,0,.22.88,4.44,4.44,0,0,0-.89-.09,8,8,0,0,0-1,.09,3.23,3.23,0,0,0,.18-.42,16.1,16.1,0,0,0,.15-2.26V130.8c0-2.13-.37-2.5-.45-2.59a4.33,4.33,0,0,0,1.82-.37,17.09,17.09,0,0,0-.16,2.78v2.47m-.72-6.16a.75.75,0,0,1-.77-.74.78.78,0,0,1,.8-.79.74.74,0,0,1,.78.74.78.78,0,0,1-.81.79"/><path class="cls-2" d="M237,129.8a5.14,5.14,0,0,0-1.25.08c0-.15,0-.27,0-.46s0-.3,0-.52A7.36,7.36,0,0,0,237,129v-1a6.17,6.17,0,0,0-.08-1.25,1,1,0,0,0-.13-.37,3.61,3.61,0,0,0,1.53-.48c-.07.61-.07,1.38-.09,2.08v1a7.56,7.56,0,0,0,1.46-.09,5.21,5.21,0,0,0,0,.55,2.37,2.37,0,0,0,0,.46,6.8,6.8,0,0,0-1.44,0v3.82c0,.95,0,1.8,1,1.8a1.38,1.38,0,0,0,.64-.12,2.63,2.63,0,0,0,0,1.05,5.89,5.89,0,0,1-1,.07c-1.64,0-1.81-.74-1.81-2.66v-4"/><path class="cls-2" d="M247.09,133.78a10.91,10.91,0,0,0,.11,1.81,1.39,1.39,0,0,0,.31.72h-.64a3,3,0,0,0-.88.1,6.09,6.09,0,0,1-.06-1.1c0-.34,0-.4,0-.8a4.32,4.32,0,0,1-.42.77,2.84,2.84,0,0,1-2.31,1.22,2.3,2.3,0,0,1-2.29-2.52,2.51,2.51,0,0,1,.72-1.86,5,5,0,0,1,3.35-.9,8.83,8.83,0,0,1,.89,0c0-1,0-1.62-.52-2a1.85,1.85,0,0,0-1.25-.38,3.5,3.5,0,0,0-2.59,1.13,3.23,3.23,0,0,0-.4-1.1,7.77,7.77,0,0,1,3.51-.84,3.05,3.05,0,0,1,1.74.46c.59.41.74.93.74,2,0,.15,0,1,0,1.16v2.2M245.86,132a7.72,7.72,0,0,0-.92-.06c-1.69,0-2.12.45-2.33.69a2.23,2.23,0,0,0-.35,1.3,1.73,1.73,0,0,0,.35,1.17,1.48,1.48,0,0,0,1.08.4,1.86,1.86,0,0,0,1.44-.7,3.12,3.12,0,0,0,.68-2.07l.05-.73Z"/><path class="cls-2" d="M250.68,132.91c0,.76,0,1,0,2a2.8,2.8,0,0,0,.29,1.45c-.26,0-.76-.09-1-.09a5.12,5.12,0,0,0-.92.09,2.79,2.79,0,0,0,.24-1.05c0-.52.1-2,.1-4.12v-1.78c0-3.28-.21-3.38-.61-3.6a5.36,5.36,0,0,0,2.07-.6,26.85,26.85,0,0,0-.24,3.81v3.93"/><path class="cls-2" d="M254.43,133.09c0,1.12,0,1.8.07,2.37a2.12,2.12,0,0,0,.23.88,4.42,4.42,0,0,0-.91-.09,7.48,7.48,0,0,0-.95.09,1.39,1.39,0,0,0,.19-.42,12.56,12.56,0,0,0,.15-2.26V130.8c0-2.13-.36-2.5-.46-2.59a4.42,4.42,0,0,0,1.84-.37,16,16,0,0,0-.16,2.78v2.47m-.73-6.16a.74.74,0,0,1-.76-.74.78.78,0,0,1,.8-.79.73.73,0,0,1,.76.74.76.76,0,0,1-.8.79"/><path class="cls-2" d="M257,129.8a5.55,5.55,0,0,0-1.28.08c0-.15.05-.27.05-.46s0-.3-.05-.52A7.68,7.68,0,0,0,257,129v-1a6,6,0,0,0-.09-1.25,1,1,0,0,0-.13-.37,3.64,3.64,0,0,0,1.55-.48,15.29,15.29,0,0,0-.11,2.08v1a7.51,7.51,0,0,0,1.46-.09c0,.19,0,.37,0,.55s0,.31,0,.46a6.9,6.9,0,0,0-1.46,0v3.82c0,.95,0,1.8,1,1.8a1.49,1.49,0,0,0,.67-.12,2.06,2.06,0,0,0,0,1.05,6.48,6.48,0,0,1-1.06.07c-1.62,0-1.78-.74-1.78-2.66v-4"/><path class="cls-2" d="M264.06,135.37l.87-2.72c.3-.88.43-1.27.72-2.31a10.08,10.08,0,0,0,.4-2,.46.46,0,0,0-.06-.28,7.84,7.84,0,0,0,1,.06,3.47,3.47,0,0,0,.82-.06c-.13.06-.24.15-.55,1l-2.87,7.93c-1,2.73-2.47,2.73-3.53,2.73l-.4,0a3.63,3.63,0,0,0,.42-1.39.93.93,0,0,0,.68.21c1.12,0,1.53-.8,2.07-2.24l-.34,0-.32,0c-.1-.51-.52-1.94-.77-2.67l-.71-2.22a25.84,25.84,0,0,0-1-2.51,2.25,2.25,0,0,0-.53-.85,5.87,5.87,0,0,0,1,.06,6.82,6.82,0,0,0,1.11-.06c-.07.11-.15.28,0,1s.34,1.29.54,1.95l1.41,4.28"/><path class="cls-2" d="M122.62,102.6c0,4,0,7.33.21,9.07.11,1.22.35,2.14,1.63,2.3a18.62,18.62,0,0,0,1.88.17c.23,0,.32.11.32.25s-.17.33-.65.33c-2.29,0-4.94-.12-5.13-.12s-2.86.12-4.1.12c-.46,0-.67-.08-.67-.33s.09-.25.33-.25a7.15,7.15,0,0,0,1.27-.17c.82-.16,1-1.08,1.17-2.3.23-1.74.23-5.06.23-9.07V98.22a.25.25,0,0,0-.26-.26h-17.7a.24.24,0,0,0-.26.26v4.38c0,4,0,7.33.21,9.07.14,1.22.4,2.14,1.65,2.3.58.08,1.52.17,1.88.17s.34.11.34.25-.21.33-.67.33c-2.31,0-4.94-.12-5.15-.12s-2.84.12-4.07.12c-.47,0-.69-.08-.69-.33s.09-.25.31-.25A6.69,6.69,0,0,0,96,114c.85-.16,1-1.08,1.2-2.3.23-1.74.23-5.06.23-9.07V95.27c0-6.53,0-7.69-.08-9s-.43-2.08-1.8-2.38a9.29,9.29,0,0,0-1.43-.12c-.16,0-.34-.09-.34-.25s.24-.33.7-.33c1.86,0,4.49.12,4.7.12s2.84-.12,4.11-.12c.46,0,.65.08.65.33s-.16.25-.32.25a7.56,7.56,0,0,0-1,.12c-1.15.21-1.46.94-1.55,2.38s-.09,2.5-.09,9v.85a.24.24,0,0,0,.26.27h17.7c.14,0,.26,0,.26-.27v-.85c0-6.53,0-7.69-.09-9s-.42-2.08-1.79-2.38a9.4,9.4,0,0,0-1.43-.12c-.18,0-.34-.09-.34-.25s.21-.33.67-.33c1.89,0,4.52.12,4.75.12s2.82-.12,4.07-.12c.48,0,.69.08.69.33s-.18.25-.35.25a7.67,7.67,0,0,0-1,.12c-1.13.21-1.47.94-1.54,2.38s-.09,2.5-.09,9v7.33"/><path class="cls-2" d="M142,89c7.54,0,13.15,4.75,13.15,12.53s-5.29,13.69-13.34,13.69c-9.15,0-13-7.14-13-13.14,0-5.4,3.91-13.06,13.13-13.06m.7,24.92c3,0,9.23-1.74,9.23-11.47,0-8-4.87-12.32-10.13-12.32-5.61,0-9.79,3.69-9.79,11,0,7.78,4.7,12.8,10.69,12.8"/><path class="cls-2" d="M159.75,114.25c-.47-.22-.52-.37-.52-1.27,0-1.67.14-3,.18-3.53.05-.36.11-.54.27-.54s.24.11.24.38a6,6,0,0,0,.1,1.25c.48,2.44,2.7,3.39,5,3.39a4.47,4.47,0,0,0,4.76-4.45c0-2.31-1-3.63-3.84-6l-1.52-1.24c-3.54-2.91-4.34-5-4.34-7.23,0-3.58,2.68-6,6.93-6a12.58,12.58,0,0,1,3.11.34,5.43,5.43,0,0,0,1.16.16c.27,0,.33.08.33.24s-.14,1.26-.14,3.54c0,.55-.07.76-.23.76s-.23-.16-.29-.43a4.88,4.88,0,0,0-.41-1.67c-.2-.37-1.12-1.77-4.17-1.77A3.79,3.79,0,0,0,162.21,94c0,1.9.86,3.11,4.08,5.61l.93.73c3.95,3.11,4.9,5.18,4.9,7.85a6.93,6.93,0,0,1-2.86,5.54,8.79,8.79,0,0,1-5,1.41,10.23,10.23,0,0,1-4.47-.91"/><path class="cls-2" d="M179.59,99.12c0-5.19,0-6.13-.08-7.2s-.34-1.68-1.44-1.92a9.77,9.77,0,0,0-1.15-.09.23.23,0,0,1-.25-.21c0-.19.15-.26.54-.26,1.49,0,3.48.1,3.76.1.73,0,2.65-.1,4.2-.1,4.19,0,5.68,1.4,6.22,1.89a5.85,5.85,0,0,1,1.66,4c0,4.74-3.46,8-8.21,8a3.26,3.26,0,0,1-.71-.05c-.17,0-.36,0-.36-.22s.19-.3.88-.3a5.54,5.54,0,0,0,5.78-5.44,7.12,7.12,0,0,0-1.86-5.15A5.86,5.86,0,0,0,184,90.42a3.91,3.91,0,0,0-1.44.21c-.19.06-.28.29-.28.62V105c0,3.21,0,5.86.17,7.26.11,1,.3,1.71,1.3,1.84a11.45,11.45,0,0,0,1.5.14c.2,0,.25.1.25.2s-.16.27-.53.27c-1.85,0-3.94-.1-4.11-.1s-2.2.1-3.18.1c-.39,0-.55-.06-.55-.27s.07-.2.28-.2a4.46,4.46,0,0,0,1-.14c.66-.13.82-.86,1-1.84.18-1.4.18-4,.18-7.26V99.11"/><path class="cls-2" d="M202,105c0,3.21,0,5.86.16,7.26.11,1,.3,1.71,1.3,1.85a14,14,0,0,0,1.5.13c.19,0,.28.1.28.21s-.16.27-.55.27c-1.84,0-3.92-.11-4.1-.11s-2.28.11-3.28.11c-.35,0-.53-.06-.53-.27s.06-.21.27-.21a5.71,5.71,0,0,0,1-.13c.65-.14.82-.87.93-1.85.17-1.4.17-4,.17-7.26V99.12c0-5.19,0-6.13-.08-7.2S198.72,90.21,198,90a6.4,6.4,0,0,0-1-.12c-.15,0-.28-.07-.28-.21s.16-.26.53-.26c1.11,0,3.22.1,3.4.1s2.26-.1,3.27-.1c.37,0,.54.07.54.26s-.14.21-.29.21-.43,0-.82.09c-.9.18-1.19.75-1.24,1.92s-.06,2-.06,7.2V105"/><path class="cls-2" d="M219.69,105c0,3.21,0,5.86.15,7.26.08,1,.31,1.71,1.3,1.85a14,14,0,0,0,1.51.13c.21,0,.25.1.25.21s-.15.27-.51.27c-1.84,0-3.95-.11-4.12-.11s-2.27.11-3.27.11c-.37,0-.54-.06-.54-.27s.06-.21.27-.21a5.18,5.18,0,0,0,1-.13c.66-.14.84-.87,1-1.85.18-1.4.18-4,.18-7.26V90.87l-5,.07c-2.08,0-2.87.25-3.4,1.06a5.83,5.83,0,0,0-.58,1c-.11.27-.2.33-.32.33s-.19-.1-.19-.3.69-3.21.75-3.48.19-.64.34-.64a6.2,6.2,0,0,0,1.47.4c.95.11,2.23.18,2.63.18h12.55a12.07,12.07,0,0,0,2.36-.18c.51-.06.79-.16.94-.16s.16.18.16.4c0,1-.1,3.29-.1,3.68s-.1.43-.24.43-.24-.11-.27-.58l0-.36c-.12-1-.9-1.79-4.12-1.83l-4.21-.07V105"/><path class="cls-2" d="M237.62,90.28c.4-1.11.53-1.3.74-1.3s.33.16.73,1.2c.49,1.27,5.74,15.06,7.8,20.15,1.17,3,2.17,3.51,2.85,3.72a4.6,4.6,0,0,0,1.34.19c.19,0,.34,0,.34.21s-.29.27-.67.27-2.94,0-5.25-.06c-.65,0-1,0-1-.24s.09-.19.24-.22.39-.38.18-.91l-3.09-8.22a.35.35,0,0,0-.3-.19h-7.19a.35.35,0,0,0-.34.27l-2,5.92a7,7,0,0,0-.48,2.23c0,.67.7,1,1.28,1h.33c.24,0,.33.07.33.21s-.21.27-.49.27c-.81,0-2.25-.11-2.62-.11s-2.2.11-3.78.11c-.43,0-.62-.06-.62-.27s.11-.21.28-.21.68,0,1-.06c1.52-.19,2.19-1.46,2.8-3.14l7.59-20.74m3.48,13.35c.16,0,.16-.11.13-.23l-3.18-9c-.17-.51-.32-.51-.49,0l-2.94,9c-.07.17,0,.23.09.23Z"/><path class="cls-2" d="M257.67,105.07c0,4.91.14,7.06.75,7.65s1.39.78,4,.78c1.77,0,3.23,0,4-1a4.21,4.21,0,0,0,.86-2c0-.27.11-.43.32-.43s.19.12.19.5a19,19,0,0,1-.51,3.35c-.23.78-.31.9-2.09.9-2.41,0-4.16-.06-5.54-.09s-2.44-.11-3.42-.11c-.14,0-.69,0-1.37,0s-1.41.06-1.9.06-.54-.06-.54-.27.07-.2.27-.2a4.15,4.15,0,0,0,1-.14c.67-.13.84-.86,1-1.84.18-1.4.18-4,.18-7.26V99.11c0-5.19,0-6.13-.07-7.2s-.35-1.68-1.46-1.92a7.7,7.7,0,0,0-1.12-.09c-.13,0-.27-.08-.27-.21s.2-.27.54-.27c1.49,0,3.6.11,3.78.11s2.6-.11,3.61-.11c.35,0,.54.08.54.27s-.15.21-.28.21-.69,0-1.1.09c-1,.18-1.22.74-1.31,1.92s-.06,2-.06,7.2v6"/><path class="cls-2" d="M3.62,95.27c0-6.53,0-7.69-.09-9s-.42-2.08-1.79-2.38a9.19,9.19,0,0,0-1.43-.12c-.18,0-.31-.09-.31-.25s.19-.33.64-.33c1.86,0,4.52.12,4.73.12.46,0,3.63-.12,4.93-.12,2.63,0,5.43.24,7.64,1.82a7.31,7.31,0,0,1,2.89,5.7c0,3.06-1.31,6.16-5.06,9.64,3.44,4.39,6.27,8.09,8.69,10.7,2.25,2.38,4.05,2.84,5.07,3a9.25,9.25,0,0,0,1.64.14c.19,0,.4.11.4.25s-.25.33-1,.33h-3c-2.32,0-3.38-.21-4.45-.79-1.8-1-3.27-3-5.65-6.13-1.76-2.31-3.71-5.11-4.56-6.18a.72.72,0,0,0-.55-.27l-5.13-.07c-.21,0-.3.12-.3.34v1c0,4,0,7.32.23,9.06.12,1.22.37,2.14,1.62,2.31.59.07,1.49.16,1.86.16s.34.12.34.25-.21.33-.67.33c-2.29,0-4.92-.12-5.13-.12,0,0-2.7.12-3.93.12-.45,0-.67-.07-.67-.33s.09-.25.33-.25A7.9,7.9,0,0,0,2.17,114c.81-.17,1.06-1.09,1.19-2.31.21-1.74.21-5.06.21-9.06V95.28M6.9,98.9a.53.53,0,0,0,.3.49,11.7,11.7,0,0,0,4.41.67,5.34,5.34,0,0,0,3.11-.79c1.45-1,2.55-3.24,2.55-6.41,0-5.24-2.76-8.35-7.24-8.35a12.83,12.83,0,0,0-2.78.24.48.48,0,0,0-.35.51V98.91Z"/><path class="cls-2" d="M58.59,99.12c0-5.19,0-6.13,0-7.2s-.33-1.68-1.44-1.92A9.77,9.77,0,0,0,56,89.91a.23.23,0,0,1-.25-.21c0-.19.16-.26.52-.26,1.51,0,3.46.1,3.69.1s2.23-.1,3.23-.1c.38,0,.52.07.52.26s-.11.21-.26.21-.43,0-.84.09c-.91.18-1.16.75-1.24,1.92s-.06,2-.06,7.2v2h.14c.58-.62,6.62-6.78,7.81-8.08,1-1,1.81-1.84,1.81-2.41a.63.63,0,0,0-.43-.7c-.16-.09-.3-.15-.3-.28s.17-.22.4-.22c.66,0,1.7.1,2.52.1.16,0,2.36-.1,3.21-.1.37,0,.49.07.49.22s-.06.24-.32.24a4.9,4.9,0,0,0-1.88.46c-1.38.59-2.11,1.43-3.61,2.87-.84.79-6.64,6.47-7.35,7.31.86,1,7.82,8.17,9.18,9.43,2.81,2.6,3.39,3.14,5,3.81a6,6,0,0,0,2,.43c.24,0,.42.07.42.21s-.15.27-.72.27H78c-.92,0-1.56,0-2.29-.06-1.77-.18-2.62-.91-4-2s-8.58-8.88-10.19-10.86h-.16V105c0,3.21,0,5.86.16,7.26.1,1,.3,1.71,1.29,1.85a11.22,11.22,0,0,0,1.31.13c.2,0,.26.1.26.21s-.18.27-.52.27c-1.64,0-3.58-.11-3.86-.11s-2.19.11-3.2.11c-.37,0-.53-.06-.53-.27s.09-.21.28-.21a5.08,5.08,0,0,0,1-.13c.66-.14.81-.87.94-1.85.16-1.4.16-4,.16-7.26V99.12"/><polygon class="cls-3" points="55.59 113.26 42.9 85.73 24.68 120.74 42.78 93.75 55.59 113.26"/><path class="cls-1" d="M27.17,105.88s-.09-.18.13-.12c.69.21,1.16.59,1.86.76l.08-.09c.5.19,1,.4,1.62.59a24.12,24.12,0,0,0,3.15.45s0-.07.08-.07c.41,0,1,.13,1.59.2H36s.09,0,.1-.06c.27,0,.51.08.73.11a55.8,55.8,0,0,1,9,.88,13.2,13.2,0,0,1,1.95.38,9.79,9.79,0,0,1,2.66,1.46c0-.19.56,0,1,.24s.87.51.84.19c.47.48,1,1.3,1.14,1.3a1,1,0,0,1,.72.28A4.53,4.53,0,0,1,55.26,114a6,6,0,0,1,.37,1.16,6.69,6.69,0,0,0,.21.83c.09.18.09,0,.09-.3s0-.47.09-.29c-.33-1.31-.74-3.78-1.52-5a10.92,10.92,0,0,0-2.94-3,15.16,15.16,0,0,0-3.68-1.77,37.74,37.74,0,0,0-3.72-1l-2.86-.42c-1.37-.19-3-.36-4.74-.53s-3.41-.36-4.76-.64c-.36-.08-.64-.17-1-.24L30,102.5c-.53-.18-1-.34-1.28-.48l-.24-.08a20.4,20.4,0,0,1-2.05-1,16.74,16.74,0,0,1-1.73-1.15c-.44-.31-1.2,0-1.62-.4l.52,1.18c-.38-.45-.7-1-.87-1.09-.42-.51-.56-.6-.6-.48a3.08,3.08,0,0,0,.06.73c.12.38-.3,0-.06.6-.24-.37-.36-.55-.57-.92-.05,0,.12.28.29.53s.32.48.18.4c-.21-.37-.51-.73-.72-1.1a2,2,0,0,0,.33.75c.18.29.36.56.28.58-.18-.18-.5-1.13-.7-1.12a4.15,4.15,0,0,0,.3.57,9.23,9.23,0,0,0-.83-1.14c-.15-.14-.18,0,0,.6-.21-.39-.43-1-.64-1.35h0c.09.2.24.58.33.77-.12-.22-.22-.46-.34-.7v.15c.07.18.13.37.22.55L20,98.44a1.57,1.57,0,0,0,.06.46,7.15,7.15,0,0,0,.53,1.5,12.37,12.37,0,0,0,2.8,3.34,14.39,14.39,0,0,0,3.72,2.15Z"/></g></g></svg>