<svg width="26" height="26" viewBox="0 0 26 26" fill="none" xmlns="http://www.w3.org/2000/svg">
<path d="M23.7148 3.85938H2.28516C1.02771 3.85938 0 4.88257 0 6.14453V19.8555C0 21.1179 1.02837 22.1406 2.28516 22.1406H23.7148C24.9723 22.1406 26 21.1174 26 19.8555V6.14453C26 4.88226 24.9718 3.85938 23.7148 3.85938ZM23.3639 5.38281C22.6251 6.12407 13.9468 14.8307 13.5903 15.1884C13.2925 15.4871 12.7077 15.4873 12.4097 15.1884L2.63605 5.38281H23.3639ZM1.52344 19.5754V6.42459L8.07752 13L1.52344 19.5754ZM2.63605 20.6172L9.15302 14.079L11.3308 16.2639C12.2232 17.1592 13.7772 17.1588 14.6693 16.2639L16.847 14.0791L23.3639 20.6172H2.63605ZM24.4766 19.5754L17.9225 13L24.4766 6.42459V19.5754Z" fill="white"/>
</svg>
