<svg width="80" height="80" viewBox="0 0 80 80" fill="none" xmlns="http://www.w3.org/2000/svg">
<path d="M63.0646 61.88V22.088C63.066 21.9531 63.0388 21.8195 62.9846 21.696C62.9354 21.5756 62.8619 21.4666 62.7686 21.376L45.7046 4.304C45.6083 4.214 45.4974 4.14097 45.3766 4.088C45.2555 4.03409 45.1251 4.0042 44.9926 4H9.31263C9.04741 4 8.79306 4.10536 8.60552 4.29289C8.41798 4.48043 8.31263 4.73478 8.31263 5V74.984C8.31051 75.1167 8.3348 75.2484 8.38411 75.3716C8.43341 75.4948 8.50673 75.6069 8.5998 75.7015C8.69287 75.796 8.80383 75.8711 8.92621 75.9224C9.04859 75.9736 9.17995 76 9.31263 76H62.0646C62.3298 76 62.5842 75.8946 62.7717 75.7071C62.9593 75.5196 63.0646 75.2652 63.0646 75V72.88L65.1766 74.992C65.8217 75.6369 66.6965 75.9991 67.6086 75.9991C68.5208 75.9991 69.3955 75.6369 70.0406 74.992L70.6806 74.352C71.3216 73.7049 71.6812 72.8308 71.6812 71.92C71.6812 71.0092 71.3216 70.1351 70.6806 69.488L63.0646 61.88ZM45.9926 7.432L59.6486 21.088H45.9926V7.432ZM61.0646 73.984H10.3126V5.984H44.0006V22.088C44.0006 22.3532 44.106 22.6076 44.2935 22.7951C44.4811 22.9826 44.7354 23.088 45.0006 23.088H61.0646V60C60.4833 59.6139 59.7978 59.4146 59.1001 59.4289C58.4024 59.4432 57.7257 59.6704 57.1606 60.08L55.7206 58.648C58.1252 55.8628 59.3548 52.253 59.1503 48.5791C58.9458 44.9052 57.3231 41.4541 54.6242 38.953C51.9254 36.452 48.361 35.0962 44.6822 35.1713C41.0034 35.2465 37.4974 36.7467 34.9029 39.3559C32.3084 41.9651 30.8281 45.4796 30.7738 49.1588C30.7195 52.838 32.0954 56.3946 34.6118 59.0792C37.1281 61.7639 40.5883 63.3669 44.2633 63.5506C47.9383 63.7343 51.5411 62.4843 54.3126 60.064L55.7446 61.496C55.2668 62.1555 55.0391 62.9633 55.1021 63.7752C55.1651 64.5871 55.5148 65.3502 56.0886 65.928L61.0646 70.904V73.984ZM36.2646 57.984C34.5459 56.2656 33.3753 54.0761 32.9009 51.6924C32.4266 49.3087 32.6698 46.8378 33.5997 44.5923C34.5297 42.3468 36.1047 40.4276 38.1255 39.0772C40.1463 37.7269 42.5222 37.0061 44.9526 37.0061C47.3831 37.0061 49.7589 37.7269 51.7797 39.0772C53.8006 40.4276 55.3755 42.3468 56.3055 44.5923C57.2355 46.8378 57.4787 49.3087 57.0043 51.6924C56.53 54.0761 55.3594 56.2656 53.6406 57.984C51.331 60.2817 48.2039 61.5688 44.946 61.5628C41.6881 61.5568 38.5658 60.2582 36.2646 57.952V57.984ZM69.2646 72.944L68.6246 73.576C68.3548 73.8447 67.9894 73.9955 67.6086 73.9955C67.2278 73.9955 66.8625 73.8447 66.5926 73.576L62.7766 69.76L57.5126 64.496C57.2434 64.2248 57.0924 63.8581 57.0924 63.476C57.0924 63.0939 57.2434 62.7272 57.5126 62.456L58.1526 61.816C58.4235 61.5492 58.7884 61.3997 59.1686 61.3997C59.5488 61.3997 59.9137 61.5492 60.1846 61.816L61.3686 63L69.2726 70.904C69.5407 71.1763 69.6904 71.5435 69.6889 71.9256C69.6874 72.3078 69.5349 72.6738 69.2646 72.944ZM14.5046 14.888C14.5046 14.6228 14.61 14.3684 14.7975 14.1809C14.9851 13.9934 15.2394 13.888 15.5046 13.888H38.9606C39.2258 13.888 39.4802 13.9934 39.6677 14.1809C39.8553 14.3684 39.9606 14.6228 39.9606 14.888C39.9606 15.1532 39.8553 15.4076 39.6677 15.5951C39.4802 15.7826 39.2258 15.888 38.9606 15.888H15.5046C15.2394 15.888 14.9851 15.7826 14.7975 15.5951C14.61 15.4076 14.5046 15.1532 14.5046 14.888ZM14.5046 22.088C14.5046 21.8228 14.61 21.5684 14.7975 21.3809C14.9851 21.1934 15.2394 21.088 15.5046 21.088H38.9606C39.2258 21.088 39.4802 21.1934 39.6677 21.3809C39.8553 21.5684 39.9606 21.8228 39.9606 22.088C39.9606 22.3532 39.8553 22.6076 39.6677 22.7951C39.4802 22.9826 39.2258 23.088 38.9606 23.088H15.5046C15.2394 23.088 14.9851 22.9826 14.7975 22.7951C14.61 22.6076 14.5046 22.3532 14.5046 22.088ZM14.5046 29.032C14.5003 28.898 14.523 28.7645 14.5714 28.6395C14.6197 28.5144 14.6927 28.4004 14.786 28.3041C14.8793 28.2078 14.9909 28.1313 15.1144 28.0791C15.2379 28.0268 15.3706 27.9999 15.5046 28H55.7286C55.9938 28 56.2482 28.1054 56.4357 28.2929C56.6233 28.4804 56.7286 28.7348 56.7286 29C56.7286 29.2652 56.6233 29.5196 56.4357 29.7071C56.2482 29.8946 55.9938 30 55.7286 30H15.5046C15.2449 30.0001 14.9952 29.8992 14.8086 29.7185C14.622 29.5378 14.5129 29.2916 14.5046 29.032ZM14.5046 36.176C14.5109 35.915 14.619 35.6667 14.8059 35.4844C14.9927 35.302 15.2435 35.1999 15.5046 35.2H28.8006C29.0658 35.2 29.3202 35.3054 29.5077 35.4929C29.6953 35.6804 29.8006 35.9348 29.8006 36.2C29.8006 36.4652 29.6953 36.7196 29.5077 36.9071C29.3202 37.0946 29.0658 37.2 28.8006 37.2H15.5046C15.3713 37.2 15.2392 37.1734 15.1163 37.1216C14.9934 37.0699 14.8821 36.9941 14.7889 36.8987C14.6957 36.8033 14.6226 36.6902 14.5737 36.5661C14.5249 36.4419 14.5014 36.3093 14.5046 36.176ZM14.5046 43.32C14.5036 43.1884 14.5287 43.0579 14.5786 42.9361C14.6285 42.8143 14.7021 42.7036 14.7951 42.6105C14.8882 42.5174 14.9989 42.4438 15.1207 42.3939C15.2425 42.3441 15.373 42.3189 15.5046 42.32H28.8006C29.0658 42.32 29.3202 42.4254 29.5077 42.6129C29.6953 42.8004 29.8006 43.0548 29.8006 43.32C29.8006 43.5852 29.6953 43.8396 29.5077 44.0271C29.3202 44.2146 29.0658 44.32 28.8006 44.32H15.5046C15.2394 44.32 14.9851 44.2146 14.7975 44.0271C14.61 43.8396 14.5046 43.5852 14.5046 43.32ZM14.5046 50.456C14.5046 50.1908 14.61 49.9364 14.7975 49.7489C14.9851 49.5614 15.2394 49.456 15.5046 49.456H27.2006C27.4658 49.456 27.7202 49.5614 27.9077 49.7489C28.0953 49.9364 28.2006 50.1908 28.2006 50.456C28.2006 50.7212 28.0953 50.9756 27.9077 51.1631C27.7202 51.3506 27.4658 51.456 27.2006 51.456H15.5046C15.2394 51.456 14.9851 51.3506 14.7975 51.1631C14.61 50.9756 14.5046 50.7212 14.5046 50.456ZM14.5046 57.6C14.5046 57.3348 14.61 57.0804 14.7975 56.8929C14.9851 56.7054 15.2394 56.6 15.5046 56.6H28.8006C29.0658 56.6 29.3202 56.7054 29.5077 56.8929C29.6953 57.0804 29.8006 57.3348 29.8006 57.6C29.8006 57.8652 29.6953 58.1196 29.5077 58.3071C29.3202 58.4946 29.0658 58.6 28.8006 58.6H15.5046C15.2394 58.6 14.9851 58.4946 14.7975 58.3071C14.61 58.1196 14.5046 57.8652 14.5046 57.6ZM32.4006 64.744C32.4006 65.0092 32.2953 65.2636 32.1077 65.4511C31.9202 65.6386 31.6658 65.744 31.4006 65.744H15.5046C15.2394 65.744 14.9851 65.6386 14.7975 65.4511C14.61 65.2636 14.5046 65.0092 14.5046 64.744C14.5046 64.4788 14.61 64.2244 14.7975 64.0369C14.9851 63.8494 15.2394 63.744 15.5046 63.744H31.4006C31.5322 63.7429 31.6628 63.7681 31.7846 63.818C31.9064 63.8678 32.017 63.9414 32.1101 64.0345C32.2032 64.1276 32.2768 64.2383 32.3267 64.3601C32.3766 64.4819 32.4017 64.6124 32.4006 64.744Z" fill="black"/>
</svg>
