<svg width="50" height="50" viewBox="0 0 50 50" fill="none" xmlns="http://www.w3.org/2000/svg">
<g clip-path="url(#clip0_396_2682)">
<path d="M43.5636 39.8836C42.9268 36.8309 40.5484 34.3631 37.5027 33.5961C35.4193 33.0733 33.3257 33.3367 31.4906 34.3387L29.1398 29.0237L38.1355 7.43583C38.4061 6.78584 38.5424 6.10118 38.5424 5.40032C38.5424 3.6273 37.6615 1.98143 36.1864 0.997758L34.9534 0.1758C34.6971 0.00392788 34.3776 -0.0448994 34.0847 0.0425014C33.7897 0.127949 33.5476 0.339566 33.4235 0.6213L25.0006 19.6652L16.5774 0.621397C16.4532 0.339664 16.2112 0.128047 15.9161 0.0425991C15.6211 -0.0448994 15.3017 0.00392788 15.0474 0.175898L13.8145 0.997856C12.3394 1.98143 11.4585 3.6273 11.4585 5.40032C11.4585 6.10118 11.5948 6.78574 11.8654 7.43583L20.8608 29.0256L18.5082 34.3397C17.2977 33.6784 15.961 33.3336 14.5835 33.3336C9.98753 33.3336 6.25 37.0719 6.25 41.6668C6.25 46.2616 9.98744 49.9999 14.5835 49.9999C19.1796 49.9999 22.9171 46.2616 22.9171 41.6668C22.9171 38.5855 23.9255 36.3328 24.9991 34.7928C26.0428 36.2867 27.0177 38.4257 27.0798 41.3697C27.1775 45.9778 30.6464 49.7629 34.9738 49.9887C35.1244 49.9958 35.2729 49.9999 35.4194 49.9999C37.8629 49.9999 40.1497 48.9522 41.7489 47.0855C43.4456 45.1051 44.1069 42.4795 43.5636 39.8836ZM14.5833 45.8334C12.2863 45.8334 10.4166 43.9648 10.4166 41.6668C10.4166 39.3688 12.2863 37.5001 14.5833 37.5001C16.8802 37.5001 18.7499 39.3688 18.7499 41.6668C18.7499 43.9648 16.8802 45.8334 14.5833 45.8334ZM24.9997 31.2503C23.8502 31.2503 22.9164 30.3155 22.9164 29.1671C22.9164 28.0187 23.8503 27.0838 24.9997 27.0838C26.1492 27.0838 27.0829 28.0187 27.0829 29.1671C27.0829 30.3155 26.1492 31.2503 24.9997 31.2503ZM35.4162 45.8334C33.1193 45.8334 31.2496 43.9648 31.2496 41.6668C31.2496 39.3688 33.1193 37.5001 35.4162 37.5001C37.7131 37.5001 39.5828 39.3688 39.5828 41.6668C39.5828 43.9648 37.7131 45.8334 35.4162 45.8334Z" fill="white"/>
</g>
<defs>
<clipPath id="clip0_396_2682">
<rect width="50" height="50" fill="white"/>
</clipPath>
</defs>
</svg>
