<svg width="26" height="26" viewBox="0 0 26 26" fill="none" xmlns="http://www.w3.org/2000/svg">
<g clip-path="url(#clip0_463_2666)">
<path fill-rule="evenodd" clip-rule="evenodd" d="M21.6185 4.34209C19.3381 2.05902 16.3054 0.801144 13.0744 0.799805C6.41684 0.799805 0.998524 6.21798 0.995846 12.8774C0.994953 15.0062 1.55107 17.0842 2.6081 18.9159L0.894531 25.1748L7.29758 23.4952C9.06188 24.4576 11.0482 24.9647 13.0695 24.9653H13.0746C19.7314 24.9653 25.1504 19.5467 25.1529 12.887C25.1542 9.65955 23.899 6.62502 21.6185 4.34209ZM13.0744 22.9255H13.0703C11.2689 22.9248 9.50225 22.4407 7.96066 21.5261L7.59423 21.3085L3.79457 22.3053L4.80875 18.6007L4.56997 18.2208C3.56501 16.6224 3.03434 14.775 3.03523 12.8781C3.03731 7.343 7.54097 2.83978 13.0785 2.83978C15.7599 2.84068 18.2806 3.88625 20.176 5.78386C22.0714 7.68146 23.1146 10.2038 23.1137 12.8863C23.1113 18.4218 18.6079 22.9255 13.0744 22.9255ZM18.5811 15.4067C18.2794 15.2555 16.7956 14.5256 16.5188 14.4248C16.2424 14.324 16.041 14.2739 15.84 14.5759C15.6387 14.8779 15.0604 15.5578 14.8843 15.7591C14.7081 15.9605 14.5323 15.9858 14.2304 15.8347C13.9286 15.6837 12.9562 15.3648 11.8033 14.3367C10.9062 13.5364 10.3006 12.5481 10.1244 12.2461C9.94857 11.9438 10.1229 11.7962 10.2568 11.6302C10.5835 11.2245 10.9107 10.7991 11.0113 10.5979C11.112 10.3964 11.0615 10.2201 10.986 10.0691C10.9107 9.91811 10.3071 8.43261 10.0557 7.82815C9.81051 7.2399 9.56191 7.31934 9.37654 7.31012C9.20069 7.30134 8.9994 7.29956 8.79811 7.29956C8.59697 7.29956 8.26996 7.37498 7.99324 7.67729C7.71667 7.97945 6.9371 8.70948 6.9371 10.195C6.9371 11.6805 8.01854 13.1155 8.16939 13.317C8.32025 13.5184 10.2976 16.5668 13.325 17.8739C14.045 18.1851 14.6071 18.3707 15.0455 18.5098C15.7686 18.7395 16.4263 18.707 16.9464 18.6294C17.5263 18.5426 18.7318 17.8992 18.9836 17.1943C19.235 16.4893 19.235 15.8851 19.1594 15.7591C19.0841 15.6332 18.8828 15.5578 18.5811 15.4067Z" fill="white"/>
</g>
<defs>
<clipPath id="clip0_463_2666">
<rect width="26" height="26" fill="white"/>
</clipPath>
</defs>
</svg>
