<svg width="47" height="43" viewBox="0 0 47 43" fill="none" xmlns="http://www.w3.org/2000/svg">
<path fill-rule="evenodd" clip-rule="evenodd" d="M29.4415 26.8131L31.4962 25.9799C36.5478 23.9122 42.4258 24.1128 44.5654 24.2748C45.7935 23.5805 47.0526 21.7983 46.8363 17.3313C46.7059 14.9284 46.0745 12.5791 44.9825 10.434C44.7894 10.6578 44.5809 10.8815 44.3723 11.0975C43.5678 11.8204 42.9571 12.7327 42.5958 13.7515C42.5166 14.0221 42.2678 14.2077 41.9855 14.2067C41.924 14.2141 41.8617 14.2141 41.8002 14.2067C41.4759 14.103 41.2894 13.7642 41.3753 13.4352C41.784 12.2217 42.4966 11.1328 43.4454 10.272C43.7533 9.96315 44.0422 9.63595 44.3105 9.29221C42.6574 6.67661 40.3383 4.54661 37.5905 3.12016C36.6753 4.01207 35.9225 5.05634 35.366 6.20619C35.2561 6.42586 35.0325 6.5658 34.7867 6.56879C34.6897 6.56864 34.5942 6.5448 34.5086 6.49936C34.3537 6.42922 34.2341 6.29912 34.1772 6.13903C34.1204 5.97893 34.1313 5.80263 34.2073 5.6507C34.7657 4.51553 35.498 3.47434 36.3778 2.56468C35.6525 2.22989 34.91 1.93374 34.1533 1.67745C34.118 1.72186 34.0763 1.76086 34.0297 1.79317C33.1099 2.39396 32.0389 2.72291 30.94 2.74213C30.1142 2.75658 29.3043 2.5139 28.6228 2.04777C28.4365 1.90996 28.338 1.68335 28.3644 1.45332C28.3907 1.22328 28.5379 1.02477 28.7506 0.93255C28.9632 0.840333 29.2089 0.868423 29.3952 1.00624C30.3391 1.55504 31.4909 1.61256 32.4849 1.16054C30.5754 0.613842 28.6213 0.236907 26.6454 0.0341422H26.5218C26.2515 2.22522 24.6217 4.13855 22.6598 5.38839C23.7667 5.97079 25.0968 5.93867 26.1742 5.30352C26.3131 5.20599 26.4854 5.16821 26.6524 5.19867C26.8194 5.22913 26.9671 5.32528 27.0625 5.46554C27.2639 5.75604 27.1952 6.15412 26.908 6.36049C26.203 6.84128 25.3672 7.09442 24.5135 7.0857C23.4296 7.05982 22.3687 6.76839 21.4239 6.23705C20.8369 6.94683 20.8909 7.84949 21.0145 9.13019C21.2223 10.2509 21.1154 11.4071 20.7055 12.4708C20.5999 12.6943 20.3737 12.836 20.1262 12.8334C20.0299 12.8353 19.9346 12.8142 19.8482 12.7717C19.531 12.6159 19.397 12.2351 19.5469 11.9153C19.8438 11.1113 19.9132 10.2411 19.7478 9.40022C19.0581 8.9655 18.2175 8.83957 17.4305 9.05304C16.8238 9.40455 16.4092 10.0116 16.3028 10.7041C16.2111 11.0471 15.8583 11.2509 15.5149 11.1592C15.1715 11.0676 14.9675 10.7153 15.0592 10.3723C15.2547 9.29856 15.9401 8.37718 16.913 7.88035C17.7935 7.54399 18.7719 7.57175 19.6319 7.9575C19.5348 6.71914 20.0873 5.51901 21.0918 4.78662H21.1381C23.1695 3.74508 24.8766 2.01691 25.1392 0.0264272C23.9031 -0.0247605 22.665 -0.00157339 21.4316 0.0958626C20.9295 1.80089 19.4542 2.87328 18.1025 3.85309C17.004 4.52748 16.0636 5.42997 15.345 6.49936C15.2307 6.70345 15.0152 6.83023 14.7811 6.8311C14.5435 6.81617 14.3325 6.67387 14.2299 6.45925C14.1273 6.24462 14.149 5.99131 14.2868 5.79729C15.0907 4.54958 16.1618 3.49558 17.4228 2.71127C18.4947 2.07276 19.4 1.18971 20.0644 0.134438C16.9848 0.514976 14.0035 1.46744 11.2744 2.94272C11.8228 4.70947 10.9422 6.02874 9.9381 7.16285C11.7687 8.08866 12.5566 9.60081 12.1549 11.4679C12.0929 11.7639 11.832 11.9762 11.5293 11.977H11.3902C11.2227 11.9403 11.0768 11.8379 10.9854 11.6929C10.8939 11.5479 10.8645 11.3724 10.9036 11.2055C11.1971 9.81683 10.5715 8.82159 9.01893 8.11952C7.91438 9.31535 7.30417 10.1872 7.70583 11.3753C7.78107 11.538 7.78367 11.725 7.71298 11.8897C7.64228 12.0545 7.50494 12.1816 7.33507 12.2394C7.26598 12.2503 7.1956 12.2503 7.12651 12.2394C6.84932 12.2399 6.60314 12.0625 6.51631 11.7996C5.8058 9.67828 7.19561 8.22026 8.42361 6.93199L8.42417 6.9314C9.65231 5.64299 10.3784 4.7789 10.1544 3.5985C7.05524 5.50507 4.48446 8.15771 2.67741 11.3136C3.87027 11.8503 4.90884 12.678 5.69755 13.7206C5.91168 14.0001 5.85994 14.3998 5.58169 14.6156C5.46945 14.7034 5.33028 14.7497 5.18776 14.7467C4.98866 14.748 4.8003 14.6568 4.67796 14.4999C4.0162 13.6036 3.12878 12.8983 2.10583 12.4554C1.70412 13.2839 1.40081 14.1565 1.2021 15.0554C0.700032 17.6708 0.931756 20.1319 2.40707 21.9295C2.76143 21.548 3.02541 21.0919 3.17948 20.5948C3.28057 20.2628 3.62791 20.0717 3.96282 20.1637C4.29774 20.2557 4.49839 20.5973 4.41534 20.9342C4.21615 21.6408 3.8537 22.2909 3.35714 22.8321C4.52503 23.7114 5.89082 24.2915 7.33507 24.5217C6.93341 23.5805 6.80983 22.0683 7.91438 19.7924C8.20017 19.1906 8.47824 18.3651 8.13065 17.8791C7.64403 17.177 6.03741 17.1693 5.51217 17.2233C5.34194 17.2427 5.171 17.1933 5.0375 17.0861C4.90399 16.9788 4.81902 16.8226 4.80155 16.6524C4.76988 16.3022 5.02349 15.9907 5.37314 15.9503C5.39725 15.9503 5.4372 15.9485 5.49074 15.9462H5.49075H5.49076H5.49079H5.49081H5.49083C6.07207 15.9206 8.25469 15.8246 9.18114 17.1384C9.40689 17.4619 9.54038 17.8406 9.56734 18.234C10.7337 18.4345 11.5988 18.234 12.0082 17.7248C12.4175 17.2156 12.3789 16.1355 11.7919 14.9628C11.6341 14.6453 11.7637 14.2602 12.0815 14.1025C12.3994 13.9449 12.785 14.0744 12.9428 14.3919C13.7538 16.0274 13.7847 17.5242 13.0278 18.504C12.3878 19.2671 11.4185 19.6751 10.4247 19.5995C10.0831 19.5924 9.74243 19.5615 9.40514 19.5069C9.32082 19.7969 9.20963 20.0785 9.073 20.3479C7.52424 23.5596 8.89074 24.6191 9.05778 24.7486C9.06568 24.7547 9.0709 24.7588 9.073 24.7609C10.1171 24.8315 11.1649 24.8315 12.209 24.7609C13.6651 23.6832 15.2706 22.823 16.9748 22.2072C16.4687 22.0901 15.9465 22.0588 15.43 22.1146C15.0824 22.1146 14.7966 21.5977 14.7889 21.2505C14.782 20.8757 15.046 20.5502 15.4145 20.479C15.9933 20.451 16.5727 20.5187 17.1293 20.6796C16.7353 18.9977 17.3147 17.501 18.8827 16.1123C19.0469 15.9297 19.3013 15.857 19.5374 15.9251C19.7736 15.9932 19.9499 16.1902 19.9914 16.4322C20.0329 16.6741 19.9323 16.9185 19.7323 17.0613C18.1875 18.45 17.9017 19.7075 18.8209 21.5051H18.8981C20.983 20.9827 23.0114 20.2565 24.9538 19.3372C24.8014 18.4746 24.8014 17.5921 24.9538 16.7295C23.0769 15.958 22.1809 14.8779 22.5439 12.656C22.598 12.3011 22.9301 12.1931 23.3163 12.2471C23.6629 12.3338 23.8911 12.6642 23.8493 13.0186C23.6716 14.1141 23.7798 15.526 25.3169 15.9194L25.3787 15.9657C25.6767 15.2862 26.1103 14.6745 26.6531 14.1681C26.7722 14.047 26.935 13.9788 27.105 13.9788C27.2749 13.9788 27.4378 14.047 27.5569 14.1681C27.8062 14.4205 27.8062 14.8261 27.5569 15.0785C26.53 16.0836 26.0352 17.512 26.2206 18.936C28.8391 17.6553 30.5307 16.2898 30.7547 15.4642C30.7965 15.3015 30.9014 15.162 31.0463 15.0766C31.1912 14.9912 31.3642 14.9669 31.5271 15.0091C31.8638 15.0997 32.0662 15.4424 31.9828 15.7806C31.0791 19.1443 22.3044 22.0066 19.2071 22.6624C17.0556 23.1993 15.0403 24.1795 13.2904 25.5401C12.6585 26.8348 13.0534 28.3959 14.225 29.2356C16.7199 31.1721 23.0923 29.2356 23.0923 29.2356C23.3573 29.1326 23.634 29.0253 23.9211 28.9139L23.9274 28.9114L23.9275 28.9114C25.531 28.2896 27.4596 27.5416 29.4879 26.7051L29.4415 26.8131ZM40.0931 11.7919C40.3143 11.5155 40.7166 11.4674 40.9969 11.6839C41.1311 11.7875 41.2182 11.9405 41.2385 12.1087C41.2588 12.277 41.2107 12.4463 41.105 12.5788C40.2708 13.6589 39.9464 14.6002 40.1395 15.3948C40.4441 16.2414 41.0961 16.9179 41.9315 17.2541C42.6727 16.7665 43.2637 16.0827 43.6385 15.2791C43.7679 14.9481 44.14 14.7829 44.4727 14.9088C44.6313 14.9691 44.7591 15.0904 44.8273 15.2456C44.8955 15.4008 44.8986 15.5768 44.8358 15.7343C44.238 16.9768 43.2834 18.0135 42.0937 18.7123L42.089 18.7158C40.8472 19.648 39.6755 20.5275 39.2589 22.2921C39.1907 22.5819 38.9314 22.7866 38.6333 22.7858H38.4865C38.3204 22.7473 38.1764 22.6443 38.0866 22.4995C37.9967 22.3547 37.9683 22.1801 38.0076 22.0143C38.4281 20.4164 39.4201 19.0276 40.796 18.1105C39.8563 17.6017 39.1605 16.7372 38.865 15.7111C38.6024 14.5076 39.004 13.196 40.0931 11.7919ZM27.1784 10.1717C28.4065 9.09162 29.5111 9.46965 31.2181 10.1717C32.1411 10.6196 33.1442 10.8792 34.1687 10.9355C35.4278 10.9355 36.764 10.3415 38.0849 8.37411C38.2831 8.07964 38.2073 7.68071 37.9149 7.47917C37.6173 7.2871 37.2207 7.36563 37.0189 7.65662C35.9684 9.22277 35.0261 9.65481 34.0451 9.65481C34.1482 8.65011 33.842 7.64626 33.1955 6.86968C32.461 6.12955 31.458 5.71769 30.4148 5.72785C30.0608 5.71892 29.7635 5.99198 29.7428 6.34506C29.7297 6.69591 30.0019 6.99187 30.353 7.00855C31.0557 6.98674 31.7377 7.24808 32.2454 7.73377C32.6256 8.20043 32.8183 8.79171 32.7861 9.3925C32.5091 9.29817 32.2269 9.18334 31.9354 9.06472C31.8693 9.03781 31.8027 9.01071 31.7356 8.9836L31.7101 8.9732C30.0484 8.29695 28.2115 7.5494 26.3287 9.20734C26.0621 9.44169 26.0362 9.84755 26.2708 10.1139C26.5054 10.3802 26.9118 10.4061 27.1784 10.1717ZM18.3265 27.3223C18.2095 27.4322 18.0546 27.493 17.894 27.492C17.6267 27.4947 17.3858 27.3314 17.2896 27.0824C17.1933 26.8334 17.2618 26.5508 17.4614 26.3733C19.3461 24.6529 22.5053 24.0588 25.8498 23.4339C27.9133 23.1024 29.9426 22.586 31.9133 21.8909C31.4015 20.2384 32.028 18.4457 33.4581 17.4702C33.433 17.4369 33.4123 17.4006 33.3963 17.3622C32.9791 16.4508 32.9512 15.4091 33.3191 14.4767C33.7443 13.6083 34.5059 12.9507 35.4278 12.656C35.7605 12.5324 36.1305 12.7017 36.2542 13.034C36.378 13.3664 36.2085 13.736 35.8758 13.8595C35.2557 14.0426 34.7405 14.4762 34.4545 15.0554C34.2289 15.6747 34.2623 16.3587 34.5472 16.9533C34.5735 17.0171 34.5892 17.0849 34.5936 17.1538C34.8972 17.1995 35.205 17.1027 35.4278 16.8915C35.5468 16.7704 35.7097 16.7022 35.8796 16.7022C36.0496 16.7022 36.2124 16.7704 36.3315 16.8915C36.5799 17.1413 36.5799 17.5445 36.3315 17.7942C35.9091 18.241 35.3167 18.4878 34.7017 18.4731H34.3541C33.3088 19.076 32.7867 20.2951 33.0719 21.4666C33.5349 21.2059 33.9698 20.8983 34.3696 20.5485C34.4996 20.4389 34.6679 20.3855 34.8374 20.4C35.0069 20.4145 35.1637 20.4956 35.2733 20.6256C35.4955 20.8995 35.4577 21.3006 35.1883 21.5283C32.9329 23.4108 29.4493 24.0665 26.0816 24.6915C22.9301 25.2855 19.9486 25.8564 18.3265 27.3223ZM25.1778 29.8914C26.4523 29.3899 27.889 28.819 29.3798 28.2172C29.6534 28.6802 29.966 29.119 30.3144 29.5288C29.536 30.0447 28.6951 30.4595 27.8118 30.7632C26.949 30.4286 26.0699 30.1376 25.1778 29.8914ZM31.9828 27.168L30.5847 27.7312C30.89 28.2253 31.2502 28.6834 31.6584 29.0968C31.7041 29.1244 31.7435 29.1611 31.7742 29.2048C33.253 30.5971 35.1571 31.4529 37.1811 31.635C38.726 31.4576 41.1745 30.9638 42.8043 29.5519C44.9902 27.654 44.4727 26.2962 43.6694 25.4938C41.2131 25.4012 36.2156 25.4321 31.9828 27.168ZM31.3262 33.2937C30.8249 32.5718 30.1809 31.96 29.4338 31.4961C30.0524 31.2485 30.6536 30.9598 31.2336 30.632C32.5162 31.8259 34.0861 32.6684 35.7908 33.0777C35.7831 35.778 37.1425 42.2046 37.1425 42.2046H34.3696C33.7741 40.8756 33.4351 39.4492 33.1094 38.079C32.6789 36.2676 32.2717 34.5544 31.3262 33.2937Z" fill="#B2D3A4"/>
</svg>
