<svg width="60" height="38" viewBox="0 0 60 38" fill="none" xmlns="http://www.w3.org/2000/svg">
<path opacity="0.5" d="M32.4566 37.6413C32.4566 37.6413 28.1441 37.7101 26.6553 37.6413C25.1665 37.5725 24.825 37.9141 24.4834 36.5478C24.1418 35.1815 23.9711 28.6916 23.8003 25.4466C23.6295 22.2016 21.4093 18.1028 20.3845 14.0039C19.3597 9.90499 20.043 6.31849 21.58 5.29379C24.0835 3.91433 26.9234 3.26352 29.7778 3.41509C33.0228 3.58589 36.9509 4.43989 37.9756 6.31849C39.0003 8.19709 38.1464 12.296 36.7801 16.2241C35.4138 20.1522 34.3891 23.568 34.3891 26.9837C34.3891 30.3994 34.5598 34.3275 34.2183 35.6938C33.8768 37.0601 34.4522 37.1978 32.4566 37.6413Z" fill="#9FBD93"/>
<path d="M15.3343 17.4267C15.3965 19.5666 12.9756 21.3068 10.1195 21.2287C7.08187 21.1456 4.94617 19.573 4.94617 17.5306C4.94617 15.4882 7.26237 13.8325 10.1195 13.8325C12.9766 13.8325 15.2672 15.1212 15.3343 17.4267Z" fill="#9FBD93"/>
<path d="M43.9837 17.637C43.9215 15.4971 46.3424 13.7569 49.1985 13.835C52.2361 13.9181 54.3717 15.4907 54.3717 17.5331C54.3717 19.5755 52.0556 21.2312 49.1985 21.2312C46.3414 21.2312 44.0507 19.9425 43.9837 17.637Z" fill="#9FBD93"/>
<path d="M54.297 0.577368C50.6041 -0.569232 46.5561 1.07597 43.9021 2.57177C41.2481 4.06757 39.175 5.06357 35.2212 7.00387C34.4543 7.38433 33.5923 7.5304 32.7429 7.42383C31.8935 7.31726 31.0943 6.96278 30.4451 6.40467C30.4451 6.40467 26.6 8.33357 23.8908 7.00387C19.9369 5.06357 17.8639 4.06767 15.2098 2.57177C12.5557 1.07587 8.50778 -0.569232 4.81488 0.577368C0.889083 1.79617 -0.0755072 5.01007 0.00449279 8.05667C0.115083 12.2672 2.21608 13.5968 3.37728 14.9265C3.89208 15.516 4.71698 15.9593 4.78038 16.9487C4.88398 18.5693 5.58898 18.8601 5.58898 18.8601C5.33602 18.4789 5.20579 18.0294 5.21578 17.572C5.2271 17.1518 5.28271 16.734 5.38168 16.3255C5.56778 16.6558 5.72056 17.0037 5.83778 17.3643C6.04518 18.0291 6.25249 19.1925 6.25249 19.1925C6.25249 19.1925 6.12808 18.0291 6.04518 17.4058C5.99214 16.9491 6.00608 16.4872 6.08658 16.0346C6.32749 16.2656 6.54938 16.5157 6.75008 16.7825C7.12338 17.2812 7.57949 18.0291 7.57949 18.0291C7.57949 18.0291 7.21698 17.1289 7.12338 16.8241C7.03128 16.5557 6.97548 16.2762 6.95749 15.9931C7.18229 16.086 7.39193 16.2121 7.57949 16.367C8.03568 16.741 8.74068 17.3643 8.74068 17.3643C8.74068 17.3643 8.24298 16.6579 7.99418 16.2839C7.81961 15.997 7.68037 15.6901 7.57949 15.3698C7.84986 15.4261 8.11384 15.5096 8.36738 15.6191C8.76858 15.82 9.40418 16.2008 9.40418 16.2008C9.40418 16.2008 9.08208 15.814 8.84428 15.4737C8.73115 15.2841 8.6407 15.0819 8.57478 14.8712C8.84761 14.8934 9.11436 14.9637 9.36268 15.0789C9.69438 15.2659 10.3994 15.7022 10.3994 15.7022C10.0651 15.385 9.75329 15.0448 9.46638 14.6842C9.33269 14.4675 9.22151 14.2378 9.13458 13.9986C9.34185 13.9752 9.55142 13.9822 9.75668 14.0193C9.98378 14.0648 11.0076 14.2617 11.0076 14.2617C10.5265 13.8059 9.93623 13.4816 9.29358 13.3198C6.82208 12.6124 6.19718 12.8212 4.37249 11.1591C3.69019 10.3833 3.20363 9.45533 2.95354 8.45291C2.70345 7.45049 2.69709 6.40275 2.935 5.39737C3.4439 3.81057 5.022 2.07607 8.51951 2.18387C12.1135 2.29477 17.5294 6.40527 19.7991 7.66867C21.7896 8.77677 22.8955 8.49977 25.1625 11.3808C27.0562 13.7874 28.3141 19.8574 28.8117 24.5112C29.3093 29.165 28.1482 30.3284 26.9871 30.827C25.826 31.3256 26.1577 30.4946 25.6601 31.4919C25.1625 32.4892 26.6553 37.6415 26.6553 37.6415L29.4752 37.8077L32.4566 37.6415C32.4566 37.6415 33.9495 32.4891 33.4518 31.4919C32.9541 30.4947 33.286 31.3256 32.1248 30.827C30.9636 30.3284 29.8025 29.165 30.3002 24.5112C30.7979 19.8574 32.0556 13.7874 33.9495 11.3808C36.2164 8.49977 37.3222 8.77677 39.3128 7.66867C41.5824 6.40527 46.9984 2.29477 50.5924 2.18387C54.0899 2.07607 55.6679 3.81057 56.1769 5.39737C56.4202 6.40246 56.4165 7.45152 56.1661 8.45488C55.9158 9.45824 55.4262 10.3861 54.7393 11.1591C52.1821 13.4258 51.7397 12.3365 49.5419 13.5415C48.4925 14.1167 48.5466 14.2063 48.5466 14.2063C48.5466 14.2063 49.128 14.0648 49.3553 14.0193C49.5605 13.9822 49.7701 13.9752 49.9773 13.9986C49.8904 14.2378 49.7792 14.4675 49.6455 14.6842C49.3586 15.0448 49.0468 15.3849 48.7125 15.7022C48.7125 15.7022 49.4175 15.2659 49.7492 15.0789C49.9975 14.9637 50.2643 14.8934 50.5371 14.8712C50.4712 15.0819 50.3807 15.2841 50.2676 15.4737C50.0297 15.814 49.7077 16.2008 49.7077 16.2008C49.7077 16.2008 50.3432 15.82 50.7445 15.6191C50.9981 15.5096 51.262 15.4261 51.5324 15.3698C51.4315 15.6901 51.2923 15.997 51.1177 16.2839C50.8689 16.6579 50.3713 17.3643 50.3713 17.3643C50.3713 17.3643 51.0762 16.741 51.5324 16.367C51.72 16.2121 51.9296 16.086 52.1544 15.9931C52.1364 16.2762 52.0807 16.5557 51.9886 16.8241C51.8949 17.1289 51.5324 18.0291 51.5324 18.0291C51.5324 18.0291 51.9886 17.2812 52.3618 16.7825C52.5625 16.5158 52.7844 16.2657 53.0253 16.0346C53.1058 16.4872 53.1198 16.9491 53.0668 17.4058C52.9838 18.0291 52.8594 19.1925 52.8594 19.1925C52.8594 19.1925 53.0668 18.0291 53.2741 17.3643C53.3913 17.0037 53.5442 16.6557 53.7303 16.3255C53.8292 16.734 53.8848 17.1518 53.8961 17.572C53.8982 18.1135 53.8214 18.6524 53.6681 19.1718C54.1185 18.5194 54.3508 17.7412 54.3316 16.9487C54.3948 15.9593 55.2197 15.516 55.7345 14.9265C56.8957 13.5968 58.9968 12.2672 59.1074 8.05667C59.1874 5.01007 58.2227 1.79617 54.297 0.577368Z" fill="#9FBD93"/>
</svg>
