<svg width="27" height="27" viewBox="0 0 27 27" fill="none" xmlns="http://www.w3.org/2000/svg">
<path d="M26.3864 0H20.25C19.9108 0 19.6364 0.274468 19.6364 0.613656C19.6364 0.952844 19.9108 1.22725 20.25 1.22725H24.905L17.3503 8.78201C15.5069 7.14204 13.0875 6.13639 10.4318 6.13639C4.67959 6.13639 0 10.8159 0 16.5682C0 22.3205 4.67959 27 10.4318 27C16.184 27 20.8637 22.3205 20.8637 16.5682C20.8637 13.9125 19.858 11.4932 18.2181 9.64971L25.7727 2.09501V6.75004C25.7727 7.08923 26.0472 7.3637 26.3864 7.3637C26.7256 7.3637 27.0001 7.08923 27.0001 6.75004V0.613656C27 0.274468 26.7256 0 26.3864 0ZM19.6364 16.5682C19.6364 21.6439 15.5075 25.7727 10.4318 25.7727C5.35613 25.7727 1.22725 21.6439 1.22725 16.5682C1.22725 11.4925 5.35613 7.36364 10.4318 7.36364C15.5075 7.36364 19.6364 11.4925 19.6364 16.5682Z" fill="#212121"/>
<line x1="17.7071" y1="3" x2="24" y2="9.29289" stroke="black" stroke-linecap="round" stroke-linejoin="bevel"/>
<circle cx="10.2272" cy="16.7727" r="4.50001" fill="#30BC55"/>
</svg>
