<svg width="16" height="16" viewBox="0 0 16 16" fill="none" xmlns="http://www.w3.org/2000/svg">
<path d="M7.8689 0.704163C7.59275 0.704163 7.3689 0.92802 7.3689 1.20416C7.3689 1.4803 7.59275 1.70416 7.8689 1.70416V0.704163ZM7.8689 14.7042C7.59275 14.7042 7.3689 14.928 7.3689 15.2042C7.3689 15.4803 7.59275 15.7042 7.8689 15.7042V14.7042ZM7.8689 1.70416C8.14504 1.70416 8.3689 1.4803 8.3689 1.20416C8.3689 0.92802 8.14504 0.704163 7.8689 0.704163V1.70416ZM7.8689 15.7042C8.14504 15.7042 8.3689 15.4803 8.3689 15.2042C8.3689 14.928 8.14504 14.7042 7.8689 14.7042V15.7042ZM8.3689 1.20416C8.3689 0.92802 8.14504 0.704163 7.8689 0.704163C7.59276 0.704163 7.3689 0.92802 7.3689 1.20416H8.3689ZM7.3689 15.2042C7.3689 15.4803 7.59276 15.7042 7.8689 15.7042C8.14504 15.7042 8.3689 15.4803 8.3689 15.2042H7.3689ZM7.8689 1.70416H13.3133V0.704163H7.8689V1.70416ZM13.3133 1.70416C13.8963 1.70416 14.3689 2.17675 14.3689 2.75972H15.3689C15.3689 1.62447 14.4486 0.704163 13.3133 0.704163V1.70416ZM14.3689 2.75972V13.6486H15.3689V2.75972H14.3689ZM14.3689 13.6486C14.3689 14.2316 13.8963 14.7042 13.3133 14.7042V15.7042C14.4486 15.7042 15.3689 14.7839 15.3689 13.6486H14.3689ZM13.3133 14.7042H7.8689V15.7042H13.3133V14.7042ZM7.8689 0.704163H2.42445V1.70416H7.8689V0.704163ZM2.42445 0.704163C1.2892 0.704163 0.368896 1.62447 0.368896 2.75972H1.3689C1.3689 2.17675 1.84148 1.70416 2.42445 1.70416V0.704163ZM0.368896 2.75972V13.6486H1.3689V2.75972H0.368896ZM0.368896 13.6486C0.368896 14.7839 1.2892 15.7042 2.42445 15.7042V14.7042C1.84148 14.7042 1.3689 14.2316 1.3689 13.6486H0.368896ZM2.42445 15.7042H7.8689V14.7042H2.42445V15.7042ZM7.3689 1.20416V15.2042H8.3689V1.20416H7.3689Z" fill="#242A30"/>
</svg>
