<svg width="37" height="42" viewBox="0 0 37 42" fill="none" xmlns="http://www.w3.org/2000/svg">
<path fill-rule="evenodd" clip-rule="evenodd" d="M6.96783 5.27318C7.28898 6.77432 7.68861 8.25764 8.16507 9.71705L8.80617 9.80191L8.92204 9.71705C9.14604 6.73904 10.6909 2.97409 16.1904 0.420408C15.2976 -0.0147458 14.2782 -0.116016 13.3171 0.134951C13.1169 0.204323 12.8993 0.204323 12.6991 0.134951C11.3018 0.887705 9.95497 1.73042 8.66714 2.65777C7.94809 3.4206 7.37247 4.30655 6.96783 5.27318ZM24.4476 1.97885L24.7874 2.44947C24.9086 2.61135 24.9378 2.82419 24.8647 3.01267C24.7844 3.20708 24.6282 3.36034 24.4321 3.43699C23.0958 3.90761 19.5813 5.56635 19.3573 7.5414C19.087 9.90221 22.2384 10.45 22.7791 10.5271C24.6914 10.3131 26.6246 10.3781 28.5182 10.72C28.5182 8.7681 28.6649 6.22984 30.3333 4.91828L29.5609 3.98476C28.6258 4.40415 27.7731 4.98676 27.0429 5.70522C26.86 5.93811 26.5599 6.04602 26.2704 5.98296C25.9966 5.92099 25.7977 5.68442 25.7838 5.40433C25.7389 4.20038 26.0476 3.00961 26.6721 1.97885L25.8302 1.12248L24.4476 1.97885ZM2.68866 24.6071C1.12838 21.7602 -0.92624 16.9538 0.45638 14.4541C1.27819 12.9766 2.63532 11.8695 4.24893 11.3604C5.27215 11.027 6.34946 10.8909 7.42355 10.9592C4.44214 13.8349 2.73705 17.7828 2.68866 21.9223C2.64231 22.7941 2.64231 23.6967 2.68866 24.6071ZM32.7355 14.0683C30.7273 12.2939 27.9157 11.5301 24.1695 11.6998C25.5071 13.259 26.3867 15.1575 26.7107 17.1852C26.8111 17.5941 27.6917 20.873 30.202 21.5905C31.5953 21.9496 33.0461 21.2608 33.647 19.9549C33.8301 19.6288 34.2315 19.4951 34.5739 19.6463C34.7331 19.7137 34.8556 19.8462 34.9103 20.0101C34.965 20.1739 34.9466 20.3534 34.8597 20.5027C34.3838 21.3863 33.6477 22.1027 32.751 22.5549C34.4117 24.0516 34.4117 26.9833 34.404 27.1454C34.3951 27.4372 34.1984 27.6899 33.9173 27.7703C33.8509 27.782 33.783 27.782 33.7165 27.7703C33.5426 27.783 33.3709 27.7243 33.2412 27.6079C33.1115 27.4914 33.0349 27.3272 33.0291 27.1531C33.0291 27.1145 33.0291 23.1952 30.5882 22.9484C28.9315 22.7417 27.4633 21.782 26.6103 20.3484C26.5408 20.7573 26.4558 21.1893 26.3631 21.66L26.3487 21.7292C26.237 22.2647 26.1179 22.8357 25.9847 23.4421C24.8106 28.997 23.0727 37.3292 26.5794 41.1868C28.0562 41.2553 29.5331 41.0513 30.9358 40.585C34.3808 39.5512 36.2423 36.7275 36.474 32.4302C36.8834 24.8848 36.8911 17.7407 32.7355 14.0683ZM24.772 41.1713C22.5775 40.9796 20.4085 40.5633 18.2991 39.9292C3.72171 35.7168 3.91841 26.2886 4.00663 22.0598C4.0076 22.0133 4.00856 21.9675 4.00948 21.9223C4.27983 14.022 9.66355 10.7277 9.88755 10.5966C10.0879 10.4836 10.2183 10.278 10.2351 10.0488C10.4823 4.60197 15.1168 1.94027 18.9789 0.659575C19.7513 0.412693 20.5237 0.204387 21.2961 0.0269406L23.1499 2.54205C21.5587 3.22869 18.2605 4.94914 17.9747 7.44111C17.6426 10.2957 20.57 11.4761 22.3543 11.7461C23.0186 12.3633 25.9074 15.4493 25.3358 19.6077C25.2586 20.1247 25.1504 20.7187 25.0191 21.3822C24.1173 22.4921 22.9975 23.4059 21.7287 24.067L20.879 24.5994C15.0164 27.5157 13.487 27.0296 13.1549 26.8059C12.8355 26.6233 12.4314 26.6911 12.1893 26.9679C12.0794 27.1008 12.031 27.274 12.056 27.4445C12.081 27.6151 12.1772 27.7671 12.3207 27.8629C12.676 28.1097 13.5411 28.6884 16.4453 27.8243C15.1327 28.7288 13.707 29.4576 12.2048 29.9922C11.8678 30.103 11.6845 30.4657 11.7954 30.8023C11.9063 31.1389 12.2694 31.322 12.6064 31.2112C14.3435 30.5862 15.9882 29.7298 17.4958 28.6652C17.2861 29.7234 17.377 30.8192 17.7584 31.8284C17.9085 32.1426 18.2721 32.2925 18.6004 32.1756H18.6467C18.8126 32.1165 18.9478 31.9933 19.0218 31.8337C19.0959 31.6742 19.1027 31.4915 19.0407 31.3269C18.5379 30.0147 18.7325 28.5375 19.5582 27.4C19.7059 27.2122 19.8686 27.0367 20.0448 26.8753L21.636 25.6795L22.4625 25.1626C23.1779 24.732 23.8714 24.266 24.5402 23.7662C23.3971 29.1513 21.8909 36.7506 24.772 41.1713Z" fill="url(#paint0_linear)"/>
<defs>
<linearGradient id="paint0_linear" x1="-17.5657" y1="19.7477" x2="21.6605" y2="54.6397" gradientUnits="userSpaceOnUse">
<stop stop-color="#00B859"/>
<stop offset="1" stop-color="#06E924"/>
</linearGradient>
</defs>
</svg>
