<svg width="87" height="76" viewBox="0 0 87 76" fill="none" xmlns="http://www.w3.org/2000/svg">
<path fill-rule="evenodd" clip-rule="evenodd" d="M68.3817 33.1938C67.5826 33.1718 66.8037 33.4467 66.1958 33.9653C66.1122 33.8994 65.8331 33.8385 65.577 33.7826C65.3834 33.7403 65.203 33.701 65.1299 33.6644C65.1966 33.4894 65.0764 33.3077 64.9516 33.1191C64.8454 32.9586 64.7359 32.7932 64.7359 32.6229V32.1291C64.7359 31.0413 64.7359 30.0769 63.8091 29.56C63.8411 29.4746 63.9323 29.3893 64.0243 29.3031C64.1318 29.2025 64.2404 29.1008 64.257 28.9968C64.752 29.1765 65.2753 29.2654 65.8019 29.2591C65.9359 29.2591 65.9834 29.2591 66.0286 29.2489C66.0535 29.2433 66.0776 29.2345 66.115 29.221C66.1429 29.2109 66.1782 29.1981 66.2267 29.182C66.5666 30.2621 68.6289 31.1493 68.6289 31.1493C74.0358 31.1493 74.0358 25.2319 68.6289 25.2319H68.8452C68.8038 24.1721 68.2204 23.2077 67.3004 22.6782C70.1506 21.3126 69.7412 16.105 65.8791 16.105C62.0171 16.105 61.569 21.3126 64.4115 22.6782C63.4102 23.2016 62.746 24.1997 62.6504 25.3245C62.2829 25.1424 61.8849 25.0299 61.4764 24.9927C61.3922 24.4668 61.1621 23.975 60.8121 23.5732C60.7494 23.4059 60.6745 23.2435 60.5881 23.0871C60.5465 23.0055 60.4974 22.928 60.4413 22.8557C60.3068 22.5936 60.1322 22.3541 59.9238 22.1459C59.3675 21.5933 58.6151 21.2827 57.8306 21.2818H57.5062C57.4284 20.9178 57.2983 20.567 57.1199 20.2402C56.8223 19.7425 56.4056 19.3263 55.9073 19.029C55.45 18.7616 54.9373 18.6032 54.4088 18.5661C54.1912 18.319 53.9292 18.1149 53.6364 17.9643C53.4251 17.857 53.2192 17.7408 53.0127 17.6242C52.7888 17.4978 52.5641 17.3709 52.331 17.2545C51.5082 16.83 50.5996 16.5979 49.6739 16.5756C48.04 16.5436 46.6896 17.8407 46.6576 19.4726C46.6256 21.1045 47.9242 22.4534 49.558 22.4853C49.7098 22.566 49.8603 22.6493 50.0105 22.7326C50.2195 22.8484 50.4282 22.9639 50.6394 23.0717C51.0266 23.2704 51.4491 23.391 51.883 23.4266C51.9968 23.557 52.1208 23.6783 52.2537 23.7892C52.3326 23.8967 52.4205 23.9974 52.5164 24.0901C53.0705 24.6469 53.8236 24.9605 54.6096 24.9619C54.7228 24.9691 54.8363 24.9691 54.9495 24.9619C55.014 25.2909 55.1342 25.6066 55.3048 25.8954C55.3445 25.978 55.3938 26.0556 55.4515 26.1268C55.5059 26.2315 55.5679 26.3321 55.6369 26.4277C55.6515 26.5482 55.6774 26.667 55.7142 26.7826C55.1603 27.068 54.7233 27.5372 54.4783 28.1096C53.9114 27.4063 53.0646 26.9862 52.161 26.9601C51.3751 26.9614 50.6219 27.2751 50.0678 27.8319C49.9101 27.9863 49.7726 28.16 49.6584 28.3488C49.1118 27.2459 47.9614 26.5729 46.731 26.636C46.1379 26.6251 45.5523 26.7687 45.0317 27.0526C44.4332 26.1302 43.3888 25.5954 42.2896 25.6485C41.55 25.6272 40.8252 25.8586 40.235 26.3043C39.6755 25.2443 38.5522 24.6036 37.3539 24.661C35.8365 24.6032 34.4917 25.6293 34.1484 27.1066C33.5297 26.575 32.7314 26.2991 31.9161 26.3351C30.6829 26.2858 29.5349 26.9617 28.9809 28.0633C28.1346 27.1502 26.8513 26.7811 25.6484 27.105C24.4456 27.4288 23.5218 28.3921 23.2496 29.6063C23.1059 29.4294 22.9456 29.2666 22.7707 29.1203C23.5993 28.0777 23.7614 26.6549 23.1885 25.453C22.6156 24.2512 21.4076 23.4799 20.075 23.4651H19.7428C17.8337 23.4985 16.2989 25.0452 16.2824 26.9523C16.4038 28.1099 17.05 29.1478 18.0358 29.7683C17.7141 30.3791 17.5925 31.0753 17.6882 31.7588V32.0906C17.5874 33.0489 17.9252 34.0015 18.6074 34.6828H18.3293C17.4932 34.6344 16.6742 34.9331 16.0662 35.5083C15.7079 35.8839 15.4433 36.3385 15.2937 36.8353C15.2937 36.8702 15.3839 36.9169 15.4884 36.9709C15.638 37.0484 15.8172 37.1411 15.8035 37.2365L15.3401 37.0591C9.93319 37.0591 9.93319 42.9765 15.3401 42.9765C15.3401 42.9765 17.1244 42.0739 17.4488 40.9706C17.7219 41.1499 18.0411 41.2464 18.3679 41.2483C19.5722 41.2286 20.6293 40.4429 20.9942 39.2964C21.317 38.6887 21.4181 37.9877 21.2799 37.3137C21.4968 37.4579 21.7336 37.5696 21.9828 37.6454C22.623 38.3633 23.5385 38.7756 24.5009 38.7795C24.8905 38.7763 25.2768 38.7085 25.6441 38.5789C25.8438 39.8496 26.753 40.8945 27.985 41.2691C29.2169 41.6436 30.5548 41.282 31.4295 40.338C31.9716 41.4468 33.1229 42.1265 34.3569 42.0661C35.0432 42.0808 35.7174 41.8842 36.2879 41.5029C36.816 42.5853 37.8852 43.3012 39.0882 43.3778C40.2913 43.4544 41.4429 42.8799 42.1042 41.8733C42.5339 43.0376 43.5743 43.8682 44.8061 44.03C46.0379 44.1919 47.258 43.6585 47.9746 42.6448C49.3449 43.7746 51.35 43.6812 52.6091 42.4287C53.2444 43.269 54.2429 43.7562 55.2971 43.7403C55.9724 43.7389 56.6355 43.5607 57.2204 43.2234C57.6913 42.9544 58.0953 42.5825 58.4022 42.1356C58.4757 42.2404 58.5584 42.3385 58.6493 42.4287C58.0012 43.1527 57.6702 44.1057 57.7302 45.075C56.4654 45.1559 55.3784 46 54.9881 47.2044C54.4383 46.8661 53.8031 46.6921 53.1575 46.7029C53.0185 46.6952 52.8793 46.6952 52.7404 46.7029C52.261 46.4635 51.7314 46.3418 51.1955 46.348C50.0973 46.3075 49.0576 46.8428 48.4535 47.7598C47.9339 47.4725 47.348 47.3262 46.7542 47.3355C46.0953 47.3225 45.4475 47.5051 44.8926 47.8601C44.2679 47.0813 43.3112 46.6436 42.3128 46.6797C41.6252 46.6638 40.9499 46.8634 40.3817 47.2507C39.8675 46.0619 38.6724 45.3131 37.3771 45.3682C37.0768 45.3682 36.8033 45.3052 36.5517 45.2473L36.5517 45.2473C36.1562 45.1562 35.8147 45.0775 35.5078 45.2756L35.4473 45.2069C34.817 44.4918 33.9305 43.4857 32.9279 43.4857H32.6035C32.2641 43.4857 31.9391 43.773 31.6303 44.0461C31.433 44.2205 31.2423 44.389 31.0587 44.4732C30.603 43.3314 29.5834 42.7605 27.969 42.7605C27.1457 42.7858 26.3611 43.1157 25.7677 43.6863C25.2289 43.4105 24.6265 43.2826 24.022 43.316C23.5465 43.3274 23.0732 43.3842 22.6085 43.4857C21.8778 42.3019 20.5435 41.6281 19.1558 41.7421C15.2937 41.7421 15.2937 48.6471 19.1558 48.6471C19.6264 48.6284 20.0957 48.5846 20.5616 48.5159C20.7973 48.8467 21.081 49.1406 21.4035 49.3877C21.5897 49.9789 21.928 50.511 22.3845 50.9307C22.7067 51.232 23.081 51.4725 23.489 51.6405C24.0732 52.6803 25.193 53.3037 26.3856 53.253H26.5169C26.4217 54.1907 26.7332 55.1242 27.3726 55.8174C28.012 56.5106 28.918 56.8971 29.8615 56.879C30.4699 56.892 31.0705 56.74 31.5994 56.4393C31.9405 57.6028 32.882 58.4929 34.0638 58.7692C35.2456 59.0456 36.4848 58.6654 37.3075 57.774C37.8416 58.8976 38.9988 59.591 40.2427 59.533C40.851 59.5448 41.4513 59.3929 41.9806 59.0933C42.1083 59.7477 42.4283 60.3494 42.8998 60.8214L43.5641 61.4772C45.0111 62.7928 47.2227 62.7928 48.6697 61.4772C49.449 62.2674 50.496 62.738 51.6049 62.7965C56.2394 62.7965 56.2394 55.8915 51.6049 55.8915C50.6384 55.9135 49.7065 56.2554 48.9555 56.8636C48.913 56.8084 48.8283 56.7555 48.7453 56.7037C48.6776 56.6614 48.611 56.6198 48.5693 56.5782L47.851 55.9147C46.694 54.8016 44.9333 54.6024 43.5564 55.4286C43.4483 54.7324 43.1335 54.0847 42.6526 53.5693C43.1632 53.5231 43.6543 53.3508 44.0816 53.0678C44.7087 53.8478 45.6683 54.2856 46.6692 54.2482C47.7683 54.3013 48.8128 53.7665 49.4113 52.8441C49.9318 53.128 50.5175 53.2716 51.1106 53.2607C51.2469 53.2686 51.3836 53.2686 51.5199 53.2607C51.9996 53.4992 52.529 53.6208 53.0648 53.6156C54.4558 53.6605 55.7117 52.7887 56.1544 51.4708C56.7013 51.8092 57.3341 51.9833 57.9773 51.9723C58.9204 51.9886 59.8252 51.5999 60.4619 50.9049C61.0987 50.2099 61.4062 49.2753 61.3064 48.3385C63.0597 48.1791 64.3713 46.6609 64.2725 44.9053C64.6334 45.0132 65.0081 45.0678 65.3848 45.0673C68.2736 45.0673 69.2468 42.1741 68.4358 40.1297C72.8386 39.9985 72.8154 33.1938 68.3817 33.1938ZM42.3746 38.6484C41.9401 37.3213 40.6822 36.4387 39.2849 36.4804C38.5975 36.4655 37.9224 36.6651 37.3539 37.0514C36.851 35.8519 35.6494 35.096 34.3492 35.1612C33.3972 35.1281 32.481 35.5248 31.8543 36.2413C31.3133 35.1267 30.1576 34.4432 28.9191 34.5054C28.5853 34.5069 28.2531 34.551 27.9304 34.6365C27.9255 34.2879 27.8682 33.9421 27.7605 33.6104C28.4631 33.3285 29.0376 32.7986 29.3748 32.1214C30.0093 32.8309 30.9256 33.2235 31.8775 33.1938C33.3977 33.2554 34.7468 32.2285 35.0907 30.7482C35.707 31.2786 36.5025 31.5545 37.3153 31.5197C38.054 31.5349 38.7768 31.3042 39.3699 30.8639C39.6755 31.4416 40.1607 31.9046 40.7525 32.1832C40.3634 33.5078 40.8638 34.9327 41.9961 35.7244C42.3484 36.5102 43.0202 37.1082 43.8422 37.3677C43.2244 37.6204 42.7082 38.0708 42.3746 38.6484ZM57.9928 37.4911C58.094 37.5964 58.1894 37.7072 58.2786 37.8229C58.8501 36.9588 59.83 36.4534 60.8661 36.4882H60.9897C60.8945 36.0358 60.9487 35.5647 61.1442 35.1457C60.1735 34.643 59.5101 33.6981 59.3677 32.6152V32.1214C59.3677 32.0751 59.4546 32.0269 59.5415 31.9787C59.6284 31.9305 59.7153 31.8823 59.7153 31.836C59.5048 31.8066 59.4339 31.7587 59.3355 31.6922C59.2786 31.6538 59.2126 31.6091 59.105 31.5582C58.5695 32.1024 57.8294 32.3964 57.0659 32.3683C56.1847 32.4045 55.3419 32.0066 54.8104 31.3036C54.5743 31.9349 54.2055 32.5084 53.729 32.9855C52.5682 34.1287 50.7034 34.1287 49.5426 32.9855C49.3989 32.8331 49.2696 32.6679 49.1564 32.4918C48.9577 32.7138 48.7258 32.9038 48.4689 33.055C49.6206 33.495 50.3862 34.5931 50.3999 35.8247C50.4007 36.0467 50.3852 36.2684 50.3536 36.4882C51.3517 36.5074 52.281 37.0002 52.8562 37.8151V37.7689C52.9335 37.6763 53.0107 37.5837 53.1034 37.4911C54.4543 36.1442 56.6419 36.1442 57.9928 37.4911Z" fill="#B2D3A4"/>
<path fill-rule="evenodd" clip-rule="evenodd" d="M84.9732 33.541C85.6783 32.3333 85.8676 30.8931 85.4985 29.5446C85.1024 28.2616 84.2545 27.1653 83.1117 26.4586L82.8259 26.2811C85.0378 25.3312 86.4762 23.1628 86.4896 20.7581C86.503 18.3533 85.0888 16.169 82.8877 15.1946C83.3997 13.0155 82.4405 10.7562 80.5164 9.60889C80.7251 9.46008 80.9238 9.29771 81.1112 9.12284C83.1131 7.08288 83.1131 3.81807 81.1112 1.77811L80.8331 1.50037C78.7881 -0.500123 75.517 -0.500123 73.472 1.50037C73.1129 1.8743 72.8133 2.30101 72.5837 2.76564C71.2864 1.34662 69.3049 0.76921 67.4472 1.26892C65.6041 1.81595 64.1971 3.3096 63.7628 5.18045L63.6855 5.11873C62.4949 4.42123 61.0753 4.22609 59.7403 4.57645C58.4054 4.9268 57.2651 5.7938 56.5716 6.98577C56.5252 7.06292 56.4944 7.16322 56.448 7.24808C55.067 6.72205 53.5252 6.82252 52.2243 7.52329C50.9235 8.22407 49.9925 9.45574 49.6739 10.8973C48.9175 10.4688 48.0641 10.2405 47.1945 10.2338C45.4314 10.2537 43.7944 11.1508 42.8303 12.6255C42.155 11.8298 41.2564 11.2547 40.2505 10.9745C37.9957 10.4218 35.6371 11.3493 34.3647 13.289C33.6867 12.4396 32.7607 11.8221 31.7153 11.5222C29.8538 11.0915 27.9002 11.625 26.517 12.9418C25.2244 10.8568 22.6367 9.97478 20.3377 10.8356C19.6966 8.86824 18.7156 7.07064 16.8309 5.99824C13.4941 4.08491 9.55476 5.89023 7.69325 8.92225C6.34925 11.121 6.21794 13.7364 6.496 16.213C6.29153 16.2886 6.09276 16.3789 5.90125 16.483C4.30304 17.4065 3.32178 19.1136 3.32911 20.9577C3.41776 22.1417 3.71316 23.301 4.20194 24.3832C1.83835 24.7613 4.43165e-06 27.2532 4.43165e-06 29.5523C-0.0029946 31.8205 1.51643 33.8093 3.70759 34.4051C1.94383 35.3797 0.836184 37.2217 0.803315 39.2347C0.835985 41.3999 2.14436 43.342 4.14014 44.1878C2.37282 45.4437 1.58227 47.6706 2.16276 49.758C2.75784 51.7479 4.44254 53.2206 6.496 53.5461C4.62676 55.0506 4.31007 58.1752 5.46097 60.1425C6.39441 61.8113 8.2193 62.78 10.1263 62.619C9.88155 63.8647 10.0839 65.1567 10.6979 66.2682C11.3847 67.4283 12.4904 68.2814 13.7876 68.6522C15.1415 69.0017 16.5783 68.8137 17.7964 68.1276C19.3885 67.4416 20.8656 66.5152 22.176 65.381C24.1871 63.3418 24.1871 60.0678 22.176 58.0286C21.5361 57.3891 20.7357 56.9334 19.8588 56.7093C20.6404 55.1761 20.5791 53.3495 19.6966 51.872C19.1231 50.9355 18.273 50.1996 17.2635 49.7657C17.8744 48.5765 18.0388 47.2081 17.7269 45.9082C17.3217 44.3484 16.162 43.0944 14.6372 42.5676C16.8232 41.1789 17.333 37.9386 16.0817 35.8015C15.779 35.3019 15.3953 34.8561 14.9462 34.4822C16.5319 33.7422 17.6295 32.2446 17.8564 30.5111C18.0833 28.7777 17.4081 27.0486 16.0662 25.9262C16.6249 25.5108 17.0928 24.9857 17.4411 24.3832C17.8014 23.737 18.0199 23.0217 18.0822 22.2847C18.2135 22.2461 18.3294 22.1844 18.4607 22.1381C18.8494 22.5432 19.285 22.9006 19.7583 23.2028C21.6286 24.2998 23.9871 24.1053 25.6519 22.7168C25.7832 23.0871 25.9222 23.4883 26.0921 23.8277C27.2585 26.4123 30.9583 27.0141 33.2061 25.6948C34.2317 25.0821 35.0166 24.1374 35.4306 23.0177C37.0913 25.1161 39.8257 26.0342 42.3051 24.5607C43.2956 23.944 44.0597 23.0238 44.4833 21.9375C44.5297 21.9916 44.5528 22.0378 44.5992 22.0841C46.6364 24.0961 49.9153 24.0961 51.9526 22.0841C52.4537 21.585 52.8433 20.9855 53.0957 20.3251C53.1311 20.3566 53.1646 20.3901 53.1961 20.4254C55.3821 22.2307 58.4099 22.5625 60.5572 20.4254C61.1396 19.8199 61.564 19.0807 61.7931 18.2729C62.3471 18.5002 62.9399 18.6181 63.5388 18.6201C64.9206 18.6127 66.243 18.0577 67.2155 17.0771C67.6177 16.6633 67.9491 16.1863 68.1964 15.6652C69.7023 16.6961 71.6252 16.9047 73.3175 16.2207C72.6526 16.918 72.1652 17.7647 71.8963 18.6895C71.4679 20.272 71.6875 21.9597 72.5065 23.3803C72.8199 23.897 73.2106 24.3627 73.6651 24.7613C72.4805 25.4207 71.618 26.5359 71.2784 27.8473C70.9335 29.2364 71.15 30.7053 71.8808 31.9363C71.765 32.0983 71.6337 32.2526 71.5332 32.4223C70.8252 33.6318 70.6359 35.0755 71.008 36.4264C71.0891 36.6918 71.1925 36.9499 71.317 37.1979C68.9772 38.414 67.9679 41.2232 68.9997 43.6477C67.1613 44.6598 66.1569 46.7157 66.4894 48.7859C64.5677 49.2521 63.028 50.6847 62.4265 52.5663C62.099 53.6955 62.1951 54.9052 62.6968 55.9686C61.6056 55.8579 60.5065 56.0812 59.5454 56.609C58.5815 57.1823 57.8285 58.0508 57.3981 59.0855C56.1435 58.8354 54.8407 59.0377 53.7214 59.6564C53.327 59.893 52.966 60.181 52.6477 60.5128C51.4783 59.9217 50.1357 59.7684 48.8629 60.0808C48.7779 60.0808 48.7084 60.1502 48.6312 60.1734C47.9316 59.8082 47.1492 59.6301 46.3603 59.6564C43.2706 59.7953 39.9415 60.8368 38.3581 63.7609C37.0513 66.2824 37.1716 69.3052 38.6748 71.7151C39.7484 73.5358 41.8185 75.4646 44.0044 75.7732C45.7423 76.0124 47.5189 76.0432 49.0406 75.0017C49.141 74.9323 49.2182 74.8551 49.3109 74.7857C49.7899 74.9425 50.2899 75.0258 50.7939 75.0325C52.3193 75.015 53.7609 74.3331 54.741 73.1655C55.0759 73.5779 55.4813 73.9279 55.9382 74.1993C57.1503 74.9031 58.5943 75.0921 59.947 74.7239C61.8225 74.1234 63.254 72.5974 63.7319 70.689C64.4381 71.0909 65.2363 71.3035 66.0491 71.3062C67.431 71.2988 68.7534 70.7438 69.7258 69.7632C71.2648 68.1179 71.6555 65.7067 70.7145 63.6606C72.7264 64.5393 75.0695 64.129 76.6621 62.619C78.1957 61.0985 78.5873 58.7703 77.6353 56.8327C79.1802 56.5773 80.5383 55.6654 81.3584 54.3331C82.3645 52.6319 82.2768 50.4992 81.1343 48.8862C81.6744 48.4866 82.1288 47.9829 82.4706 47.4049C83.4219 45.7503 83.3833 43.7068 82.3702 42.0893L82.5479 42.0044C83.7384 41.309 84.6034 40.1695 84.9525 38.8368C85.3016 37.5042 85.1063 36.0876 84.4094 34.8988C84.3229 34.764 84.2274 34.6351 84.1236 34.5131C84.4493 34.2287 84.7351 33.9017 84.9732 33.541V33.541Z" fill="#CDECC0"/>
</svg>
