<svg width="71" height="26" viewBox="0 0 71 26" fill="none" xmlns="http://www.w3.org/2000/svg">
<path d="M15.5688 10.997C15.2674 11.8559 15.1956 12.7855 15.4397 13.6625C16.8515 18.7358 14.9375 24.7946 10.7368 25.5809C6.15585 26.4372 1.53541 21.7296 0.30937 15.0865C-0.0533859 13.1146 -0.138957 10.2758 0.280199 7.04459C0.768343 3.28099 3.83652 0.153023 8.36637 0.319856C12.4815 0.471401 15.8427 3.83751 16.0148 7.98074C16.0588 9.04146 15.8979 10.0593 15.5688 10.997V10.997Z" fill="#9FBD93"/>
<path d="M15.5809 10.9969C15.9012 10.0592 16.0578 9.04138 16.0149 7.98075C15.8475 3.83735 12.5764 0.471293 8.57162 0.319745C7.90581 0.294607 7.27306 0.345705 6.67578 0.461649C10.1242 1.15669 12.7869 4.25352 12.9375 7.98075C12.9803 9.04148 13.1611 13.7358 10.0504 15.323C10.6611 17.1182 13.3521 15.427 13.2566 18.2588C13.1339 21.9006 12.0277 24.3278 8.26392 25.4661C9.1199 25.7018 9.99998 25.75 10.8786 25.5812C14.9667 24.7948 16.8294 18.736 15.4554 13.6626C15.2178 12.7854 15.2877 11.8558 15.5809 10.9969V10.9969Z" fill="#9FBD93"/>
<path d="M14.6238 11.1814C14.3693 11.8994 14.288 12.6693 14.4371 13.4105C13.2897 14.4394 11.5231 15.5953 8.93021 16.3095C8.52885 16.4167 8.14093 16.1784 8.03728 15.8061C7.93081 15.422 8.15729 15.0236 8.54327 14.9177C12.2796 13.8888 14.0656 11.8647 14.6868 10.9946C14.6664 11.0572 14.646 11.1198 14.6238 11.1814V11.1814Z" fill="#9FBD93"/>
<path d="M54.4531 10.997C54.7545 11.8559 54.8263 12.7855 54.5822 13.6625C53.1704 18.7358 55.0844 24.7946 59.2851 25.5809C63.866 26.4372 68.4865 21.7296 69.7125 15.0865C70.0753 13.1146 70.1608 10.2758 69.7417 7.04459C69.2535 3.28099 66.1854 0.153023 61.6555 0.319856C57.5404 0.471401 54.1792 3.83751 54.0071 7.98074C53.9631 9.04146 54.124 10.0593 54.4531 10.997V10.997Z" fill="#9FBD93"/>
<path d="M69.755 7.04458C69.29 3.28099 66.3672 0.153118 62.0519 0.319849C61.6581 0.335034 61.2721 0.384181 60.8952 0.461749C64.181 1.11359 66.3477 3.84941 66.7426 7.04458C67.1419 10.2758 67.0604 13.1146 66.7148 15.0865C65.7769 20.4204 62.7545 24.5056 59.3407 25.4658C59.4885 25.5115 59.6393 25.5506 59.7937 25.5809C64.1577 26.4372 68.5593 21.7296 69.7272 15.0865C70.0728 13.1146 70.1543 10.2759 69.755 7.04458Z" fill="#9FBD93"/>
<path d="M61.9845 15.7874C61.8799 16.1725 61.4887 16.4196 61.0833 16.3085C58.4958 15.5772 56.7002 14.3984 55.5187 13.3432C55.6788 12.565 55.5979 11.7539 55.3372 10.9996C55.3362 10.9976 55.3362 10.9966 55.3352 10.9946C56.1124 11.9841 57.9843 13.8823 61.4739 14.8677C61.8634 14.9773 62.0918 15.3898 61.9845 15.7874Z" fill="#9FBD93"/>
</svg>
