<svg width="71" height="50" viewBox="0 0 71 50" fill="none" xmlns="http://www.w3.org/2000/svg">
<path fill-rule="evenodd" clip-rule="evenodd" d="M40.3428 2.74349C40.3428 2.74349 37.6394 0.58327 31.9467 0.714426C26.254 0.845582 25.2035 1.55537 22.6314 1.7251C20.0592 1.89483 10.041 1.9334 4.62639 9.7719C-0.788232 17.6104 -0.927266 29.5147 1.53673 34.244C1.53673 34.244 3.85398 45.4695 1.68349 48.1774C1.68349 48.1774 1.80708 53.3079 15.5869 44.5205C15.5869 44.5205 25.8755 44.7905 30.4714 41.5502C35.0672 38.3099 42.1271 30.1011 42.1271 30.1011C42.1271 30.1011 53.2267 26.5676 54.0377 24.7391C54.8487 22.9106 59.7227 20.2258 60.6727 19.9558C61.6228 19.6857 63.7624 13.7297 65.1373 12.1096C66.5122 10.4894 71.8959 5.89123 69.7718 1.83311C67.6476 -2.22501 59.2206 1.70195 55.8297 1.83311C52.4388 1.96426 45.2322 -0.373396 40.3428 2.74349Z" fill="#CDECC0"/>
</svg>
