<svg width="40" height="55" viewBox="0 0 40 55" fill="none" xmlns="http://www.w3.org/2000/svg">
<path d="M35.3485 20.5074C39.209 16.0728 40.8628 10.2745 39.5623 5.73715C39.2624 4.47311 38.6418 3.3072 37.7603 2.35126C36.8787 1.39533 35.7657 0.681466 34.5281 0.278163C32.1462 -0.452904 29.3074 0.268224 26.5364 2.30989C26.4942 2.34101 26.4541 2.37575 26.4119 2.4076C26.1675 1.8732 25.7399 1.44344 25.2061 1.19575C24.6723 0.948066 24.0673 0.898743 23.5003 1.05667C22.4125 1.3287 21.8891 2.68391 22.0724 3.68628C22.0948 3.81308 22.1217 3.9385 22.1483 4.06458C22.1419 4.04049 22.1434 4.07524 22.1558 4.18217C22.176 4.36424 22.1998 4.54559 22.2349 4.72695C22.3117 5.17478 22.418 5.61707 22.553 6.05096C22.5747 6.11473 22.5988 6.18204 22.6234 6.24929C21.4969 7.74356 20.6118 9.4046 20.0004 11.1721C19.3886 9.40443 18.5034 7.7432 17.3768 6.24864C17.4009 6.18204 17.4251 6.11473 17.4468 6.05096C17.5818 5.61707 17.6881 5.17478 17.7649 4.72695C17.8 4.54559 17.8238 4.36424 17.844 4.18217C17.8565 4.07524 17.8579 4.04049 17.8515 4.06458C17.8781 3.9385 17.9058 3.81308 17.9274 3.68628C18.1107 2.68391 17.5873 1.3287 16.4995 1.05667C15.9325 0.898734 15.3275 0.948054 14.7937 1.19574C14.2599 1.44343 13.8323 1.8732 13.588 2.4076C13.5457 2.37575 13.5056 2.34101 13.4634 2.30989C10.6931 0.268224 7.85715 -0.452904 5.47208 0.278163C4.2344 0.681408 3.12137 1.39525 2.23981 2.3512C1.35825 3.30714 0.737744 4.47309 0.437847 5.73715C-0.862919 10.2752 0.790777 16.0728 4.65127 20.5074C8.42945 24.8471 8.96699 30.6433 8.96946 33.5683C6.83116 34.4843 5.29067 37.0275 5.29067 40.0297C5.29067 43.8027 7.71981 46.8601 10.7169 46.8601C11.2946 46.8581 11.8664 46.743 12.3997 46.5215C12.5867 45.1726 13.2103 43.9216 14.1756 42.9589L13.3022 34.0238C12.5447 33.4926 11.6427 33.205 10.7169 33.1993C10.6526 33.1993 10.5894 33.2092 10.5255 33.212C10.4918 29.9718 9.81332 24.0849 5.81897 19.4959C2.29214 15.4452 0.763438 10.21 1.92401 6.16147C2.15738 5.14621 2.648 4.20769 3.34891 3.4357C4.04983 2.66372 4.93758 2.08411 5.92724 1.75234C7.82698 1.1686 10.1783 1.80689 12.5449 3.55099C12.8336 3.76353 13.1151 3.99233 13.3923 4.22823C13.3029 4.43366 13.2312 4.61647 13.1836 4.75458C13 5.18413 12.9235 5.65169 12.9606 6.1172C12.9978 6.58271 13.1475 7.03229 13.397 7.42742C14.0069 8.31859 15.2655 8.28319 16.1484 7.89923C16.273 7.8425 16.3891 7.76882 16.4935 7.6803C17.3279 8.87111 17.9991 10.1679 18.4891 11.5361C16.7448 12.3189 15.4934 14.4109 15.4934 16.8762C15.4934 20.0087 20.0001 22.5491 20.0001 22.5491C20.0001 22.5491 24.5064 20.0087 24.5064 16.8762C24.5064 14.4109 23.255 12.3189 21.5107 11.5361C22.001 10.1679 22.6722 8.87118 23.5067 7.6803C23.611 7.76874 23.727 7.84241 23.8514 7.89923C24.7343 8.28319 25.9929 8.31859 26.6029 7.42742C26.8523 7.03228 27.002 6.5827 27.0392 6.11719C27.0763 5.65169 26.9998 5.18413 26.8162 4.75458C26.7686 4.61647 26.6969 4.43366 26.6074 4.22895C26.8848 3.99305 27.1663 3.76353 27.4556 3.55099C29.8204 1.80761 32.1717 1.16722 34.0733 1.75234C35.0628 2.08421 35.9504 2.66386 36.6512 3.43583C37.352 4.2078 37.8425 5.14626 38.0759 6.16144C39.2364 10.21 37.7077 15.4451 34.1808 19.4958C30.1865 24.0849 29.5083 29.9717 29.4747 33.212C29.4107 33.2092 29.3479 33.1992 29.2833 33.1992C28.2244 33.2115 27.2019 33.5864 26.387 34.2611L25.537 42.9589C26.4665 43.8871 27.0799 45.0834 27.2905 46.3784C27.908 46.6919 28.5905 46.8569 29.2833 46.8601C32.2804 46.8601 34.7091 43.8027 34.7091 40.0297C34.7091 37.0268 33.1683 34.4828 31.0282 33.5669C31.0282 30.6454 31.5629 24.8556 35.3485 20.5074Z" fill="#9FBD93"/>
<path d="M24.2384 43.8676C24.141 43.7868 24.0648 43.6836 24.0164 43.5668C23.9679 43.45 23.9488 43.3232 23.9605 43.1974L25.742 23.8735C23.9487 24.4858 22.0758 24.8346 20.1819 24.9092V46.3066C20.188 46.4057 20.1738 46.5049 20.14 46.5982C20.1062 46.6915 20.0536 46.7769 19.9855 46.8491C19.9174 46.9214 19.8352 46.979 19.7439 47.0184C19.6526 47.0577 19.5543 47.078 19.4548 47.078C19.3554 47.078 19.257 47.0577 19.1658 47.0184C19.0745 46.979 18.9923 46.9214 18.9242 46.8491C18.856 46.7769 18.8035 46.6915 18.7697 46.5982C18.7359 46.5049 18.7216 46.4057 18.7277 46.3066V24.871C17.0572 24.7003 15.4075 24.3662 13.8025 23.8735L15.7214 43.1974C15.7367 43.3227 15.7205 43.4498 15.6741 43.5672C15.6277 43.6846 15.5527 43.7886 15.4558 43.8697C15.334 43.971 12.442 46.4391 14.8118 50.2319C16.8667 53.5203 18.3155 54.194 19.8528 54.194C21.3901 54.194 22.8361 53.5203 24.8906 50.2319C27.2611 46.4391 24.3634 43.971 24.2384 43.8676Z" fill="#9FBD93"/>
</svg>
