<svg width="29" height="14" viewBox="0 0 29 14" fill="none" xmlns="http://www.w3.org/2000/svg">
<path d="M2.74841 12.3098C3.5339 12.3098 4.17065 11.6731 4.17065 10.8876C4.17065 10.1021 3.5339 9.46533 2.74841 9.46533C1.96293 9.46533 1.32617 10.1021 1.32617 10.8876C1.32617 11.6731 1.96293 12.3098 2.74841 12.3098Z" fill="#9FBD93"/>
<path d="M6.80115 13.2185C7.58663 13.2185 8.22339 12.5818 8.22339 11.7963C8.22339 11.0108 7.58663 10.374 6.80115 10.374C6.01566 10.374 5.37891 11.0108 5.37891 11.7963C5.37891 12.5818 6.01566 13.2185 6.80115 13.2185Z" fill="#9FBD93"/>
<path d="M4.8497 12.9289C5.63517 12.9289 6.27191 12.2922 6.27191 11.5067C6.27191 10.7212 5.63517 10.0845 4.8497 10.0845C4.06423 10.0845 3.42749 10.7212 3.42749 11.5067C3.42749 12.2922 4.06423 12.9289 4.8497 12.9289Z" fill="#9FBD93"/>
<path d="M8.9675 12.6728C9.75303 12.6728 10.3898 12.036 10.3898 11.2505C10.3898 10.4649 9.75303 9.82812 8.9675 9.82812C8.18197 9.82812 7.54517 10.4649 7.54517 11.2505C7.54517 12.036 8.18197 12.6728 8.9675 12.6728Z" fill="#9FBD93"/>
<path d="M1.4223 9.82751C2.20781 9.82751 2.8446 9.19072 2.8446 8.40521C2.8446 7.6197 2.20781 6.98291 1.4223 6.98291C0.636792 6.98291 0 7.6197 0 8.40521C0 9.19072 0.636792 9.82751 1.4223 9.82751Z" fill="#9FBD93"/>
<path d="M1.91278 7.12195C2.6983 7.12195 3.33508 6.48517 3.33508 5.69965C3.33508 4.91412 2.6983 4.27734 1.91278 4.27734C1.12726 4.27734 0.490479 4.91412 0.490479 5.69965C0.490479 6.48517 1.12726 7.12195 1.91278 7.12195Z" fill="#9FBD93"/>
<path d="M3.39096 4.75385C4.17649 4.75385 4.81329 4.11704 4.81329 3.33151C4.81329 2.54598 4.17649 1.90918 3.39096 1.90918C2.60543 1.90918 1.96863 2.54598 1.96863 3.33151C1.96863 4.11704 2.60543 4.75385 3.39096 4.75385Z" fill="#9FBD93"/>
<path d="M5.30585 3.10608C6.09129 3.10608 6.72803 2.46934 6.72803 1.6839C6.72803 0.898458 6.09129 0.261719 5.30585 0.261719C4.52041 0.261719 3.88367 0.898458 3.88367 1.6839C3.88367 2.46934 4.52041 3.10608 5.30585 3.10608Z" fill="#9FBD93"/>
<path d="M8.19412 2.84454C8.97962 2.84454 9.61639 2.20777 9.61639 1.42227C9.61639 0.636777 8.97962 0 8.19412 0C7.40863 0 6.77185 0.636777 6.77185 1.42227C6.77185 2.20777 7.40863 2.84454 8.19412 2.84454Z" fill="#9FBD93"/>
<path d="M11.3138 3.90332C12.0994 3.90332 12.7362 3.26651 12.7362 2.48096C12.7362 1.6954 12.0994 1.05859 11.3138 1.05859C10.5283 1.05859 9.89148 1.6954 9.89148 2.48096C9.89148 3.26651 10.5283 3.90332 11.3138 3.90332Z" fill="#9FBD93"/>
<path d="M6.00125 5.46783C6.78668 5.46783 7.4234 4.83111 7.4234 4.04568C7.4234 3.26026 6.78668 2.62354 6.00125 2.62354C5.21582 2.62354 4.5791 3.26026 4.5791 4.04568C4.5791 4.83111 5.21582 5.46783 6.00125 5.46783Z" fill="#9FBD93"/>
<path d="M8.1488 6.76782C8.93429 6.76782 9.57104 6.13107 9.57104 5.34558C9.57104 4.56009 8.93429 3.92334 8.1488 3.92334C7.36331 3.92334 6.72656 4.56009 6.72656 5.34558C6.72656 6.13107 7.36331 6.76782 8.1488 6.76782Z" fill="#9FBD93"/>
<path d="M8.24295 4.31256C9.02838 4.31256 9.6651 3.67585 9.6651 2.89041C9.6651 2.10498 9.02838 1.46826 8.24295 1.46826C7.45752 1.46826 6.8208 2.10498 6.8208 2.89041C6.8208 3.67585 7.45752 4.31256 8.24295 4.31256Z" fill="#9FBD93"/>
<path d="M6.31436 3.66339C7.09986 3.66339 7.73663 3.02662 7.73663 2.24112C7.73663 1.45562 7.09986 0.818848 6.31436 0.818848C5.52886 0.818848 4.89209 1.45562 4.89209 2.24112C4.89209 3.02662 5.52886 3.66339 6.31436 3.66339Z" fill="#9FBD93"/>
<path d="M10.1432 5.73065C10.9286 5.73065 11.5654 5.0939 11.5654 4.30844C11.5654 3.52298 10.9286 2.88623 10.1432 2.88623C9.3577 2.88623 8.72095 3.52298 8.72095 4.30844C8.72095 5.0939 9.3577 5.73065 10.1432 5.73065Z" fill="#9FBD93"/>
<path d="M8.66385 8.51691C9.44934 8.51691 10.0861 7.88013 10.0861 7.09464C10.0861 6.30914 9.44934 5.67236 8.66385 5.67236C7.87836 5.67236 7.24158 6.30914 7.24158 7.09464C7.24158 7.88013 7.87836 8.51691 8.66385 8.51691Z" fill="#9FBD93"/>
<path d="M8.71918 10.9647C9.50468 10.9647 10.1415 10.3279 10.1415 9.54242C10.1415 8.75691 9.50468 8.12012 8.71918 8.12012C7.93367 8.12012 7.29688 8.75691 7.29688 9.54242C7.29688 10.3279 7.93367 10.9647 8.71918 10.9647Z" fill="#9FBD93"/>
<path d="M11.6481 12.6539C12.4335 12.6539 13.0703 12.0172 13.0703 11.2317C13.0703 10.4463 12.4335 9.80957 11.6481 9.80957C10.8627 9.80957 10.226 10.4463 10.226 11.2317C10.226 12.0172 10.8627 12.6539 11.6481 12.6539Z" fill="#9FBD93"/>
<path d="M14.0496 12.6586C14.8351 12.6586 15.4719 12.0218 15.4719 11.2363C15.4719 10.4507 14.8351 9.81396 14.0496 9.81396C13.2641 9.81396 12.6273 10.4507 12.6273 11.2363C12.6273 12.0218 13.2641 12.6586 14.0496 12.6586Z" fill="#9FBD93"/>
<path d="M15.6686 13.1216C16.454 13.1216 17.0908 12.4849 17.0908 11.6995C17.0908 10.9141 16.454 10.2773 15.6686 10.2773C14.8832 10.2773 14.2465 10.9141 14.2465 11.6995C14.2465 12.4849 14.8832 13.1216 15.6686 13.1216Z" fill="#9FBD93"/>
<path d="M17.1261 11.2967C17.9116 11.2967 18.5484 10.6599 18.5484 9.87442C18.5484 9.08891 17.9116 8.45215 17.1261 8.45215C16.3406 8.45215 15.7039 9.08891 15.7039 9.87442C15.7039 10.6599 16.3406 11.2967 17.1261 11.2967Z" fill="#9FBD93"/>
<path d="M19.3643 9.61047C20.1498 9.61047 20.7865 8.97374 20.7865 8.18829C20.7865 7.40285 20.1498 6.76611 19.3643 6.76611C18.5789 6.76611 17.9421 7.40285 17.9421 8.18829C17.9421 8.97374 18.5789 9.61047 19.3643 9.61047Z" fill="#9FBD93"/>
<path d="M21.4259 8.5481C22.2114 8.5481 22.8481 7.91134 22.8481 7.12585C22.8481 6.34037 22.2114 5.70361 21.4259 5.70361C20.6404 5.70361 20.0037 6.34037 20.0037 7.12585C20.0037 7.91134 20.6404 8.5481 21.4259 8.5481Z" fill="#9FBD93"/>
<path d="M20.5676 6.19934C21.353 6.19934 21.9897 5.56261 21.9897 4.77716C21.9897 3.99171 21.353 3.35498 20.5676 3.35498C19.7821 3.35498 19.1454 3.99171 19.1454 4.77716C19.1454 5.56261 19.7821 6.19934 20.5676 6.19934Z" fill="#9FBD93"/>
<path d="M18.1576 5.51294C18.9431 5.51294 19.5798 4.87618 19.5798 4.0907C19.5798 3.30521 18.9431 2.66846 18.1576 2.66846C17.3721 2.66846 16.7354 3.30521 16.7354 4.0907C16.7354 4.87618 17.3721 5.51294 18.1576 5.51294Z" fill="#9FBD93"/>
<path d="M15.3834 5.3786C16.1688 5.3786 16.8056 4.74185 16.8056 3.95639C16.8056 3.17093 16.1688 2.53418 15.3834 2.53418C14.5979 2.53418 13.9612 3.17093 13.9612 3.95639C13.9612 4.74185 14.5979 5.3786 15.3834 5.3786Z" fill="#9FBD93"/>
<path d="M13.2373 4.86554C14.0228 4.86554 14.6596 4.22876 14.6596 3.44327C14.6596 2.65777 14.0228 2.021 13.2373 2.021C12.4518 2.021 11.8151 2.65777 11.8151 3.44327C11.8151 4.22876 12.4518 4.86554 13.2373 4.86554Z" fill="#9FBD93"/>
<path d="M12.0313 7.10706C12.8168 7.10706 13.4535 6.47033 13.4535 5.68488C13.4535 4.89942 12.8168 4.2627 12.0313 4.2627C11.2459 4.2627 10.6091 4.89942 10.6091 5.68488C10.6091 6.47033 11.2459 7.10706 12.0313 7.10706Z" fill="#9FBD93"/>
<path d="M10.3765 8.336C11.1619 8.336 11.7986 7.69927 11.7986 6.91385C11.7986 6.12843 11.1619 5.4917 10.3765 5.4917C9.59107 5.4917 8.95435 6.12843 8.95435 6.91385C8.95435 7.69927 9.59107 8.336 10.3765 8.336Z" fill="#9FBD93"/>
<path d="M7.5192 9.66486C8.3047 9.66486 8.94147 9.02808 8.94147 8.24258C8.94147 7.45708 8.3047 6.82031 7.5192 6.82031C6.7337 6.82031 6.09692 7.45708 6.09692 8.24258C6.09692 9.02808 6.7337 9.66486 7.5192 9.66486Z" fill="#9FBD93"/>
<path d="M3.57758 10.9962C4.36302 10.9962 4.99976 10.3595 4.99976 9.57404C4.99976 8.78859 4.36302 8.15186 3.57758 8.15186C2.79213 8.15186 2.1554 8.78859 2.1554 9.57404C2.1554 10.3595 2.79213 10.9962 3.57758 10.9962Z" fill="#9FBD93"/>
<path d="M10.9879 10.4122C11.7733 10.4122 12.41 9.77549 12.41 8.99005C12.41 8.20461 11.7733 7.56787 10.9879 7.56787C10.2024 7.56787 9.56567 8.20461 9.56567 8.99005C9.56567 9.77549 10.2024 10.4122 10.9879 10.4122Z" fill="#9FBD93"/>
<path d="M13.0685 10.7532C13.854 10.7532 14.4907 10.1164 14.4907 9.33093C14.4907 8.54545 13.854 7.90869 13.0685 7.90869C12.283 7.90869 11.6462 8.54545 11.6462 9.33093C11.6462 10.1164 12.283 10.7532 13.0685 10.7532Z" fill="#9FBD93"/>
<path d="M15.6377 10.4101C16.4232 10.4101 17.06 9.7733 17.06 8.98776C17.06 8.20223 16.4232 7.56543 15.6377 7.56543C14.8521 7.56543 14.2153 8.20223 14.2153 8.98776C14.2153 9.7733 14.8521 10.4101 15.6377 10.4101Z" fill="#9FBD93"/>
<path d="M17.181 8.77112C17.9664 8.77112 18.6031 8.13439 18.6031 7.34894C18.6031 6.56349 17.9664 5.92676 17.181 5.92676C16.3955 5.92676 15.7588 6.56349 15.7588 7.34894C15.7588 8.13439 16.3955 8.77112 17.181 8.77112Z" fill="#9FBD93"/>
<path d="M18.7698 7.59137C19.5552 7.59137 20.192 6.95465 20.192 6.16922C20.192 5.38379 19.5552 4.74707 18.7698 4.74707C17.9844 4.74707 17.3477 5.38379 17.3477 6.16922C17.3477 6.95465 17.9844 7.59137 18.7698 7.59137Z" fill="#9FBD93"/>
<path d="M16.4019 6.80615C17.1874 6.80615 17.8242 6.16933 17.8242 5.38379C17.8242 4.59825 17.1874 3.96143 16.4019 3.96143C15.6163 3.96143 14.9795 4.59825 14.9795 5.38379C14.9795 6.16933 15.6163 6.80615 16.4019 6.80615Z" fill="#9FBD93"/>
<path d="M14.2199 6.46259C15.0054 6.46259 15.6422 5.82584 15.6422 5.04037C15.6422 4.25491 15.0054 3.61816 14.2199 3.61816C13.4345 3.61816 12.7977 4.25491 12.7977 5.04037C12.7977 5.82584 13.4345 6.46259 14.2199 6.46259Z" fill="#9FBD93"/>
<path d="M12.8442 8.56531C13.6297 8.56531 14.2665 7.92852 14.2665 7.14301C14.2665 6.35749 13.6297 5.7207 12.8442 5.7207C12.0587 5.7207 11.4219 6.35749 11.4219 7.14301C11.4219 7.92852 12.0587 8.56531 12.8442 8.56531Z" fill="#9FBD93"/>
<path d="M15.0239 8.32581C15.8093 8.32581 16.446 7.68907 16.446 6.90363C16.446 6.11818 15.8093 5.48145 15.0239 5.48145C14.2384 5.48145 13.6017 6.11818 13.6017 6.90363C13.6017 7.68907 14.2384 8.32581 15.0239 8.32581Z" fill="#9FBD93"/>
<path d="M14.1339 9.21271C14.9194 9.21271 15.5562 8.57594 15.5562 7.79044C15.5562 7.00493 14.9194 6.36816 14.1339 6.36816C13.3484 6.36816 12.7117 7.00493 12.7117 7.79044C12.7117 8.57594 13.3484 9.21271 14.1339 9.21271Z" fill="#9FBD93"/>
<path d="M4.20703 7.52515C4.99252 7.52515 5.62927 6.88839 5.62927 6.10291C5.62927 5.31742 4.99252 4.68066 4.20703 4.68066C3.42154 4.68066 2.78479 5.31742 2.78479 6.10291C2.78479 6.88839 3.42154 7.52515 4.20703 7.52515Z" fill="#9FBD93"/>
<path d="M2.58548 8.40631C3.37091 8.40631 4.00763 7.76959 4.00763 6.98416C4.00763 6.19873 3.37091 5.56201 2.58548 5.56201C1.80005 5.56201 1.16333 6.19873 1.16333 6.98416C1.16333 7.76959 1.80005 8.40631 2.58548 8.40631Z" fill="#9FBD93"/>
<path d="M4.0643 5.74677C4.84976 5.74677 5.48651 5.11002 5.48651 4.32455C5.48651 3.53909 4.84976 2.90234 4.0643 2.90234C3.27884 2.90234 2.64209 3.53909 2.64209 4.32455C2.64209 5.11002 3.27884 5.74677 4.0643 5.74677Z" fill="#9FBD93"/>
<path d="M6.05032 6.9361C6.83575 6.9361 7.47247 6.29937 7.47247 5.51395C7.47247 4.72852 6.83575 4.0918 6.05032 4.0918C5.2649 4.0918 4.62817 4.72852 4.62817 5.51395C4.62817 6.29937 5.2649 6.9361 6.05032 6.9361Z" fill="#9FBD93"/>
<path d="M4.90637 8.95166C5.69191 8.95166 6.32874 8.31484 6.32874 7.5293C6.32874 6.74375 5.69191 6.10693 4.90637 6.10693C4.12083 6.10693 3.48401 6.74375 3.48401 7.5293C3.48401 8.31484 4.12083 8.95166 4.90637 8.95166Z" fill="#9FBD93"/>
<path d="M3.95856 9.90247C4.74401 9.90247 5.38074 9.26574 5.38074 8.48029C5.38074 7.69483 4.74401 7.05811 3.95856 7.05811C3.1731 7.05811 2.53638 7.69483 2.53638 8.48029C2.53638 9.26574 3.1731 9.90247 3.95856 9.90247Z" fill="#9FBD93"/>
<path d="M10.0391 11.2767C10.8246 11.2767 11.4614 10.6399 11.4614 9.8544C11.4614 9.0689 10.8246 8.43213 10.0391 8.43213C9.25359 8.43213 8.61682 9.0689 8.61682 9.8544C8.61682 10.6399 9.25359 11.2767 10.0391 11.2767Z" fill="#9FBD93"/>
<path d="M9.40115 9.11017C10.1867 9.11017 10.8234 8.4734 10.8234 7.6879C10.8234 6.90239 10.1867 6.26562 9.40115 6.26562C8.61565 6.26562 7.97888 6.90239 7.97888 7.6879C7.97888 8.4734 8.61565 9.11017 9.40115 9.11017Z" fill="#9FBD93"/>
<path d="M7.31223 11.2219C8.09769 11.2219 8.73444 10.5851 8.73444 9.79965C8.73444 9.01419 8.09769 8.37744 7.31223 8.37744C6.52676 8.37744 5.89001 9.01419 5.89001 9.79965C5.89001 10.5851 6.52676 11.2219 7.31223 11.2219Z" fill="#9FBD93"/>
<path d="M9.24356 6.9505C10.0291 6.9505 10.6658 6.31373 10.6658 5.52823C10.6658 4.74273 10.0291 4.10596 9.24356 4.10596C8.45806 4.10596 7.82129 4.74273 7.82129 5.52823C7.82129 6.31373 8.45806 6.9505 9.24356 6.9505Z" fill="#9FBD93"/>
<path d="M9.51022 3.70477C10.2957 3.70477 10.9324 3.06803 10.9324 2.28256C10.9324 1.49709 10.2957 0.860352 9.51022 0.860352C8.72475 0.860352 8.08801 1.49709 8.08801 2.28256C8.08801 3.06803 8.72475 3.70477 9.51022 3.70477Z" fill="#9FBD93"/>
<path d="M11.596 5.75299C12.3814 5.75299 13.0181 5.11628 13.0181 4.33084C13.0181 3.5454 12.3814 2.90869 11.596 2.90869C10.8105 2.90869 10.1738 3.5454 10.1738 4.33084C10.1738 5.11628 10.8105 5.75299 11.596 5.75299Z" fill="#9FBD93"/>
<path d="M17.8073 9.35773C18.5928 9.35773 19.2296 8.72096 19.2296 7.93546C19.2296 7.14995 18.5928 6.51318 17.8073 6.51318C17.0218 6.51318 16.385 7.14995 16.385 7.93546C16.385 8.72096 17.0218 9.35773 17.8073 9.35773Z" fill="#9FBD93"/>
<path d="M21.4259 10.8409C22.2114 10.8409 22.8481 10.2042 22.8481 9.41873C22.8481 8.6333 22.2114 7.99658 21.4259 7.99658C20.6405 7.99658 20.0038 8.6333 20.0038 9.41873C20.0038 10.2042 20.6405 10.8409 21.4259 10.8409Z" fill="#9FBD93"/>
<path d="M19.1449 11.3252C19.9303 11.3252 20.567 10.6885 20.567 9.90308C20.567 9.11766 19.9303 8.48096 19.1449 8.48096C18.3595 8.48096 17.7228 9.11766 17.7228 9.90308C17.7228 10.6885 18.3595 11.3252 19.1449 11.3252Z" fill="#9FBD93"/>
<path d="M23.4417 9.9024C24.2271 9.9024 24.8638 9.26569 24.8638 8.48026C24.8638 7.69482 24.2271 7.05811 23.4417 7.05811C22.6562 7.05811 22.0195 7.69482 22.0195 8.48026C22.0195 9.26569 22.6562 9.9024 23.4417 9.9024Z" fill="#9FBD93"/>
<path d="M22.8486 7.0946C23.6341 7.0946 24.2709 6.45782 24.2709 5.6723C24.2709 4.88679 23.6341 4.25 22.8486 4.25C22.0631 4.25 21.4263 4.88679 21.4263 5.6723C21.4263 6.45782 22.0631 7.0946 22.8486 7.0946Z" fill="#9FBD93"/>
<path d="M24.8644 7.59155C25.6499 7.59155 26.2866 6.9548 26.2866 6.16931C26.2866 5.38382 25.6499 4.74707 24.8644 4.74707C24.0789 4.74707 23.4421 5.38382 23.4421 6.16931C23.4421 6.9548 24.0789 7.59155 24.8644 7.59155Z" fill="#9FBD93"/>
<path d="M25.0178 8.65155C25.8033 8.65155 26.44 8.0148 26.44 7.22934C26.44 6.44387 25.8033 5.80713 25.0178 5.80713C24.2323 5.80713 23.5956 6.44387 23.5956 7.22934C23.5956 8.0148 24.2323 8.65155 25.0178 8.65155Z" fill="#9FBD93"/>
<path d="M22.8485 8.32593C23.634 8.32593 24.2708 7.68917 24.2708 6.90369C24.2708 6.1182 23.634 5.48145 22.8485 5.48145C22.063 5.48145 21.4263 6.1182 21.4263 6.90369C21.4263 7.68917 22.063 8.32593 22.8485 8.32593Z" fill="#9FBD93"/>
<path d="M26.9509 7.34851C27.7364 7.34851 28.3732 6.71172 28.3732 5.92621C28.3732 5.1407 27.7364 4.50391 26.9509 4.50391C26.1654 4.50391 25.5286 5.1407 25.5286 5.92621C25.5286 6.71172 26.1654 7.34851 26.9509 7.34851Z" fill="#9FBD93"/>
<path d="M20.5965 7.22888C21.382 7.22888 22.0188 6.59209 22.0188 5.80658C22.0188 5.02107 21.382 4.38428 20.5965 4.38428C19.811 4.38428 19.1742 5.02107 19.1742 5.80658C19.1742 6.59209 19.811 7.22888 20.5965 7.22888Z" fill="#9FBD93"/>
<path d="M6.10092 10.841C6.88638 10.841 7.52313 10.2043 7.52313 9.41879C7.52313 8.63333 6.88638 7.99658 6.10092 7.99658C5.31546 7.99658 4.67871 8.63333 4.67871 9.41879C4.67871 10.2043 5.31546 10.841 6.10092 10.841Z" fill="#9FBD93"/>
<path d="M6.46451 8.34308C7.25 8.34308 7.88678 7.7063 7.88678 6.92081C7.88678 6.13531 7.25 5.49854 6.46451 5.49854C5.67902 5.49854 5.04224 6.13531 5.04224 6.92081C5.04224 7.7063 5.67902 8.34308 6.46451 8.34308Z" fill="#9FBD93"/>
</svg>
