<svg width="55" height="50" viewBox="0 0 55 50" fill="none" xmlns="http://www.w3.org/2000/svg">
<path fill-rule="evenodd" clip-rule="evenodd" d="M48.6317 10.726C42.2824 7.97169 40.4673 13.2025 37.4317 12.0992C34.3961 10.996 33.3147 0.935558 33.3147 0.935558C30.2714 0.657816 26.4093 2.58658 26.4093 2.58658C25.8532 14.7224 36.3503 17.7544 31.1056 30.9934C29.3213 35.4836 25.5829 33.1999 22.2692 30.4456C19.6044 28.2314 15.7037 29.5661 14.267 30.1833C13.9238 30.5787 13.6614 31.0374 13.4946 31.5335C13.3967 31.8813 13.0837 32.1251 12.7222 32.1352C12.6477 32.1422 12.5727 32.1422 12.4982 32.1352C12.0619 32.0083 11.81 31.5534 11.9343 31.1168C12.1896 30.3021 12.6222 29.5538 13.2011 28.9258C12.4827 27.4368 10.8143 25.6623 7.07582 27.4445C-0.648315 31.1014 0.996926 44.8111 0.996926 44.8111C2.11815 45.0362 3.15374 45.5708 3.98617 46.3541C5.04437 44.8111 7.37706 44.3867 7.37706 44.3867C7.33306 42.9629 7.53959 41.5423 7.98727 40.1898C7.83031 40.1977 7.67305 40.1977 7.5161 40.1898C6.86663 40.1853 6.22317 40.0651 5.61596 39.8349C5.32213 39.7448 5.10258 39.4994 5.04598 39.1977C4.98938 38.8959 5.10509 38.5877 5.34636 38.3976C5.58764 38.2074 5.91463 38.1667 6.19527 38.2918C7.09022 38.7263 8.15275 38.6282 8.95279 38.0373C9.68772 37.4327 10.0824 36.509 10.011 35.5607V35.5607C10.011 35.5607 10.1964 35.499 10.2041 35.4681C10.2118 35.4373 10.2968 35.4141 10.2968 35.3987C10.2968 35.3833 10.3586 35.337 10.374 35.3138C10.3868 35.289 10.4023 35.2657 10.4204 35.2444C10.4311 35.2161 10.4468 35.19 10.4667 35.1673L10.5131 35.0978L10.5594 35.0438L10.6135 34.9821C10.6303 34.9602 10.6513 34.9418 10.6753 34.9281L10.7371 34.8818L10.7834 34.7892L10.8607 34.7506H10.9302H11.0229H11.1001C11.1001 34.7506 11.1464 34.8664 11.1696 34.8664C11.1733 34.91 11.1733 34.9539 11.1696 34.9975V34.9975C11.3241 34.9975 11.4709 34.9281 11.5944 34.9975C11.5944 34.9975 11.5944 34.9512 11.5944 34.9975C11.5944 35.0438 11.6485 34.9975 11.6717 34.9975L11.7489 35.0747V35.0747C11.7741 35.1106 11.7948 35.1495 11.8107 35.1904V35.1904C11.8107 35.1904 11.8107 35.2598 11.8107 35.2984C11.8082 35.3163 11.8082 35.3345 11.8107 35.3524V35.3524C12.1913 37.0943 12.7827 38.7834 13.5718 40.3826C15.4488 43.0983 18.0827 47.141 25.3589 48.9155C37.7793 51.9475 47.7589 44.7725 52.6869 33.4854C56.0314 26.3489 54.9655 13.4802 48.6317 10.726Z" fill="#B2D3A4"/>
</svg>
