<svg width="26" height="17" viewBox="0 0 26 17" fill="none" xmlns="http://www.w3.org/2000/svg">
<path d="M25.0729 4.32603C24.2782 6.03288 22.3319 10.7217 21.1307 13.7841C19.9294 16.8464 15.8431 16.587 14.4912 14.9709C13.4848 13.7673 11.8931 13.7673 10.8862 14.9709C9.53484 16.587 5.44852 16.8464 4.24669 13.7841C3.04545 10.7217 1.09975 6.03282 0.304491 4.32603C-0.490189 2.61918 0.187323 0 3.32827 0C6.46863 0 7.87138 2.14252 8.3354 2.82663C8.79877 3.51131 16.5792 3.51131 17.0426 2.82663C17.506 2.14252 18.9088 0 22.0497 0C25.1901 0 25.8681 2.61918 25.0729 4.32603V4.32603Z" fill="#9FBD93"/>
</svg>
